{"glyphs":{"0":{"ha":883,"x_min":92,"x_max":789,"o":"m 92 508 q 168 136 92 271 q 440 1 244 1 q 713 136 636 1 q 789 508 789 271 q 713 881 789 747 q 440 1015 636 1015 q 168 881 244 1015 q 92 508 92 746 m 667 508 q 651 305 667 389 q 585 167 635 221 q 440 114 536 114 q 295 167 344 114 q 231 304 246 221 q 215 508 215 388 q 231 713 215 629 q 295 850 246 797 q 440 903 344 903 q 585 850 536 903 q 651 713 635 797 q 667 508 667 629 z "},"1":{"ha":446,"x_min":72,"x_max":310,"o":"m 72 874 l 72 986 l 310 986 l 310 0 l 186 0 l 186 874 l 72 874 z "},"2":{"ha":804,"x_min":78,"x_max":743,"o":"m 78 104 q 178 190 144 163 q 399 389 318 311 q 535 552 481 467 q 589 719 589 638 q 544 860 589 807 q 400 913 499 913 q 254 853 306 913 q 199 697 203 794 l 78 697 q 172 937 83 853 q 399 1021 260 1021 q 627 941 542 1021 q 713 724 713 861 q 658 528 713 624 q 527 356 603 433 q 339 181 451 279 q 271 121 264 115 l 743 121 l 743 14 l 78 14 l 78 104 z "},"3":{"ha":818,"x_min":71,"x_max":733,"o":"m 408 1036 q 574 1002 506 1036 q 679 909 643 968 q 715 775 715 850 q 669 631 715 693 q 551 547 624 569 l 551 540 q 685 449 636 517 q 733 275 733 381 q 697 132 733 196 q 588 31 660 68 q 414 -6 515 -6 q 175 69 269 -6 q 71 282 81 144 l 190 282 q 256 152 197 203 q 413 101 315 101 q 563 153 511 101 q 615 288 615 206 q 546 443 615 397 q 333 489 476 489 l 300 489 l 300 594 l 335 594 q 596 763 596 597 q 547 883 596 839 q 404 928 497 928 q 268 887 319 928 q 206 778 217 846 l 83 778 q 184 967 94 899 q 408 1036 274 1036 z "},"4":{"ha":881,"x_min":63,"x_max":836,"o":"m 63 225 l 63 314 l 540 1000 l 701 1000 l 701 333 l 836 333 l 836 225 l 701 225 l 701 0 l 579 0 l 579 225 l 63 225 m 583 883 l 210 333 l 583 333 l 583 883 z "},"5":{"ha":881,"x_min":101,"x_max":793,"o":"m 726 906 l 242 906 l 242 588 q 335 664 272 633 q 469 694 397 694 q 658 645 585 694 q 762 519 731 596 q 793 356 793 442 q 706 99 793 199 q 450 0 618 0 q 213 74 303 0 q 101 268 124 147 l 222 268 q 302 150 242 193 q 450 107 363 107 q 617 174 561 107 q 674 351 674 240 q 617 526 674 465 q 450 586 561 586 q 321 547 375 586 q 240 442 267 508 l 125 442 l 125 1015 l 726 1015 l 726 906 z "},"6":{"ha":894,"x_min":111,"x_max":803,"o":"m 654 789 q 592 896 636 861 q 465 931 547 931 q 328 892 382 931 q 247 765 275 853 q 217 528 219 676 q 328 634 254 596 q 492 672 401 672 q 653 632 583 672 q 763 517 724 592 q 803 338 803 442 q 766 165 803 242 q 656 44 729 89 q 475 0 582 0 q 249 67 329 0 q 140 249 169 133 q 111 535 111 364 q 197 906 111 774 q 465 1038 283 1038 q 621 1003 556 1038 q 723 913 686 969 q 768 789 760 857 l 654 789 m 235 343 q 294 171 235 235 q 469 107 354 107 q 626 167 568 107 q 683 331 683 228 q 628 502 683 440 q 465 564 574 564 q 353 540 406 564 q 267 466 300 515 q 235 343 235 417 z "},"7":{"ha":778,"x_min":56,"x_max":725,"o":"m 725 917 l 328 0 l 189 0 l 604 904 l 56 904 l 56 1011 l 725 1011 l 725 917 z "},"8":{"ha":882,"x_min":88,"x_max":793,"o":"m 114 772 q 151 910 114 849 q 263 1008 189 972 q 440 1044 336 1044 q 619 1008 546 1044 q 730 910 693 972 q 767 771 767 847 q 725 630 767 690 q 617 540 683 569 q 744 445 696 514 q 793 281 793 376 q 749 117 793 188 q 624 10 704 47 q 440 -28 544 -28 q 256 10 336 -28 q 132 117 176 47 q 88 281 88 188 q 136 445 88 376 q 265 540 185 514 q 154 632 194 574 q 114 772 114 690 m 233 758 q 291 634 233 683 q 440 585 349 585 q 590 634 532 585 q 647 758 647 683 q 592 891 647 844 q 440 938 538 938 q 289 891 344 938 q 233 758 233 844 m 207 283 q 270 135 207 190 q 440 79 333 79 q 610 135 547 79 q 672 283 672 192 q 608 434 672 383 q 440 485 544 485 q 272 434 338 485 q 207 283 207 383 z "},"9":{"ha":882,"x_min":115,"x_max":786,"o":"m 258 260 q 326 147 274 186 q 464 108 378 108 q 584 144 538 108 q 654 264 631 179 q 678 493 678 349 q 577 408 642 438 q 438 379 513 379 q 275 417 349 379 q 158 529 201 456 q 115 704 115 603 q 203 947 115 856 q 446 1038 290 1038 q 707 913 628 1038 q 786 529 786 789 q 756 233 786 349 q 654 60 726 118 q 457 1 582 1 q 238 75 317 1 q 143 260 158 149 l 258 260 m 660 701 q 603 870 660 810 q 449 931 547 931 q 292 869 350 931 q 235 706 235 808 q 291 549 235 610 q 460 488 347 488 q 607 546 554 488 q 660 701 660 604 z "},"\u0000":{"ha":0,"x_min":0,"x_max":0,"o":""},"\r":{"ha":417,"x_min":0,"x_max":0,"o":""}," ":{"ha":417,"x_min":0,"x_max":0,"o":""},"अ":{"ha":1154,"x_min":119,"x_max":1204,"o":"m 1204 1028 l 1204 921 l 1022 921 l 1022 0 l 903 0 l 903 453 l 692 453 q 710 357 710 406 q 629 151 710 228 q 417 75 549 75 q 263 109 331 75 q 158 207 196 143 q 119 357 119 271 l 232 357 q 283 226 232 275 q 418 176 335 176 q 550 226 501 176 q 599 357 599 275 q 548 481 599 439 q 406 522 497 522 l 354 522 l 354 629 l 399 629 q 530 669 478 629 q 582 782 582 708 q 535 897 582 854 q 413 940 489 940 q 291 897 339 940 q 242 782 243 853 l 131 782 q 167 919 131 860 q 269 1010 204 978 q 414 1042 333 1042 q 558 1010 494 1042 q 658 921 622 979 q 694 786 694 863 q 657 659 694 711 q 549 583 619 607 l 549 576 q 604 553 576 569 l 903 553 l 903 1028 l 1204 1028 z "},"आ":{"ha":1536,"x_min":119,"x_max":1586,"o":"m 1586 921 l 1406 921 l 1406 0 l 1286 0 l 1286 921 l 1022 921 l 1022 0 l 903 0 l 903 453 l 692 453 q 710 357 710 406 q 629 151 710 228 q 417 75 549 75 q 263 109 331 75 q 158 207 196 143 q 119 357 119 271 l 232 357 q 283 226 232 275 q 418 176 335 176 q 550 226 501 176 q 599 357 599 275 q 548 481 599 439 q 406 522 497 522 l 354 522 l 354 629 l 399 629 q 530 669 478 629 q 582 782 582 708 q 535 897 582 854 q 413 940 489 940 q 291 897 339 940 q 242 782 243 853 l 131 782 q 167 919 131 860 q 269 1010 204 978 q 414 1042 333 1042 q 558 1010 494 1042 q 658 921 622 979 q 694 786 694 863 q 657 659 694 711 q 549 583 619 607 l 549 576 q 604 553 576 569 l 903 553 l 903 1028 l 1586 1028 l 1586 921 z "},"इ":{"ha":826,"x_min":-50,"x_max":876,"o":"m 453 669 q 319 647 368 669 q 271 558 271 624 q 316 467 271 490 q 449 444 361 444 q 676 399 590 444 q 761 218 761 353 q 690 49 761 115 q 492 -17 618 -17 q 265 78 335 -17 l 265 -107 l 149 -107 l 149 274 l 265 274 q 321 135 271 185 q 468 86 371 86 q 597 120 550 86 q 644 224 644 154 q 594 322 644 299 q 454 344 544 344 q 233 392 314 344 q 151 563 151 439 q 232 725 151 676 q 438 774 313 774 l 558 774 l 558 921 l -50 921 l -50 1028 l 876 1028 l 876 921 l 678 921 l 678 669 l 453 669 z "},"ई":{"ha":826,"x_min":-50,"x_max":1015,"o":"m 796 1447 q 958 1383 901 1447 q 1015 1211 1015 1319 l 913 1211 q 884 1313 911 1278 q 794 1349 857 1349 q 701 1303 729 1349 q 672 1163 672 1257 l 672 1028 l 876 1028 l 876 921 l 678 921 l 678 669 l 453 669 q 319 647 368 669 q 271 558 271 624 q 316 467 271 490 q 449 444 361 444 q 676 399 590 444 q 761 218 761 353 q 690 49 761 115 q 492 -17 618 -17 q 265 78 335 -17 l 265 -107 l 149 -107 l 149 274 l 265 274 q 321 135 271 185 q 468 86 371 86 q 597 120 550 86 q 644 224 644 154 q 594 322 644 299 q 454 344 544 344 q 233 392 314 344 q 151 563 151 439 q 232 725 151 676 q 438 774 313 774 l 558 774 l 558 921 l -50 921 l -50 1028 l 564 1028 l 564 1163 q 619 1373 564 1299 q 796 1447 674 1447 z "},"उ":{"ha":807,"x_min":-51,"x_max":857,"o":"m 672 876 q 646 679 672 753 q 539 565 619 606 l 539 558 q 666 467 618 532 q 714 308 714 401 q 634 90 714 169 q 414 11 554 11 q 244 51 317 11 q 131 161 171 90 q 92 325 92 232 l 203 325 q 231 218 203 267 q 307 142 258 169 q 414 114 356 114 q 552 167 500 114 q 604 307 604 221 q 540 455 604 404 q 378 506 475 506 l 329 506 l 329 615 l 375 615 q 519 682 479 615 q 560 874 560 749 l 560 921 l -51 921 l -51 1028 l 857 1028 l 857 921 l 672 921 l 672 876 z "},"ऊ":{"ha":1188,"x_min":-50,"x_max":1238,"o":"m 671 876 q 644 679 671 753 q 538 565 618 606 l 538 557 l 803 557 q 1122 294 1122 557 q 1047 95 1122 157 q 840 33 972 33 q 767 38 804 33 l 767 133 q 822 131 806 131 q 959 167 913 131 q 1006 293 1006 203 q 955 419 1006 385 q 803 454 904 454 l 672 454 q 713 308 713 389 q 633 90 713 169 q 413 11 553 11 q 244 51 317 11 q 131 161 171 90 q 92 325 92 232 l 201 325 q 229 218 201 267 q 306 142 257 169 q 413 114 354 114 q 551 167 500 114 q 603 307 603 219 q 538 455 603 404 q 378 506 474 506 l 328 506 l 328 615 l 375 615 q 519 683 478 615 q 560 874 560 750 l 560 921 l -50 921 l -50 1028 l 1238 1028 l 1238 921 l 671 921 l 671 876 z "},"ऋ":{"ha":1361,"x_min":-50,"x_max":1411,"o":"m 793 921 l 793 653 l 1042 653 q 1108 673 1093 653 q 1124 749 1124 693 l 1124 797 l 1238 797 l 1238 297 l 1197 297 q 1083 258 1122 296 q 1044 154 1044 221 q 1091 47 1044 82 q 1208 11 1138 11 q 1296 24 1254 11 l 1296 -74 q 1203 -87 1258 -87 q 1008 -26 1085 -87 q 932 153 932 35 q 983 306 932 246 q 1124 383 1033 367 l 1124 561 q 1042 551 1090 551 l 793 551 l 793 0 l 674 0 l 674 374 l 310 0 l 157 0 l 157 7 l 256 103 q 665 501 607 443 q 590 629 647 582 q 446 676 533 676 q 272 608 336 676 q 207 424 207 539 l 89 424 q 131 612 89 531 q 249 738 172 693 q 426 783 325 783 q 574 751 511 783 q 674 661 636 718 l 674 921 l -50 921 l -50 1028 l 1411 1028 l 1411 921 l 793 921 z "},"ॠ":{"ha":1364,"x_min":-50,"x_max":1411,"o":"m 793 921 l 793 653 l 1042 653 q 1108 673 1093 653 q 1124 749 1124 693 l 1124 797 l 1238 797 l 1238 290 l 1204 290 q 1089 271 1132 290 q 1046 193 1046 251 q 1090 118 1046 136 q 1208 100 1135 100 l 1244 100 l 1244 3 l 1204 3 q 1091 -24 1135 3 q 1047 -112 1047 -51 q 1085 -192 1047 -165 q 1190 -219 1124 -219 q 1279 -210 1231 -219 l 1279 -304 q 1182 -315 1226 -315 q 1002 -262 1068 -315 q 936 -119 936 -210 q 964 -19 936 -62 q 1038 46 992 24 q 963 104 992 64 q 933 197 933 144 q 988 322 933 279 q 1124 374 1043 365 l 1124 561 q 1042 551 1090 551 l 793 551 l 793 0 l 674 0 l 674 374 l 310 0 l 157 0 l 157 7 q 394 237 232 79 q 665 500 557 394 q 590 629 647 582 q 446 676 533 676 q 272 608 336 676 q 207 424 207 539 l 89 424 q 131 612 89 531 q 249 738 172 693 q 426 783 325 783 q 574 751 511 783 q 674 661 636 718 l 674 921 l -50 921 l -50 1028 l 1411 1028 l 1411 921 l 793 921 z "},"ऌ":{"ha":1260,"x_min":-50,"x_max":1310,"o":"m 857 146 q 906 299 857 238 q 1044 374 956 360 q 1012 535 1050 468 q 874 603 974 603 q 730 525 769 603 q 696 314 690 447 l 582 314 q 404 603 594 603 q 233 378 233 603 q 292 199 233 264 q 464 133 350 133 q 493 135 483 133 l 493 26 q 449 25 478 25 q 270 68 346 25 q 154 191 194 111 q 114 376 114 271 q 185 623 114 535 q 397 711 256 711 q 551 667 488 711 q 639 543 614 624 q 706 651 658 610 q 824 701 754 692 l 824 921 l -50 921 l -50 1028 l 1310 1028 l 1310 921 l 942 921 l 942 706 q 1103 607 1044 688 q 1161 392 1161 526 q 1153 290 1161 344 l 1121 290 q 1007 253 1046 290 q 968 147 968 215 q 1015 40 968 75 q 1132 4 1061 4 q 1221 17 1178 4 l 1221 -82 q 1125 -93 1176 -93 q 932 -33 1007 -93 q 857 146 857 28 z "},"ॡ":{"ha":1260,"x_min":-50,"x_max":1310,"o":"m 1132 293 q 1016 274 1060 293 q 972 196 972 254 q 1017 121 972 139 q 1136 103 1063 103 l 1172 103 l 1172 6 l 1132 6 q 1019 -22 1063 6 q 975 -110 975 -49 q 1014 -190 975 -162 q 1121 -217 1053 -217 q 1206 -206 1161 -217 l 1206 -301 q 1110 -311 1161 -311 q 929 -258 996 -311 q 863 -117 863 -206 q 891 -17 863 -60 q 965 49 919 26 q 890 107 919 67 q 861 200 861 147 q 914 324 861 282 q 1044 372 967 367 q 874 603 1044 603 q 730 525 769 603 q 696 314 690 447 l 582 314 q 404 603 594 603 q 233 378 233 603 q 292 199 233 264 q 464 133 350 133 q 493 135 483 133 l 493 26 q 449 25 478 25 q 270 68 346 25 q 154 191 194 111 q 114 376 114 271 q 185 623 114 535 q 397 711 256 711 q 551 667 488 711 q 639 543 614 624 q 706 651 658 610 q 824 701 754 692 l 824 921 l -50 921 l -50 1028 l 1310 1028 l 1310 921 l 942 921 l 942 706 q 1104 606 1046 688 q 1163 386 1163 524 q 1156 293 1163 342 l 1132 293 z "},"ए":{"ha":918,"x_min":-50,"x_max":968,"o":"m 513 564 q 619 581 583 567 q 669 635 654 596 q 685 753 685 674 l 685 921 l 274 921 l 274 365 q 326 192 274 250 q 486 133 378 133 q 640 185 588 133 q 692 338 692 236 l 810 338 q 724 109 810 192 q 490 26 639 26 q 235 120 318 26 q 153 376 153 214 l 153 921 l -50 921 l -50 1028 l 968 1028 l 968 921 l 804 921 l 804 751 q 774 575 804 640 q 680 481 743 510 q 513 454 617 453 l 513 564 z "},"ऐ":{"ha":918,"x_min":-50,"x_max":968,"o":"m 513 564 q 619 581 583 567 q 669 635 654 596 q 685 753 685 674 l 685 921 l 274 921 l 274 365 q 326 192 274 250 q 486 133 378 133 q 640 185 588 133 q 692 338 692 236 l 810 338 q 724 109 810 192 q 490 26 639 26 q 235 120 318 26 q 153 376 153 214 l 153 921 l -50 921 l -50 1028 l 654 1028 q 535 1185 575 1143 q 447 1242 494 1228 q 300 1256 400 1256 l 250 1256 l 250 1358 l 293 1358 q 479 1340 414 1358 q 611 1253 544 1322 q 775 1028 678 1185 l 968 1028 l 968 921 l 804 921 l 804 751 q 774 575 804 640 q 680 481 743 510 q 513 454 617 453 l 513 564 z "},"ओ":{"ha":1543,"x_min":126,"x_max":1593,"o":"m 1593 1028 l 1593 921 l 1413 921 l 1413 0 l 1293 0 l 1293 921 l 1029 921 l 1029 0 l 910 0 l 910 453 l 699 453 q 717 357 717 406 q 636 151 717 228 q 424 75 556 75 q 270 109 338 75 q 165 207 203 143 q 126 357 126 271 l 239 357 q 290 226 239 275 q 425 176 342 176 q 557 226 508 176 q 606 357 606 275 q 555 481 606 439 q 413 522 504 522 l 361 522 l 361 629 l 406 629 q 537 669 485 629 q 589 782 589 708 q 542 897 589 854 q 419 940 496 940 q 298 897 346 940 q 249 782 250 853 l 138 782 q 174 919 138 860 q 276 1010 211 978 q 421 1042 340 1042 q 565 1010 501 1042 q 665 921 629 979 q 701 786 701 863 q 664 659 701 711 q 556 583 626 607 l 556 576 q 611 553 583 569 l 910 553 l 910 1028 l 1294 1028 q 1175 1185 1215 1143 q 1088 1242 1135 1228 q 940 1256 1040 1256 l 890 1256 l 890 1358 l 933 1358 q 1119 1340 1054 1358 q 1251 1253 1185 1322 q 1415 1028 1318 1185 l 1593 1028 z "},"औ":{"ha":1610,"x_min":193,"x_max":1660,"o":"m 1660 1028 l 1660 921 l 1479 921 l 1479 0 l 1360 0 l 1360 921 l 1096 921 l 1096 0 l 976 0 l 976 453 l 765 453 q 783 357 783 406 q 703 151 783 228 q 490 75 622 75 q 337 109 404 75 q 231 207 269 143 q 193 357 193 271 l 306 357 q 357 226 306 275 q 492 176 408 176 q 624 226 575 176 q 672 357 672 275 q 622 481 672 439 q 479 522 571 522 l 428 522 l 428 629 l 472 629 q 603 669 551 629 q 656 782 656 708 q 609 897 656 854 q 486 940 563 940 q 365 897 413 940 q 315 782 317 853 l 204 782 q 241 919 204 860 q 342 1010 278 978 q 488 1042 407 1042 q 632 1010 568 1042 q 732 921 696 979 q 768 786 768 863 q 731 659 768 711 q 622 583 693 607 l 622 576 q 678 553 650 569 l 976 553 l 976 1028 l 1353 1028 q 1264 1094 1307 1074 q 1174 1119 1221 1114 q 1032 1124 1126 1124 l 982 1124 l 982 1219 l 1025 1219 q 1159 1215 1113 1219 q 1250 1188 1206 1210 q 1346 1118 1294 1167 q 1253 1232 1296 1194 q 1160 1283 1211 1269 q 1025 1296 1108 1296 l 974 1296 l 974 1392 l 1018 1392 q 1199 1369 1135 1392 q 1326 1272 1264 1347 q 1478 1028 1389 1196 l 1660 1028 z "},"ऍ":{"ha":874,"x_min":-90,"x_max":928,"o":"m 433 1174 q 290 1235 338 1174 q 243 1396 243 1297 l 349 1396 q 369 1253 349 1307 q 433 1199 390 1199 q 499 1251 481 1199 q 518 1396 518 1304 l 624 1396 q 576 1235 624 1297 q 433 1174 529 1174 m 472 564 q 578 581 543 567 q 629 635 614 596 q 644 753 644 674 l 644 921 l 233 921 l 233 365 q 285 192 233 250 q 446 133 338 133 q 599 185 547 133 q 651 338 651 236 l 769 338 q 684 109 769 192 q 450 26 599 26 q 195 120 278 26 q 113 376 113 214 l 113 921 l -90 921 l -90 1028 l 928 1028 l 928 921 l 764 921 l 764 751 q 733 575 764 640 q 640 481 703 510 q 472 454 576 453 l 472 564 z "},"ॲ":{"ha":1154,"x_min":119,"x_max":1235,"o":"m 1204 1028 l 1204 921 l 1022 921 l 1022 0 l 903 0 l 903 453 l 692 453 q 710 357 710 406 q 629 151 710 228 q 417 75 549 75 q 263 109 331 75 q 158 207 196 143 q 119 357 119 271 l 232 357 q 283 226 232 275 q 418 176 335 176 q 550 226 501 176 q 599 357 599 275 q 548 481 599 439 q 406 522 497 522 l 354 522 l 354 629 l 399 629 q 530 669 478 629 q 582 782 582 708 q 535 897 582 854 q 413 940 489 940 q 291 897 339 940 q 242 782 243 853 l 131 782 q 167 919 131 860 q 269 1010 204 978 q 414 1042 333 1042 q 558 1010 494 1042 q 658 921 622 979 q 694 786 694 863 q 657 659 694 711 q 549 583 619 607 l 549 576 q 604 553 576 569 l 903 553 l 903 1028 l 1204 1028 m 968 1115 q 767 1184 832 1115 q 701 1363 701 1253 l 807 1363 q 847 1255 807 1299 q 968 1211 888 1211 q 1089 1255 1049 1211 q 1129 1363 1129 1299 l 1235 1363 q 1169 1184 1235 1253 q 968 1115 1104 1115 z "},"ऑ":{"ha":1543,"x_min":126,"x_max":1593,"o":"m 1183 1135 q 988 1203 1049 1135 q 928 1382 928 1271 l 1033 1382 q 1069 1274 1033 1317 q 1183 1231 1104 1231 q 1299 1273 1264 1231 q 1333 1382 1333 1315 l 1439 1382 q 1378 1203 1439 1271 q 1183 1135 1318 1135 m 1593 921 l 1413 921 l 1413 0 l 1293 0 l 1293 921 l 1029 921 l 1029 0 l 910 0 l 910 453 l 699 453 q 717 357 717 406 q 636 151 717 228 q 424 75 556 75 q 270 109 338 75 q 165 207 203 143 q 126 357 126 271 l 239 357 q 290 226 239 275 q 425 176 342 176 q 557 226 508 176 q 606 357 606 275 q 555 481 606 439 q 413 522 504 522 l 361 522 l 361 629 l 406 629 q 537 669 485 629 q 589 782 589 708 q 542 897 589 854 q 419 940 496 940 q 298 897 346 940 q 249 782 250 853 l 138 782 q 174 919 138 860 q 276 1010 211 978 q 421 1042 340 1042 q 565 1010 501 1042 q 665 921 629 979 q 701 786 701 863 q 664 659 701 711 q 556 583 626 607 l 556 576 q 611 553 583 569 l 910 553 l 910 1028 l 1593 1028 l 1593 921 z "},"ा":{"ha":382,"x_min":-50,"x_max":432,"o":"m 251 0 l 132 0 l 132 921 l -50 921 l -50 1028 l 432 1028 l 432 921 l 251 921 l 251 0 z "},"ि":{"ha":382,"x_min":-50,"x_max":1204,"o":"m 669 1386 q 1056 1314 907 1386 q 1204 1050 1204 1242 l 1204 975 l 1086 975 l 1086 1036 q 1028 1195 1086 1142 q 881 1265 969 1249 q 669 1281 793 1281 q 458 1265 546 1281 q 311 1195 369 1249 q 253 1036 253 1142 l 253 1028 l 432 1028 l 432 921 l 251 921 l 251 0 l 132 0 l 132 921 l -50 921 l -50 1028 l 135 1028 l 135 1050 q 283 1314 135 1242 q 669 1386 432 1386 z "},"ी":{"ha":382,"x_min":-257,"x_max":432,"o":"m 432 1028 l 432 921 l 251 921 l 251 0 l 132 0 l 132 921 l -50 921 l -50 1028 l 138 1028 l 138 1068 q 108 1230 138 1179 q -3 1281 78 1281 q -113 1229 -83 1281 q -143 1068 -143 1178 l -143 975 l -257 975 l -257 1081 q -199 1306 -257 1225 q -3 1386 -142 1386 q 194 1306 138 1386 q 251 1081 251 1225 l 251 1028 l 432 1028 z "},"ु":{"ha":0,"x_min":-575,"x_max":22,"o":"m -244 -24 q -128 -56 -167 -26 q -90 -151 -90 -86 q -131 -249 -90 -217 q -250 -282 -172 -282 q -403 -236 -346 -282 q -461 -92 -460 -190 l -575 -92 q -490 -304 -574 -224 q -249 -385 -407 -385 q -49 -322 -119 -385 q 22 -149 22 -260 q -44 17 22 -43 q -244 75 -111 78 l -244 -24 z "},"ू":{"ha":0,"x_min":-432,"x_max":176,"o":"m -160 -282 q -197 -285 -185 -285 q -289 -253 -256 -285 q -322 -161 -322 -221 q -279 -63 -322 -99 q -167 -28 -236 -28 q 65 -365 69 -28 l 175 -365 q 93 -47 176 -165 q -167 72 10 72 q -297 47 -236 72 q -394 -31 -357 21 q -432 -161 -432 -83 q -369 -326 -432 -268 q -201 -385 -306 -385 q -160 -382 -187 -385 l -160 -282 z "},"ृ":{"ha":0,"x_min":-418,"x_max":-72,"o":"m -157 0 q -268 -35 -231 0 q -306 -137 -306 -71 q -271 -237 -306 -200 q -162 -275 -236 -275 q -72 -257 -111 -275 l -72 -357 q -118 -369 -90 -364 q -171 -375 -146 -375 q -353 -309 -287 -375 q -418 -140 -418 -243 q -351 32 -418 -31 q -161 94 -283 94 l -135 94 l -135 0 l -157 0 z "},"ॄ":{"ha":0,"x_min":-442,"x_max":-131,"o":"m -183 -610 q -368 -562 -297 -610 q -439 -418 -439 -514 q -412 -324 -439 -362 q -337 -262 -385 -285 q -413 -199 -385 -240 q -442 -104 -442 -158 q -367 42 -442 -6 q -185 89 -292 89 l -142 89 l -142 0 l -176 0 q -288 -22 -247 0 q -329 -104 -329 -44 q -286 -186 -329 -164 q -167 -208 -243 -208 l -131 -208 l -131 -306 l -179 -306 q -288 -329 -249 -306 q -328 -411 -328 -353 q -178 -512 -328 -512 l -131 -512 l -131 -610 l -183 -610 z "},"ॢ":{"ha":0,"x_min":225,"x_max":949,"o":"m 732 31 q 865 -28 819 31 q 911 -183 911 -87 q 906 -244 911 -206 l 896 -244 q 797 -324 797 -244 q 896 -397 797 -397 q 949 -392 929 -397 l 949 -476 q 888 -483 929 -483 q 751 -444 804 -483 q 697 -329 697 -406 q 730 -236 697 -274 q 815 -189 763 -199 l 817 -167 q 724 -62 817 -62 q 643 -106 665 -62 q 624 -231 621 -150 l 522 -231 q 503 -108 525 -151 q 424 -64 482 -64 q 352 -97 376 -64 q 328 -192 328 -131 q 367 -299 328 -264 q 483 -329 407 -333 l 483 -421 q 457 -422 475 -422 q 289 -358 353 -422 q 225 -193 225 -294 q 275 -30 225 -90 q 417 31 325 31 q 517 1 476 31 q 574 -81 557 -29 q 628 0 586 -31 q 732 31 669 31 z "},"ॣ":{"ha":0,"x_min":225,"x_max":933,"o":"m 894 -243 q 822 -251 844 -243 q 799 -285 799 -258 q 819 -319 799 -312 q 892 -328 839 -325 l 910 -328 l 910 -392 l 896 -392 q 822 -400 846 -392 q 799 -436 799 -408 q 872 -479 799 -479 q 933 -469 901 -479 l 933 -539 q 864 -549 901 -549 q 753 -522 793 -549 q 714 -443 714 -496 q 769 -357 714 -382 q 715 -276 715 -335 q 746 -212 715 -235 q 819 -186 776 -189 q 803 -97 824 -135 q 724 -60 783 -60 q 643 -105 665 -60 q 624 -231 621 -150 l 522 -231 q 503 -108 525 -151 q 424 -64 482 -64 q 352 -97 376 -64 q 328 -192 328 -131 q 367 -299 328 -264 q 483 -329 407 -333 l 483 -421 q 457 -422 475 -422 q 289 -358 353 -422 q 225 -193 225 -294 q 275 -30 225 -90 q 417 31 325 31 q 517 1 476 31 q 574 -81 557 -29 q 628 0 586 -31 q 732 31 669 31 q 865 -28 819 31 q 910 -183 910 -87 q 904 -243 910 -215 l 894 -243 z "},"े":{"ha":0,"x_min":-667,"x_max":-135,"o":"m -256 1017 q -378 1183 -337 1138 q -467 1242 -419 1228 q -617 1256 -515 1256 l -667 1256 l -667 1358 l -624 1358 q -435 1340 -501 1358 q -302 1250 -369 1321 q -135 1017 -235 1179 l -256 1017 z "},"ै":{"ha":0,"x_min":-647,"x_max":-135,"o":"m -603 1392 q -419 1369 -485 1392 q -290 1267 -354 1346 q -135 1013 -226 1189 l -253 1013 q -347 1090 -303 1067 q -441 1118 -392 1113 q -589 1124 -490 1124 l -639 1124 l -639 1219 l -596 1219 q -462 1215 -508 1219 q -371 1188 -415 1210 q -275 1118 -326 1167 q -367 1232 -325 1194 q -461 1283 -410 1269 q -596 1296 -512 1296 l -647 1296 l -647 1392 l -603 1392 z "},"ो":{"ha":382,"x_min":-287,"x_max":432,"o":"m 432 1028 l 432 921 l 251 921 l 251 0 l 132 0 l 132 921 l -50 921 l -50 1028 l 117 1028 q -3 1185 38 1143 q -90 1242 -43 1228 q -237 1256 -137 1256 l -287 1256 l -287 1358 l -244 1358 q -58 1340 -124 1358 q 74 1253 7 1322 q 238 1028 140 1185 l 432 1028 z "},"ौ":{"ha":367,"x_min":-262,"x_max":432,"o":"m 432 1028 l 432 921 l 251 921 l 251 0 l 132 0 l 132 921 l -50 921 l -50 1028 l 117 1028 q 28 1094 71 1074 q -62 1119 -15 1114 q -204 1124 -110 1124 l -254 1124 l -254 1219 l -211 1219 q -77 1215 -124 1219 q 14 1188 -31 1210 q 110 1118 58 1167 q 17 1232 60 1194 q -76 1283 -25 1269 q -211 1296 -128 1296 l -262 1296 l -262 1392 l -218 1392 q -37 1369 -101 1392 q 90 1272 28 1347 q 242 1028 153 1196 l 432 1028 z "},"ॅ":{"ha":0,"x_min":-460,"x_max":74,"o":"m -193 1135 q -394 1203 -329 1135 q -460 1382 -460 1272 l -354 1382 q -314 1274 -354 1318 q -193 1231 -274 1231 q -72 1274 -112 1231 q -32 1382 -32 1318 l 74 1382 q 8 1203 74 1272 q -193 1135 -57 1135 z "},"ॉ":{"ha":374,"x_min":-79,"x_max":454,"o":"m 251 0 l 132 0 l 132 921 l -50 921 l -50 1028 l 432 1028 l 432 921 l 251 921 l 251 0 m 188 1135 q -14 1203 51 1135 q -79 1382 -79 1272 l 26 1382 q 67 1274 26 1318 q 188 1231 107 1231 q 308 1274 268 1231 q 349 1382 349 1318 l 454 1382 q 389 1203 454 1272 q 188 1135 324 1135 z "},"क":{"ha":1404,"x_min":-50,"x_max":1454,"o":"m 778 921 l 778 672 q 866 755 810 725 q 1000 785 922 785 q 1163 743 1093 785 q 1269 628 1232 701 q 1306 461 1306 554 q 1264 295 1306 365 q 1147 188 1222 225 q 976 150 1072 150 q 919 153 939 150 l 918 256 q 958 254 932 254 q 1124 308 1063 254 q 1186 461 1186 361 q 1132 620 1186 563 q 975 678 1078 678 q 828 615 878 678 q 778 438 778 551 l 778 0 l 661 0 l 661 254 q 567 172 626 201 q 428 142 508 142 q 266 183 336 142 q 157 296 196 224 q 118 461 118 368 q 156 628 118 554 q 265 742 194 701 q 428 783 335 783 q 568 753 510 783 q 661 669 626 722 l 661 921 l -50 921 l -50 1028 l 1454 1028 l 1454 921 l 778 921 m 453 247 q 607 305 553 247 q 661 461 661 363 q 605 619 661 563 q 450 676 549 676 q 293 620 349 676 q 238 461 238 564 q 294 303 238 360 q 453 247 350 247 z "},"ख":{"ha":1272,"x_min":-50,"x_max":1322,"o":"m 1322 1028 l 1322 921 l 1140 921 l 1140 0 l 1024 0 l 1024 282 q 940 217 992 240 q 819 193 889 193 q 776 196 804 193 q 660 49 746 100 q 454 -3 574 -3 q 206 86 297 -3 q 114 331 114 175 l 114 565 l 161 565 q 301 581 260 567 q 356 645 342 596 q 371 811 371 694 l 371 921 l -50 921 l -50 1028 l 1322 1028 m 454 104 q 594 138 539 104 q 668 235 649 172 q 576 335 608 272 q 543 478 543 397 q 578 624 543 560 q 676 725 614 689 q 819 761 739 761 q 1024 678 961 761 l 1024 921 l 489 921 l 489 810 q 467 607 489 678 q 390 506 444 536 q 233 474 336 476 l 233 328 q 288 160 233 215 q 454 104 342 104 m 843 296 q 974 345 925 296 q 1024 478 1024 394 q 975 610 1024 561 q 843 658 926 658 q 709 610 760 658 q 658 478 658 561 q 709 345 658 394 q 843 296 760 296 z "},"ग":{"ha":992,"x_min":-50,"x_max":1042,"o":"m 1042 1028 l 1042 921 l 860 921 l 860 0 l 740 0 l 740 921 l 460 921 l 460 585 q 412 377 460 446 q 249 308 364 308 q 83 379 136 308 q 35 581 31 450 l 153 581 q 171 457 153 499 q 250 415 189 415 q 313 437 293 415 q 339 492 333 458 q 344 583 344 526 l 344 921 l -50 921 l -50 1028 l 1042 1028 z "},"घ":{"ha":965,"x_min":-50,"x_max":1015,"o":"m 1015 921 l 833 921 l 833 0 l 714 0 l 714 281 q 594 183 671 217 q 418 149 517 149 q 263 177 335 149 q 148 263 192 206 q 104 401 104 321 q 143 530 104 476 q 246 610 182 583 l 246 618 q 152 710 176 650 q 128 881 128 771 l 128 921 l -50 921 l -50 1028 l 1015 1028 l 1015 921 m 714 921 l 249 921 l 249 881 q 263 753 249 799 q 316 685 278 707 q 429 664 354 664 l 479 664 l 479 560 l 429 560 q 281 521 338 560 q 224 406 224 482 q 285 291 224 328 q 439 254 347 254 q 577 283 514 254 q 677 367 640 313 q 714 494 714 422 l 714 921 z "},"ङ":{"ha":917,"x_min":-50,"x_max":967,"o":"m 967 1028 l 967 921 l 653 921 l 653 669 l 428 669 q 294 647 343 669 q 246 558 246 624 q 291 467 246 490 q 424 444 336 444 q 651 398 565 444 q 738 218 738 351 q 702 97 738 150 q 600 14 667 44 q 444 -17 533 -17 q 200 60 292 -17 q 106 274 108 136 l 224 274 q 283 135 229 185 q 442 86 336 86 q 572 120 525 86 q 619 224 619 154 q 569 322 619 299 q 429 344 519 344 q 206 392 288 344 q 125 563 125 439 q 206 725 125 676 q 413 774 288 774 l 533 774 l 533 921 l -50 921 l -50 1028 l 967 1028 m 797 604 q 852 581 829 604 q 875 525 875 558 q 852 469 875 493 q 797 446 829 446 q 741 469 764 446 q 718 525 718 493 q 741 581 718 558 q 797 604 764 604 z "},"च":{"ha":1010,"x_min":-50,"x_max":1060,"o":"m 1060 1028 l 1060 921 l 878 921 l 878 0 l 758 0 l 758 261 q 664 172 725 206 q 510 138 603 138 q 352 173 424 138 q 238 274 281 208 q 196 422 196 339 q 223 545 196 492 q 300 632 250 599 l 68 632 l 68 732 l 574 732 l 574 632 l 533 632 q 373 579 433 632 q 313 433 313 526 q 373 294 313 344 q 531 243 433 243 q 648 276 596 243 q 729 364 700 308 q 758 486 758 419 l 758 921 l -50 921 l -50 1028 l 1060 1028 z "},"छ":{"ha":1139,"x_min":-50,"x_max":1189,"o":"m 890 921 l 890 778 q 1022 674 975 753 q 1068 478 1068 596 q 1008 248 1068 346 q 836 97 949 150 q 569 44 724 44 q 242 118 374 44 q 111 343 111 192 q 153 485 111 426 q 269 571 196 543 l 269 579 q 164 672 190 606 q 138 868 138 739 l 138 921 l -50 921 l -50 1028 l 1189 1028 l 1189 921 l 890 921 m 774 921 l 257 921 l 257 861 q 271 722 257 771 q 326 649 285 672 q 447 625 367 625 l 465 625 l 465 521 l 446 521 q 288 477 347 521 q 229 349 229 433 q 326 197 229 243 q 568 150 424 150 q 856 233 750 150 q 961 486 961 317 q 922 638 961 589 q 815 688 882 688 q 735 666 767 688 q 685 585 703 644 q 668 417 667 526 l 561 417 q 609 682 556 593 q 774 785 663 771 l 774 921 z "},"ज":{"ha":1149,"x_min":-50,"x_max":1199,"o":"m 1199 1028 l 1199 921 l 1017 921 l 1017 0 l 897 0 l 897 611 l 646 611 l 646 508 q 588 240 646 335 q 372 144 531 144 q 153 241 211 144 q 94 508 94 338 l 94 714 l 214 714 l 214 540 q 222 380 214 438 q 265 287 231 322 q 372 251 299 251 q 478 287 444 251 q 519 379 511 322 q 528 540 528 436 l 528 714 l 897 714 l 897 921 l -50 921 l -50 1028 l 1199 1028 z "},"झ":{"ha":1154,"x_min":-50,"x_max":1204,"o":"m 1204 921 l 1024 921 l 1024 0 l 904 0 l 904 385 l 661 385 q 706 338 688 371 q 725 265 725 306 q 697 153 725 204 q 610 71 668 101 q 468 40 551 40 q 342 67 399 40 q 254 138 285 94 l 254 -50 l 139 -50 l 139 313 l 254 313 q 311 188 258 235 q 450 142 364 142 q 569 175 529 142 q 610 272 610 208 q 588 347 610 322 q 531 377 565 371 q 439 383 497 383 q 283 397 346 383 q 180 456 219 411 q 140 588 140 501 q 218 745 140 703 q 428 788 296 788 l 549 788 l 549 921 l -50 921 l -50 1028 l 1204 1028 l 1204 921 m 904 921 l 668 921 l 668 683 l 443 683 q 344 678 381 683 q 283 651 307 672 q 260 585 260 629 q 299 501 260 521 q 415 481 338 481 l 904 481 l 904 921 z "},"ञ":{"ha":1132,"x_min":-50,"x_max":1181,"o":"m 1181 1028 l 1181 921 l 1000 921 l 1000 0 l 881 0 l 881 424 l 718 424 q 624 219 706 297 q 403 140 543 140 q 187 209 267 140 q 89 376 107 278 l 208 376 q 272 285 222 322 q 403 247 321 247 q 553 307 503 247 q 604 472 604 367 q 553 638 604 578 q 403 699 503 699 q 272 661 321 699 q 208 569 222 624 l 89 569 q 186 736 107 668 q 403 804 265 804 q 622 728 542 804 q 718 529 701 653 l 881 529 l 881 921 l -50 921 l -50 1028 l 1181 1028 z "},"ट":{"ha":917,"x_min":-50,"x_max":967,"o":"m 526 674 q 302 608 385 672 q 219 415 219 544 q 290 233 219 301 q 476 165 361 165 q 661 233 594 165 q 728 419 728 301 l 846 419 q 800 228 846 310 q 671 102 754 146 q 476 58 588 58 q 283 103 368 58 q 149 228 197 147 q 101 417 101 310 q 153 611 101 531 q 294 734 204 692 q 503 779 385 776 l 503 921 l -50 921 l -50 1028 l 967 1028 l 967 921 l 621 921 l 621 674 l 526 674 z "},"ठ":{"ha":929,"x_min":-50,"x_max":979,"o":"m 850 422 q 802 236 850 317 q 669 111 754 156 q 476 67 583 67 q 285 111 369 67 q 152 236 200 156 q 104 422 104 317 q 144 592 104 517 q 254 715 183 668 q 417 774 325 763 l 417 921 l -50 921 l -50 1028 l 979 1028 l 979 921 l 536 921 l 536 774 q 699 716 628 763 q 810 594 769 669 q 850 422 850 518 m 222 422 q 292 240 222 310 q 476 171 363 171 q 660 240 590 171 q 731 422 731 310 q 660 604 731 535 q 476 674 590 674 q 292 604 363 674 q 222 422 222 535 z "},"ड":{"ha":808,"x_min":-50,"x_max":858,"o":"m 428 669 q 294 647 343 669 q 246 558 246 624 q 291 467 246 490 q 424 444 336 444 q 651 398 565 444 q 738 218 738 351 q 702 97 738 150 q 600 14 667 44 q 444 -17 533 -17 q 200 60 292 -17 q 106 274 108 136 l 224 274 q 283 135 229 185 q 442 86 336 86 q 572 120 525 86 q 619 224 619 154 q 569 322 619 299 q 429 344 519 344 q 206 392 288 344 q 125 563 125 439 q 206 725 125 676 q 413 774 288 774 l 533 774 l 533 921 l -50 921 l -50 1028 l 858 1028 l 858 921 l 653 921 l 653 669 l 428 669 z "},"ढ":{"ha":882,"x_min":-50,"x_max":932,"o":"m 558 688 q 310 613 401 688 q 218 392 218 539 q 301 189 218 261 q 518 117 383 117 q 665 160 614 117 q 715 279 715 204 q 685 375 715 338 q 590 413 656 413 q 497 373 526 413 q 468 268 468 333 l 358 268 q 415 445 357 378 q 588 513 474 513 q 763 450 696 513 q 831 281 831 388 q 743 83 831 156 q 515 10 656 10 q 303 56 397 10 q 154 188 208 101 q 100 393 100 275 q 158 614 100 525 q 315 747 215 703 q 540 792 414 790 l 540 921 l -50 921 l -50 1028 l 932 1028 l 932 921 l 660 921 l 660 688 l 558 688 z "},"ण":{"ha":1193,"x_min":-50,"x_max":1243,"o":"m 1243 1028 l 1243 921 l 1061 921 l 1061 0 l 942 0 l 942 921 l 696 921 l 696 567 q 417 233 696 233 q 202 320 268 233 q 136 567 136 407 l 136 921 l -50 921 l -50 1028 l 1243 1028 m 578 921 l 254 921 l 254 564 q 289 397 254 453 q 417 340 324 340 q 544 397 510 340 q 578 564 578 453 l 578 921 z "},"त":{"ha":935,"x_min":-50,"x_max":985,"o":"m 456 -3 q 180 90 272 -3 q 88 344 88 182 q 194 606 88 522 q 485 690 301 690 l 685 690 l 685 921 l -50 921 l -50 1028 l 985 1028 l 985 921 l 804 921 l 804 0 l 685 0 l 685 585 l 485 585 q 283 527 357 585 q 208 344 208 469 q 271 160 208 222 q 474 99 333 99 l 474 -3 l 456 -3 z "},"थ":{"ha":1054,"x_min":128,"x_max":1104,"o":"m 922 0 l 803 0 l 803 275 q 697 174 771 217 q 511 132 622 132 q 304 183 390 132 q 173 327 218 235 q 128 539 128 419 q 133 625 128 586 l 265 622 q 478 656 410 622 q 547 790 547 690 q 510 897 547 858 q 408 935 474 935 q 299 888 336 935 q 265 763 263 842 l 151 763 q 218 964 147 888 q 410 1040 289 1040 q 594 971 522 1040 q 665 786 665 901 q 555 580 665 636 q 254 528 444 524 q 317 317 247 397 q 526 238 386 238 q 663 271 601 238 q 763 365 725 304 q 803 503 800 425 l 803 1028 l 1104 1028 l 1104 921 l 922 921 l 922 0 z "},"द":{"ha":828,"x_min":-50,"x_max":878,"o":"m 606 203 q 530 150 581 169 q 418 131 479 131 q 246 169 321 131 q 128 279 171 207 q 86 449 86 351 q 197 699 86 618 q 497 779 307 779 l 553 779 l 553 921 l -50 921 l -50 1028 l 878 1028 l 878 921 l 672 921 l 672 671 l 514 671 q 286 622 365 671 q 207 446 207 574 q 267 289 207 342 q 435 236 328 236 q 566 277 515 236 q 617 408 617 318 l 725 408 l 725 0 l 606 0 l 606 203 z "},"ध":{"ha":999,"x_min":135,"x_max":1049,"o":"m 1049 921 l 868 921 l 868 0 l 749 0 l 749 271 q 627 176 706 210 q 451 143 549 143 q 298 172 369 143 q 183 256 226 200 q 139 392 139 313 q 178 515 139 465 q 285 590 217 565 l 285 599 q 177 680 219 624 q 135 814 135 736 q 201 978 135 914 q 371 1042 267 1042 q 547 971 485 1042 q 601 786 608 900 l 496 786 q 468 894 499 854 q 374 935 438 935 q 283 901 317 935 q 249 810 249 868 q 308 684 249 725 q 465 643 368 643 l 536 643 l 536 540 l 472 540 q 318 506 378 540 q 258 397 258 472 q 322 285 258 322 q 474 249 385 249 q 611 278 549 249 q 711 364 674 308 q 749 493 749 419 l 749 1028 l 1049 1028 l 1049 921 z "},"न":{"ha":1086,"x_min":-50,"x_max":1136,"o":"m 549 574 q 613 501 590 549 q 636 393 636 453 q 603 262 636 319 q 509 172 569 204 q 368 139 449 139 q 222 172 288 139 q 119 265 157 204 q 82 408 82 326 q 164 606 82 535 q 399 676 246 676 l 836 676 l 836 921 l -50 921 l -50 1028 l 1136 1028 l 1136 921 l 956 921 l 956 0 l 836 0 l 836 574 l 549 574 m 196 408 q 245 286 196 328 q 368 244 294 244 q 481 288 435 244 q 526 408 526 331 q 483 526 526 482 q 363 571 439 571 q 244 528 292 571 q 196 408 196 485 z "},"प":{"ha":908,"x_min":-50,"x_max":957,"o":"m 957 1028 l 957 921 l 776 921 l 776 0 l 657 0 l 657 394 q 422 278 588 278 q 202 374 279 278 q 125 625 125 471 l 125 921 l -50 921 l -50 1028 l 957 1028 m 451 385 q 600 449 543 385 q 657 611 657 513 l 657 921 l 244 921 l 244 628 q 451 385 244 385 z "},"फ":{"ha":1375,"x_min":-50,"x_max":1425,"o":"m 756 921 l 756 635 q 849 719 790 689 q 992 750 908 750 q 1149 711 1081 750 q 1253 602 1217 672 q 1290 442 1290 532 q 1250 283 1290 351 q 1136 177 1210 214 q 965 140 1063 140 q 926 142 940 140 l 925 244 q 957 243 936 243 q 1114 295 1056 243 q 1172 440 1172 347 q 1119 590 1172 538 q 969 643 1067 643 q 813 577 869 643 q 756 407 756 511 l 756 0 l 636 0 l 636 433 q 551 353 606 383 q 419 324 496 324 q 206 419 279 324 q 133 669 133 514 l 133 921 l -50 921 l -50 1028 l 1425 1028 l 1425 921 l 756 921 m 449 431 q 586 499 536 431 q 636 668 636 567 l 636 921 l 253 921 l 253 669 q 297 491 253 551 q 449 431 342 431 z "},"ब":{"ha":933,"x_min":-50,"x_max":983,"o":"m 983 1028 l 983 921 l 801 921 l 801 0 l 685 0 l 685 246 q 580 153 646 186 q 426 119 514 119 q 248 163 328 119 q 123 283 168 206 q 78 460 78 361 q 123 638 78 560 q 248 758 168 715 q 426 801 328 801 q 579 767 513 801 q 685 672 646 732 l 685 921 l -50 921 l -50 1028 l 983 1028 m 446 700 q 281 650 346 700 l 664 351 q 688 460 688 401 q 657 584 688 529 q 571 669 626 639 q 446 700 515 700 m 192 460 q 262 284 192 349 q 446 219 332 219 q 614 282 544 219 l 224 588 q 192 460 192 532 z "},"भ":{"ha":1114,"x_min":126,"x_max":1164,"o":"m 1164 921 l 983 921 l 983 0 l 864 0 l 864 525 l 639 525 l 639 443 q 388 138 639 138 q 256 169 315 138 q 161 256 196 200 q 126 385 126 313 q 208 568 126 508 q 450 628 289 628 l 524 628 l 524 743 q 497 881 524 832 q 401 929 471 929 q 306 880 332 929 q 281 738 281 831 l 164 738 q 401 1036 161 1036 q 581 959 524 1036 q 639 742 639 882 l 639 628 l 864 628 l 864 1028 l 1164 1028 l 1164 921 m 524 525 l 443 525 q 294 493 346 525 q 242 381 242 461 q 282 281 242 319 q 385 243 322 243 q 494 292 464 243 q 524 442 524 342 l 524 525 z "},"म":{"ha":1088,"x_min":-50,"x_max":1138,"o":"m 1138 921 l 957 921 l 957 0 l 838 0 l 838 528 l 583 528 l 583 446 q 332 140 583 140 q 200 172 260 140 q 106 260 140 203 q 71 388 71 317 q 153 572 71 513 q 396 631 235 631 l 468 631 l 468 921 l -50 921 l -50 1028 l 1138 1028 l 1138 921 m 838 921 l 583 921 l 583 631 l 838 631 l 838 921 m 468 528 l 388 528 q 238 497 290 528 q 186 385 186 465 q 227 285 186 324 q 331 246 268 246 q 439 295 410 246 q 468 444 468 344 l 468 528 z "},"य":{"ha":1008,"x_min":-50,"x_max":1058,"o":"m 1058 1028 l 1058 921 l 878 921 l 878 0 l 758 0 l 758 300 q 649 189 721 231 q 476 147 576 147 q 193 263 292 147 q 94 581 94 379 l 96 621 q 279 646 224 621 q 348 720 335 671 q 361 878 361 769 l 361 921 l -50 921 l -50 1028 l 1058 1028 m 493 254 q 687 338 615 254 q 758 557 758 422 l 758 921 l 479 921 l 479 875 q 461 689 479 757 q 388 582 443 621 q 221 536 332 543 q 291 331 219 408 q 493 254 363 254 z "},"र":{"ha":728,"x_min":-50,"x_max":778,"o":"m 621 851 q 590 609 621 689 q 478 499 558 529 q 235 468 399 469 l 235 296 q 272 156 235 207 q 388 104 308 104 q 502 154 465 104 q 539 292 539 204 l 658 292 q 588 76 658 156 q 388 -3 517 -3 q 185 78 256 -3 q 114 294 114 158 l 114 569 l 168 569 q 398 584 336 569 q 481 653 460 599 q 501 856 501 708 l 501 921 l -50 921 l -50 1028 l 778 1028 l 778 921 l 621 921 l 621 851 z "},"ल":{"ha":1260,"x_min":-50,"x_max":1310,"o":"m 582 314 q 404 603 594 603 q 233 378 233 603 q 292 199 233 264 q 464 133 350 133 q 493 135 483 133 l 493 26 q 449 25 478 25 q 270 68 346 25 q 154 191 194 111 q 114 376 114 271 q 185 623 114 535 q 397 711 256 711 q 551 667 488 711 q 639 543 614 624 q 706 651 658 610 q 824 701 754 692 l 824 921 l -50 921 l -50 1028 l 1310 1028 l 1310 921 l 942 921 l 942 706 q 1107 600 1051 686 q 1163 376 1163 514 q 1122 191 1163 271 q 1006 68 1082 111 q 828 25 931 25 q 783 26 799 25 l 783 135 q 813 133 793 133 q 985 199 926 133 q 1043 378 1043 264 q 874 603 1043 603 q 696 314 683 603 l 582 314 z "},"व":{"ha":900,"x_min":-50,"x_max":950,"o":"m 950 1028 l 950 921 l 768 921 l 768 0 l 651 0 l 651 253 q 549 163 614 196 q 397 131 485 131 q 231 173 304 131 q 117 290 158 215 q 75 460 75 365 q 117 630 75 554 q 231 748 158 706 q 397 790 304 790 q 549 758 485 790 q 651 668 614 725 l 651 921 l -50 921 l -50 1028 l 950 1028 m 422 236 q 589 297 526 236 q 651 460 651 357 l 651 461 q 589 624 651 564 q 422 685 526 685 q 256 624 318 685 q 193 460 193 564 q 256 297 193 357 q 422 236 318 236 z "},"श":{"ha":1128,"x_min":147,"x_max":1178,"o":"m 271 279 q 313 149 271 194 q 433 104 356 104 q 558 156 521 104 q 596 308 594 208 l 715 308 q 646 81 713 165 q 435 -3 579 -3 q 227 72 304 -3 q 150 281 150 146 l 150 561 q 306 560 193 560 q 469 574 404 560 q 574 632 535 588 q 614 761 614 676 q 569 889 614 843 q 446 935 525 935 q 310 874 353 935 q 269 715 267 813 l 151 715 q 179 878 147 804 q 279 997 211 953 q 444 1040 347 1040 q 596 1005 531 1040 q 697 906 661 969 q 733 763 733 843 q 634 528 733 597 q 357 457 535 460 q 271 460 329 457 l 271 279 m 996 0 l 876 0 l 876 1028 l 1178 1028 l 1178 921 l 996 921 l 996 0 z "},"ष":{"ha":910,"x_min":-50,"x_max":960,"o":"m 960 1028 l 960 921 l 778 921 l 778 0 l 658 0 l 658 388 q 422 272 589 272 q 202 367 279 272 q 125 614 125 461 l 125 921 l -50 921 l -50 1028 l 960 1028 m 244 921 l 244 914 l 657 586 q 658 604 658 592 l 658 921 l 244 921 m 453 378 q 562 409 514 378 q 635 494 610 440 l 244 806 l 244 622 q 295 442 244 507 q 453 378 346 378 z "},"स":{"ha":1110,"x_min":-50,"x_max":1158,"o":"m 1158 921 l 978 921 l 978 0 l 858 0 l 858 489 l 236 489 l 236 293 q 385 104 236 104 q 500 158 467 104 q 533 315 533 211 l 651 315 q 588 81 654 165 q 386 -3 521 -3 q 185 78 254 -3 q 115 294 115 158 l 115 583 l 182 582 q 271 586 232 582 l 272 589 l 297 589 q 407 632 371 600 q 456 723 443 664 q 468 888 468 782 l 468 921 l -50 921 l -50 1028 l 1158 1028 l 1158 921 m 858 921 l 588 921 l 588 886 q 572 702 588 774 q 518 589 556 631 l 858 589 l 858 921 z "},"ह":{"ha":847,"x_min":-50,"x_max":897,"o":"m 431 671 q 312 644 357 671 q 267 561 267 617 q 291 496 267 522 q 354 454 315 469 q 444 464 393 464 q 599 433 531 464 q 707 351 667 403 q 751 236 747 299 l 633 236 q 573 326 619 293 q 444 358 526 358 q 299 306 353 358 q 244 169 244 254 q 299 31 244 85 q 444 -22 354 -22 q 573 10 526 -22 q 633 100 619 43 l 751 100 q 707 -15 747 38 q 599 -97 667 -67 q 444 -128 531 -128 q 277 -90 350 -128 q 165 15 204 -53 q 125 169 125 82 q 156 306 125 246 q 242 406 186 367 q 171 475 196 433 q 146 568 146 517 q 219 722 146 668 q 419 775 292 775 l 553 775 l 553 921 l -50 921 l -50 1028 l 897 1028 l 897 921 l 672 921 l 672 671 l 431 671 z "},"ळ":{"ha":1304,"x_min":-50,"x_max":1354,"o":"m 969 921 l 969 717 q 1121 668 1054 710 q 1225 557 1188 626 q 1263 400 1263 488 q 1221 235 1263 307 q 1105 122 1179 163 q 939 82 1031 82 q 775 126 849 82 q 665 249 701 169 q 556 125 629 168 q 394 82 483 82 q 227 122 301 82 q 111 235 153 163 q 69 400 69 307 q 112 565 69 493 q 228 678 154 638 q 394 718 303 718 q 557 675 485 718 q 665 550 629 632 q 740 651 692 611 q 851 707 789 690 l 851 921 l -50 921 l -50 1028 l 1354 1028 l 1354 921 l 969 921 m 400 190 q 550 249 494 190 q 606 400 606 307 q 550 551 606 493 q 400 610 494 610 q 247 552 306 610 q 188 400 188 494 q 247 249 188 307 q 400 190 306 190 m 1144 400 q 1085 552 1144 494 q 932 610 1026 610 q 783 551 840 610 q 726 400 726 493 q 783 249 726 307 q 932 190 840 190 q 1087 248 1029 190 q 1144 400 1144 306 z "},"क़":{"ha":1404,"x_min":-50,"x_max":1454,"o":"m 778 921 l 778 672 q 866 755 810 725 q 1000 785 922 785 q 1163 743 1093 785 q 1269 628 1232 701 q 1306 461 1306 554 q 1264 295 1306 365 q 1147 188 1222 225 q 976 150 1072 150 q 919 153 939 150 l 918 256 q 958 254 932 254 q 1124 308 1063 254 q 1186 461 1186 361 q 1132 620 1186 563 q 975 678 1078 678 q 828 615 878 678 q 778 438 778 551 l 778 0 l 661 0 l 661 254 q 567 172 626 201 q 428 142 508 142 q 266 183 336 142 q 157 296 196 224 q 118 461 118 368 q 156 628 118 554 q 265 742 194 701 q 428 783 335 783 q 568 753 510 783 q 661 669 626 722 l 661 921 l -50 921 l -50 1028 l 1454 1028 l 1454 921 l 778 921 m 453 247 q 607 305 553 247 q 661 461 661 363 q 605 619 661 563 q 450 676 549 676 q 293 620 349 676 q 238 461 238 564 q 294 303 238 360 q 453 247 350 247 m 381 -31 q 404 27 381 3 q 461 51 428 51 q 519 27 494 51 q 543 -31 543 3 q 519 -88 543 -64 q 461 -112 494 -112 q 404 -88 428 -112 q 381 -31 381 -64 z "},"ख़":{"ha":1272,"x_min":-50,"x_max":1322,"o":"m 1322 1028 l 1322 921 l 1140 921 l 1140 0 l 1024 0 l 1024 282 q 940 217 992 240 q 819 193 889 193 q 776 196 804 193 q 660 49 746 100 q 454 -3 574 -3 q 206 86 297 -3 q 114 331 114 175 l 114 565 l 161 565 q 301 581 260 567 q 356 645 342 596 q 371 811 371 694 l 371 921 l -50 921 l -50 1028 l 1322 1028 m 454 104 q 594 138 539 104 q 668 235 649 172 q 576 335 608 272 q 543 478 543 397 q 578 624 543 560 q 676 725 614 689 q 819 761 739 761 q 1024 678 961 761 l 1024 921 l 489 921 l 489 810 q 467 607 489 678 q 390 506 444 536 q 233 474 336 476 l 233 328 q 288 160 233 215 q 454 104 342 104 m 843 296 q 974 345 925 296 q 1024 478 1024 394 q 975 610 1024 561 q 843 658 926 658 q 709 610 760 658 q 658 478 658 561 q 709 345 658 394 q 843 296 760 296 m 369 -178 q 393 -120 369 -144 q 450 -96 417 -96 q 508 -120 483 -96 q 532 -178 532 -144 q 508 -235 532 -211 q 450 -260 483 -260 q 393 -235 417 -260 q 369 -178 369 -211 z "},"ग़":{"ha":992,"x_min":-50,"x_max":1042,"o":"m 1042 1028 l 1042 921 l 860 921 l 860 0 l 740 0 l 740 921 l 460 921 l 460 585 q 412 377 460 446 q 249 308 364 308 q 83 379 136 308 q 35 581 31 450 l 153 581 q 171 457 153 499 q 250 415 189 415 q 313 437 293 415 q 339 492 333 458 q 344 583 344 526 l 344 921 l -50 921 l -50 1028 l 1042 1028 m 176 63 q 200 120 176 96 q 257 144 224 144 q 315 120 290 144 q 339 63 339 96 q 315 5 339 29 q 257 -19 290 -19 q 200 5 224 -19 q 176 63 176 29 z "},"ज़":{"ha":1149,"x_min":-50,"x_max":1199,"o":"m 1199 1028 l 1199 921 l 1017 921 l 1017 0 l 897 0 l 897 611 l 646 611 l 646 508 q 588 240 646 335 q 372 144 531 144 q 153 241 211 144 q 94 508 94 338 l 94 714 l 214 714 l 214 540 q 222 380 214 438 q 265 287 231 322 q 372 251 299 251 q 478 287 444 251 q 519 379 511 322 q 528 540 528 436 l 528 714 l 897 714 l 897 921 l -50 921 l -50 1028 l 1199 1028 m 286 -51 q 310 6 286 -18 q 367 31 333 31 q 424 6 400 31 q 449 -51 449 -18 q 424 -109 449 -85 q 367 -133 400 -133 q 310 -109 333 -133 q 286 -51 286 -85 z "},"ड़":{"ha":808,"x_min":-50,"x_max":858,"o":"m 428 669 q 294 647 343 669 q 246 558 246 624 q 291 467 246 490 q 424 444 336 444 q 651 398 565 444 q 738 218 738 351 q 702 97 738 150 q 600 14 667 44 q 444 -17 533 -17 q 200 60 292 -17 q 106 274 108 136 l 224 274 q 283 135 229 185 q 442 86 336 86 q 572 120 525 86 q 619 224 619 154 q 569 322 619 299 q 429 344 519 344 q 206 392 288 344 q 125 563 125 439 q 206 725 125 676 q 413 774 288 774 l 533 774 l 533 921 l -50 921 l -50 1028 l 858 1028 l 858 921 l 653 921 l 653 669 l 428 669 m 371 -174 q 394 -116 371 -140 q 451 -92 418 -92 q 509 -116 485 -92 q 533 -174 533 -140 q 509 -231 533 -207 q 451 -256 485 -256 q 394 -231 418 -256 q 371 -174 371 -207 z "},"ढ़":{"ha":882,"x_min":-50,"x_max":932,"o":"m 558 688 q 310 613 401 688 q 218 392 218 539 q 301 189 218 261 q 518 117 383 117 q 665 160 614 117 q 715 279 715 204 q 685 375 715 338 q 590 413 656 413 q 497 373 526 413 q 468 268 468 333 l 358 268 q 415 445 357 378 q 588 513 474 513 q 763 450 696 513 q 831 281 831 388 q 743 83 831 156 q 515 10 656 10 q 303 56 397 10 q 154 188 208 101 q 100 393 100 275 q 158 614 100 525 q 315 747 215 703 q 540 792 414 790 l 540 921 l -50 921 l -50 1028 l 932 1028 l 932 921 l 660 921 l 660 688 l 558 688 m 449 -157 q 472 -99 449 -124 q 529 -75 496 -75 q 587 -99 563 -75 q 611 -157 611 -124 q 587 -215 611 -190 q 529 -239 563 -239 q 472 -215 496 -239 q 449 -157 449 -190 z "},"फ़":{"ha":1375,"x_min":-50,"x_max":1425,"o":"m 756 921 l 756 635 q 849 719 790 689 q 992 750 908 750 q 1149 711 1081 750 q 1253 602 1217 672 q 1290 442 1290 532 q 1250 283 1290 351 q 1136 177 1210 214 q 965 140 1063 140 q 926 142 940 140 l 925 244 q 957 243 936 243 q 1114 295 1056 243 q 1172 440 1172 347 q 1119 590 1172 538 q 969 643 1067 643 q 813 577 869 643 q 756 407 756 511 l 756 0 l 636 0 l 636 433 q 551 353 606 383 q 419 324 496 324 q 206 419 279 324 q 133 669 133 514 l 133 921 l -50 921 l -50 1028 l 1425 1028 l 1425 921 l 756 921 m 449 431 q 586 499 536 431 q 636 668 636 567 l 636 921 l 253 921 l 253 669 q 297 491 253 551 q 449 431 342 431 m 290 81 q 314 138 290 114 q 371 163 338 163 q 428 138 404 163 q 453 81 453 114 q 428 23 453 47 q 371 -1 404 -1 q 314 23 338 -1 q 290 81 290 47 z "},"ऱ":{"ha":728,"x_min":-50,"x_max":778,"o":"m 621 851 q 590 609 621 689 q 478 499 558 529 q 235 468 399 469 l 235 296 q 272 156 235 207 q 388 104 308 104 q 502 154 465 104 q 539 292 539 204 l 658 292 q 588 76 658 156 q 388 -3 517 -3 q 185 78 256 -3 q 114 294 114 158 l 114 569 l 168 569 q 398 584 336 569 q 481 653 460 599 q 501 856 501 708 l 501 921 l -50 921 l -50 1028 l 778 1028 l 778 921 l 621 921 l 621 851 m -10 -57 q 14 1 -10 -24 q 71 25 38 25 q 128 1 104 25 q 153 -57 153 -24 q 128 -115 153 -90 q 71 -139 104 -139 q 14 -115 38 -139 q -10 -57 -10 -90 z "},"ं":{"ha":0,"x_min":-272,"x_max":-110,"o":"m -272 1249 q -249 1306 -272 1282 q -190 1329 -225 1329 q -133 1306 -157 1329 q -110 1249 -110 1282 q -133 1191 -110 1215 q -190 1167 -157 1167 q -249 1191 -225 1167 q -272 1249 -272 1215 z "},"ँ":{"ha":0,"x_min":-460,"x_max":74,"o":"m -267 1422 q -245 1474 -267 1453 q -193 1494 -224 1494 q -141 1474 -162 1494 q -119 1422 -119 1453 q -141 1370 -119 1392 q -193 1349 -162 1349 q -245 1370 -224 1349 q -267 1422 -267 1392 m -193 1135 q -394 1204 -328 1135 q -460 1382 -460 1274 l -356 1382 q -315 1274 -356 1318 q -193 1229 -274 1229 q -72 1274 -112 1229 q -31 1382 -31 1318 l 74 1382 q 8 1203 74 1272 q -193 1135 -58 1135 z "},"ः":{"ha":231,"x_min":39,"x_max":192,"o":"m 39 692 q 61 746 39 724 q 115 768 83 768 q 169 746 147 768 q 192 692 192 724 q 169 639 192 661 q 115 617 147 617 q 61 639 83 617 q 39 692 39 661 m 39 275 q 62 329 39 307 q 115 351 85 351 q 169 329 147 351 q 192 275 192 307 q 169 222 192 244 q 115 199 147 199 q 62 222 85 199 q 39 275 39 244 z "},"ऽ":{"ha":835,"x_min":74,"x_max":760,"o":"m 664 222 q 610 117 664 149 q 425 85 557 85 l 74 85 l 74 192 l 413 192 q 511 201 482 192 q 540 247 540 211 q 514 322 540 278 q 431 444 488 367 q 313 624 354 549 q 271 764 271 699 q 335 893 271 853 q 503 933 399 933 l 760 933 l 760 826 l 558 826 q 435 808 476 826 q 393 738 393 790 q 420 661 393 706 q 504 538 447 617 q 623 358 582 431 q 664 222 664 286 z "},"्":{"ha":0,"x_min":-244,"x_max":32,"o":"m -244 -83 l -128 -83 l 32 -314 l -99 -314 l -244 -83 z "},"़":{"ha":0,"x_min":-575,"x_max":-412,"o":"m -575 -132 q -551 -74 -575 -99 q -494 -50 -528 -50 q -437 -74 -461 -50 q -412 -132 -412 -99 q -437 -190 -412 -165 q -494 -214 -461 -214 q -551 -190 -528 -214 q -575 -132 -575 -165 z "},"०":{"ha":883,"x_min":92,"x_max":789,"o":"m 92 508 q 168 136 92 271 q 440 1 244 1 q 713 136 636 1 q 789 508 789 271 q 713 881 789 747 q 440 1015 636 1015 q 168 881 244 1015 q 92 508 92 746 m 667 508 q 651 305 667 389 q 585 167 635 221 q 440 114 536 114 q 295 167 344 114 q 231 304 246 221 q 215 508 215 388 q 231 713 215 629 q 295 850 246 797 q 440 903 344 903 q 585 850 536 903 q 651 713 635 797 q 667 508 667 629 z "},"१":{"ha":446,"x_min":72,"x_max":310,"o":"m 72 874 l 72 986 l 310 986 l 310 0 l 186 0 l 186 874 l 72 874 z "},"२":{"ha":804,"x_min":78,"x_max":743,"o":"m 78 104 q 178 190 144 163 q 399 389 318 311 q 535 552 481 467 q 589 719 589 638 q 544 860 589 807 q 400 913 499 913 q 254 853 306 913 q 199 697 203 794 l 78 697 q 172 937 83 853 q 399 1021 260 1021 q 627 941 542 1021 q 713 724 713 861 q 658 528 713 624 q 527 356 603 433 q 339 181 451 279 q 271 121 264 115 l 743 121 l 743 14 l 78 14 l 78 104 z "},"३":{"ha":818,"x_min":71,"x_max":733,"o":"m 408 1036 q 574 1002 506 1036 q 679 909 643 968 q 715 775 715 850 q 669 631 715 693 q 551 547 624 569 l 551 540 q 685 449 636 517 q 733 275 733 381 q 697 132 733 196 q 588 31 660 68 q 414 -6 515 -6 q 175 69 269 -6 q 71 282 81 144 l 190 282 q 256 152 197 203 q 413 101 315 101 q 563 153 511 101 q 615 288 615 206 q 546 443 615 397 q 333 489 476 489 l 300 489 l 300 594 l 335 594 q 596 763 596 597 q 547 883 596 839 q 404 928 497 928 q 268 887 319 928 q 206 778 217 846 l 83 778 q 184 967 94 899 q 408 1036 274 1036 z "},"४":{"ha":881,"x_min":63,"x_max":836,"o":"m 63 225 l 63 314 l 540 1000 l 701 1000 l 701 333 l 836 333 l 836 225 l 701 225 l 701 0 l 579 0 l 579 225 l 63 225 m 583 883 l 210 333 l 583 333 l 583 883 z "},"५":{"ha":881,"x_min":101,"x_max":793,"o":"m 726 906 l 242 906 l 242 588 q 335 664 272 633 q 469 694 397 694 q 658 645 585 694 q 762 519 731 596 q 793 356 793 442 q 706 99 793 199 q 450 0 618 0 q 213 74 303 0 q 101 268 124 147 l 222 268 q 302 150 242 193 q 450 107 363 107 q 617 174 561 107 q 674 351 674 240 q 617 526 674 465 q 450 586 561 586 q 321 547 375 586 q 240 442 267 508 l 125 442 l 125 1015 l 726 1015 l 726 906 z "},"६":{"ha":894,"x_min":111,"x_max":803,"o":"m 654 789 q 592 896 636 861 q 465 931 547 931 q 328 892 382 931 q 247 765 275 853 q 217 528 219 676 q 328 634 254 596 q 492 672 401 672 q 653 632 583 672 q 763 517 724 592 q 803 338 803 442 q 766 165 803 242 q 656 44 729 89 q 475 0 582 0 q 249 67 329 0 q 140 249 169 133 q 111 535 111 364 q 197 906 111 774 q 465 1038 283 1038 q 621 1003 556 1038 q 723 913 686 969 q 768 789 760 857 l 654 789 m 235 343 q 294 171 235 235 q 469 107 354 107 q 626 167 568 107 q 683 331 683 228 q 628 502 683 440 q 465 564 574 564 q 353 540 406 564 q 267 466 300 515 q 235 343 235 417 z "},"७":{"ha":778,"x_min":56,"x_max":725,"o":"m 725 917 l 328 0 l 189 0 l 604 904 l 56 904 l 56 1011 l 725 1011 l 725 917 z "},"८":{"ha":882,"x_min":88,"x_max":793,"o":"m 114 772 q 151 910 114 849 q 263 1008 189 972 q 440 1044 336 1044 q 619 1008 546 1044 q 730 910 693 972 q 767 771 767 847 q 725 630 767 690 q 617 540 683 569 q 744 445 696 514 q 793 281 793 376 q 749 117 793 188 q 624 10 704 47 q 440 -28 544 -28 q 256 10 336 -28 q 132 117 176 47 q 88 281 88 188 q 136 445 88 376 q 265 540 185 514 q 154 632 194 574 q 114 772 114 690 m 233 758 q 291 634 233 683 q 440 585 349 585 q 590 634 532 585 q 647 758 647 683 q 592 891 647 844 q 440 938 538 938 q 289 891 344 938 q 233 758 233 844 m 207 283 q 270 135 207 190 q 440 79 333 79 q 610 135 547 79 q 672 283 672 192 q 608 434 672 383 q 440 485 544 485 q 272 434 338 485 q 207 283 207 383 z "},"९":{"ha":882,"x_min":115,"x_max":786,"o":"m 258 260 q 326 147 274 186 q 464 108 378 108 q 584 144 538 108 q 654 264 631 179 q 678 493 678 349 q 577 408 642 438 q 438 379 513 379 q 275 417 349 379 q 158 529 201 456 q 115 704 115 603 q 203 947 115 856 q 446 1038 290 1038 q 707 913 628 1038 q 786 529 786 789 q 756 233 786 349 q 654 60 726 118 q 457 1 582 1 q 238 75 317 1 q 143 260 158 149 l 258 260 m 660 701 q 603 870 660 810 q 449 931 547 931 q 292 869 350 931 q 235 706 235 808 q 291 549 235 610 q 460 488 347 488 q 607 546 554 488 q 660 701 660 604 z "},"ॐ":{"ha":1493,"x_min":118,"x_max":1361,"o":"m 786 1247 q 734 1268 756 1247 q 713 1319 713 1289 q 734 1372 713 1350 q 786 1393 756 1393 q 838 1372 817 1393 q 860 1319 860 1350 q 838 1268 860 1289 q 786 1247 817 1247 m 786 1033 q 585 1103 651 1033 q 519 1281 519 1172 l 624 1281 q 665 1172 624 1217 q 786 1128 706 1128 q 908 1172 867 1128 q 949 1281 949 1217 l 1053 1281 q 987 1102 1053 1171 q 786 1033 921 1033 m 1092 958 q 1299 873 1236 958 q 1361 617 1361 788 l 1361 461 q 1277 149 1361 251 q 993 46 1193 46 q 832 60 932 46 l 832 164 q 972 153 914 153 q 1131 183 1071 153 q 1218 283 1190 214 q 1246 471 1246 353 l 1246 628 q 1233 761 1246 713 q 1188 833 1221 810 q 1093 857 1154 857 q 975 803 1008 857 q 942 628 942 750 q 876 464 942 507 q 686 421 810 421 q 711 307 711 367 q 632 94 711 172 q 419 17 553 17 q 263 53 332 17 q 156 157 194 90 q 118 311 118 224 l 231 311 q 283 172 231 225 q 421 118 335 118 q 553 168 507 118 q 600 307 600 218 q 547 440 600 392 q 406 489 494 489 l 354 489 l 354 596 l 399 596 q 531 641 478 596 q 583 761 583 686 q 538 885 583 839 q 413 931 493 931 q 288 885 333 931 q 240 761 242 839 l 129 761 q 165 904 129 843 q 266 999 201 965 q 414 1032 331 1032 q 618 959 540 1032 q 696 765 696 886 q 658 631 696 689 q 549 550 619 574 l 549 543 q 599 521 578 535 l 675 521 q 766 529 733 521 q 814 561 799 538 q 829 632 829 585 q 890 876 829 793 q 1092 958 950 958 z "},"॰":{"ha":675,"x_min":131,"x_max":576,"o":"m 576 344 q 548 237 576 285 q 470 162 519 189 q 358 135 421 135 q 194 198 257 135 q 131 358 131 261 q 159 465 131 417 q 238 540 188 513 q 351 568 288 568 q 517 507 457 568 q 576 344 576 446 m 219 357 q 258 259 219 296 q 360 222 297 222 q 451 258 415 222 q 486 346 486 293 q 451 444 486 407 q 353 481 417 481 q 258 445 296 481 q 219 357 219 410 z "},"।":{"ha":356,"x_min":206,"x_max":325,"o":"m 325 0 l 206 0 l 206 1029 l 325 1029 l 325 0 z "},"॥":{"ha":650,"x_min":206,"x_max":619,"o":"m 325 0 l 206 0 l 206 1029 l 325 1029 l 325 0 m 619 0 l 500 0 l 500 1029 l 619 1029 l 619 0 z "},"₨":{"ha":1558,"x_min":104,"x_max":1421,"o":"m 750 679 q 688 499 750 575 q 500 403 625 422 l 765 0 l 607 0 l 354 397 l 231 397 l 231 0 l 104 0 l 104 963 l 417 963 q 600 926 525 963 q 713 824 675 889 q 750 679 750 760 m 231 497 l 417 497 q 572 545 521 497 q 622 679 622 593 q 572 813 622 765 q 417 861 522 861 l 231 861 l 231 497 m 971 556 q 997 487 971 513 q 1060 449 1022 461 q 1164 422 1099 436 q 1298 384 1247 403 q 1385 322 1349 365 q 1421 203 1421 278 q 1385 91 1421 140 q 1283 15 1349 42 q 1133 -12 1218 -12 q 928 51 1006 -12 q 844 228 851 115 l 975 228 q 1020 126 978 164 q 1133 88 1063 88 q 1253 119 1211 88 q 1296 204 1296 151 q 1270 273 1296 247 q 1206 312 1244 299 q 1099 340 1167 325 q 966 377 1017 358 q 880 436 915 396 q 844 547 844 476 q 880 662 844 610 q 981 744 915 714 q 1135 775 1047 775 q 1331 710 1258 775 q 1410 533 1403 646 l 1279 533 q 1236 636 1276 597 q 1125 675 1196 675 q 1012 641 1053 675 q 971 556 971 607 z "},"₹":{"ha":857,"x_min":61,"x_max":817,"o":"m 638 775 q 636 724 638 740 l 817 724 l 817 628 l 628 628 q 570 478 613 532 q 450 403 528 425 q 243 381 372 381 l 243 274 q 406 86 243 86 q 529 132 490 86 q 568 265 568 178 l 683 265 q 610 56 682 126 q 404 -14 539 -14 q 196 64 268 -14 q 124 278 124 142 l 124 472 q 355 482 281 472 q 465 524 429 492 q 513 628 501 556 l 61 628 l 61 724 l 519 724 l 519 779 l 519 867 l 61 867 l 61 963 l 817 963 l 817 867 l 638 867 l 638 775 z "},"ʼ":{"ha":211,"x_min":35,"x_max":178,"o":"m 161 1088 q 178 960 178 1015 q 142 840 178 878 q 38 803 107 803 l 38 864 q 87 881 71 864 q 103 936 103 899 l 103 968 l 35 968 l 35 1088 l 161 1088 z "},"​":{"ha":0,"x_min":0,"x_max":0,"o":""},"‌":{"ha":0,"x_min":-32,"x_max":33,"o":"m -32 1126 l 33 1126 l 33 -319 l -32 -319 l -32 1126 z "},"‍":{"ha":0,"x_min":-178,"x_max":178,"o":"m 32 882 l 32 -319 l -33 -319 l -33 882 l -129 781 l -175 826 l -46 956 l -178 1088 l -132 1133 l 0 1001 l 133 1133 l 178 1089 l 44 956 l 178 824 l 132 778 l 32 882 z "},"◌":{"ha":904,"x_min":69,"x_max":835,"o":"m 418 633 q 375 649 392 633 q 358 692 358 665 q 375 734 358 718 q 418 750 392 750 q 461 734 444 750 q 478 692 478 718 q 461 649 478 665 q 418 633 444 633 m 586 613 q 543 628 560 613 q 526 671 526 644 q 543 713 526 697 q 586 729 560 729 q 629 713 613 729 q 646 671 646 697 q 629 628 646 644 q 586 613 613 613 m 256 575 q 213 591 229 575 q 196 633 196 607 q 213 676 196 660 q 256 692 229 692 q 299 676 282 692 q 315 633 315 660 q 299 591 315 607 q 256 575 282 575 m 714 510 q 671 526 688 510 q 654 568 654 542 q 671 610 654 594 q 714 626 688 626 q 757 610 740 626 q 774 568 774 594 q 757 526 774 542 q 714 510 740 510 m 150 438 q 107 453 124 438 q 90 496 90 469 q 107 538 90 522 q 150 554 124 554 q 193 538 176 554 q 210 496 210 522 q 193 453 210 469 q 150 438 176 438 m 775 351 q 732 367 749 351 q 715 410 715 383 q 732 452 715 436 q 775 468 749 468 q 818 452 801 468 q 835 410 835 436 q 818 367 835 383 q 775 351 801 351 m 129 269 q 86 285 103 269 q 69 328 69 301 q 86 370 69 354 q 129 386 103 386 q 172 370 156 386 q 189 328 189 354 q 172 285 189 301 q 129 269 156 269 m 761 185 q 718 201 735 185 q 701 243 701 217 q 718 285 701 269 q 761 301 735 301 q 804 285 788 301 q 821 243 821 269 q 804 201 821 217 q 761 185 788 185 m 192 113 q 149 128 165 113 q 132 171 132 144 q 149 213 132 197 q 192 229 165 229 q 235 213 218 229 q 251 171 251 197 q 235 128 251 144 q 192 113 218 113 m 660 51 q 617 67 633 51 q 600 110 600 83 q 617 152 600 136 q 660 168 633 168 q 703 152 686 168 q 719 110 719 136 q 703 67 719 83 q 660 51 686 51 m 328 7 q 285 23 301 7 q 268 65 268 39 q 285 108 268 92 q 328 124 301 124 q 371 108 354 124 q 388 65 388 92 q 371 23 388 39 q 328 7 354 7 m 500 -12 q 457 3 474 -12 q 440 46 440 19 q 457 88 440 72 q 500 104 474 104 q 543 88 526 104 q 560 46 560 72 q 543 3 560 19 q 500 -12 526 -12 z "},"!":{"ha":569,"x_min":214,"x_max":376,"o":"m 357 1039 l 343 288 l 240 288 l 225 1039 l 357 1039 m 214 81 q 238 139 214 115 q 294 163 261 163 q 353 139 329 163 q 376 81 376 115 q 353 24 376 47 q 294 0 329 0 q 238 24 261 0 q 214 81 214 47 z "},"\"":{"ha":397,"x_min":44,"x_max":353,"o":"m 165 1106 l 149 829 l 61 829 l 44 1106 l 165 1106 m 353 1106 l 336 829 l 249 829 l 232 1106 l 353 1106 z "},"#":{"ha":1178,"x_min":51,"x_max":1097,"o":"m 881 642 l 826 389 l 1017 389 l 1017 281 l 803 281 l 743 0 l 621 0 l 681 281 l 390 281 l 331 0 l 208 0 l 268 281 l 51 281 l 51 389 l 292 389 l 346 642 l 131 642 l 131 750 l 368 750 l 428 1028 l 550 1028 l 490 750 l 781 750 l 840 1028 l 963 1028 l 903 750 l 1097 750 l 1097 642 l 881 642 m 758 642 l 468 642 l 414 389 l 704 389 l 758 642 z "},"$":{"ha":906,"x_min":83,"x_max":732,"o":"m 732 269 q 699 142 732 203 q 601 40 665 81 q 444 -8 536 -1 l 444 -121 l 367 -121 l 367 -8 q 163 67 242 1 q 83 240 83 133 l 218 240 q 259 144 222 183 q 367 97 296 106 l 367 438 q 219 483 276 458 q 123 559 163 507 q 83 701 83 611 q 160 888 83 814 q 367 971 236 961 l 367 1083 l 444 1083 l 444 971 q 633 898 561 961 q 718 729 706 835 l 579 729 q 540 813 575 775 q 444 863 504 850 l 444 529 q 593 486 535 510 q 692 410 651 463 q 732 269 732 358 m 207 706 q 248 605 207 639 q 367 549 289 571 l 367 865 q 251 818 294 858 q 207 706 207 778 m 444 97 q 565 152 521 107 q 608 263 608 197 q 566 363 608 329 q 444 418 524 397 l 444 97 z "},"%":{"ha":950,"x_min":64,"x_max":888,"o":"m 265 976 q 411 921 354 976 q 468 771 468 865 q 411 622 468 678 q 265 565 354 565 q 121 622 178 565 q 64 771 64 678 q 120 921 64 865 q 265 976 176 976 m 819 963 l 257 0 l 131 0 l 693 963 l 819 963 m 169 771 q 194 676 169 707 q 265 644 219 644 q 336 676 311 644 q 361 771 361 707 q 265 897 361 897 q 169 771 169 897 m 685 397 q 830 341 772 397 q 888 192 888 285 q 831 42 888 97 q 685 -14 774 -14 q 540 42 596 -14 q 483 192 483 97 q 540 341 483 285 q 685 397 597 397 m 589 192 q 614 97 589 128 q 685 65 639 65 q 756 97 731 65 q 781 192 781 128 q 756 287 781 256 q 685 318 731 318 q 614 287 639 318 q 589 192 589 256 z "},"&":{"ha":928,"x_min":53,"x_max":907,"o":"m 753 0 l 607 194 q 508 47 582 104 q 336 -11 433 -11 q 193 25 258 -11 q 90 126 128 61 q 53 272 53 190 q 90 419 53 354 q 190 519 126 483 q 328 554 253 554 q 347 551 339 554 q 364 542 354 547 l 308 583 q 237 698 261 646 q 213 804 213 750 q 242 914 213 863 q 328 997 272 965 q 463 1028 385 1028 q 596 997 539 1028 q 683 917 653 967 q 713 810 713 867 q 703 746 713 781 l 575 746 q 583 803 583 771 q 549 889 583 854 q 463 924 515 924 q 374 889 408 924 q 340 803 340 854 q 354 737 340 769 q 404 656 368 704 l 907 0 l 753 0 m 336 92 q 421 116 382 92 q 483 182 460 140 q 506 274 506 224 q 483 365 506 324 q 421 430 460 406 q 336 454 382 454 q 218 402 267 454 q 169 274 169 350 q 218 144 169 197 q 336 92 267 92 z "},"'":{"ha":210,"x_min":44,"x_max":165,"o":"m 165 1106 l 149 829 l 61 829 l 44 1106 l 165 1106 z "},"(":{"ha":779,"x_min":211,"x_max":713,"o":"m 211 560 q 257 887 211 731 q 385 1168 303 1043 q 578 1374 468 1293 l 713 1374 l 713 1361 q 427 1001 521 1211 q 333 560 333 790 q 427 117 333 328 q 713 -243 521 -94 l 713 -256 l 578 -256 q 385 -50 468 -175 q 257 232 303 75 q 211 560 211 389 z "},")":{"ha":781,"x_min":68,"x_max":569,"o":"m 569 560 q 524 232 569 389 q 395 -50 478 75 q 203 -256 313 -175 l 68 -256 l 68 -243 q 353 117 258 -94 q 447 560 447 328 q 353 1001 447 790 q 68 1361 258 1211 l 68 1374 l 203 1374 q 395 1168 313 1293 q 524 887 478 1043 q 569 560 569 731 z "},"*":{"ha":683,"x_min":81,"x_max":592,"o":"m 536 935 l 592 835 l 393 760 l 592 685 l 536 583 l 369 710 l 397 500 l 283 500 l 308 710 l 139 581 l 81 685 l 278 760 l 81 835 l 139 936 l 308 808 l 283 1019 l 397 1019 l 369 808 l 536 935 z "},"+":{"ha":1029,"x_min":161,"x_max":868,"o":"m 868 453 l 574 453 l 574 154 l 456 154 l 456 453 l 161 453 l 161 564 l 456 564 l 456 863 l 574 863 l 574 564 l 868 564 l 868 453 z "},",":{"ha":258,"x_min":54,"x_max":201,"o":"m 183 93 q 201 -42 201 19 q 58 -199 201 -199 l 58 -137 q 109 -121 93 -137 q 125 -68 125 -104 l 125 -36 l 54 -36 l 54 93 l 183 93 z "},"-":{"ha":815,"x_min":131,"x_max":685,"o":"m 685 563 l 685 454 l 131 454 l 131 563 l 685 563 z "},".":{"ha":314,"x_min":76,"x_max":238,"o":"m 76 81 q 100 139 76 115 q 157 163 124 163 q 214 139 190 163 q 238 81 238 115 q 214 24 238 47 q 157 0 190 0 q 100 24 124 0 q 76 81 76 47 z "},"/":{"ha":749,"x_min":114,"x_max":618,"o":"m 618 1308 l 239 -236 l 114 -236 l 493 1308 l 618 1308 z "},":":{"ha":419,"x_min":118,"x_max":281,"o":"m 118 674 q 142 731 118 707 q 199 754 165 754 q 257 731 233 754 q 281 674 281 707 q 257 617 281 640 q 199 593 233 593 q 142 617 165 593 q 118 674 118 640 m 118 81 q 142 139 118 115 q 199 163 165 163 q 257 139 233 163 q 281 81 281 115 q 257 24 281 47 q 199 0 233 0 q 142 24 165 0 q 118 81 118 47 z "},";":{"ha":383,"x_min":129,"x_max":290,"o":"m 129 675 q 153 733 129 710 q 210 757 176 757 q 267 733 243 757 q 290 675 290 710 q 267 618 290 642 q 210 594 243 594 q 153 618 176 594 q 129 675 129 642 m 265 93 q 283 -42 283 19 q 140 -199 283 -199 l 140 -137 q 191 -121 175 -137 q 207 -68 207 -104 l 207 -36 l 136 -36 l 136 93 l 265 93 z "},"<":{"ha":883,"x_min":154,"x_max":650,"o":"m 490 189 l 154 508 l 490 826 l 650 826 l 314 508 l 650 189 l 490 189 z "},"=":{"ha":1071,"x_min":175,"x_max":897,"o":"m 897 714 l 897 603 l 175 603 l 175 714 l 897 714 m 897 413 l 897 303 l 175 303 l 175 413 l 897 413 z "},">":{"ha":838,"x_min":183,"x_max":678,"o":"m 183 826 l 342 826 l 678 508 l 342 189 l 183 189 l 519 508 l 183 826 z "},"?":{"ha":869,"x_min":138,"x_max":743,"o":"m 439 1031 q 660 954 578 1031 q 743 746 743 878 q 660 527 743 593 q 411 460 578 461 l 411 276 l 292 276 l 292 550 l 347 550 q 499 564 440 549 q 591 622 558 579 q 624 744 624 664 q 575 876 624 829 q 440 924 526 924 q 305 878 354 924 q 256 750 256 833 l 138 750 q 175 898 138 835 q 281 996 213 961 q 439 1031 350 1031 m 354 151 q 413 128 389 151 q 436 69 436 104 q 413 13 436 36 q 354 -11 389 -11 q 297 13 321 -11 q 274 69 274 36 q 297 128 274 104 q 354 151 321 151 z "},"@":{"ha":1607,"x_min":76,"x_max":1531,"o":"m 897 1090 q 1229 1017 1086 1090 q 1451 809 1372 943 q 1531 500 1531 675 q 1477 240 1531 357 q 1338 55 1424 122 q 1161 -12 1251 -12 q 1041 36 1079 -12 q 1006 157 1003 85 q 885 33 957 79 q 718 -12 814 -12 q 564 29 633 -12 q 455 146 494 71 q 415 318 415 221 q 421 388 415 356 q 501 590 438 501 q 656 726 564 678 q 849 774 747 774 q 1011 733 940 774 q 1120 622 1082 693 q 1158 461 1158 550 q 1153 396 1158 425 l 1118 172 q 1117 153 1117 165 q 1131 109 1117 124 q 1172 94 1146 94 q 1276 147 1224 94 q 1365 292 1329 199 q 1400 500 1400 385 q 1339 754 1400 644 q 1160 924 1278 864 q 881 985 1043 985 q 533 892 686 985 q 293 640 379 800 q 207 286 207 481 q 278 1 207 118 q 478 -178 350 -117 q 778 -244 607 -239 l 751 -350 q 403 -269 556 -344 q 163 -53 250 -194 q 76 286 76 89 q 182 694 76 510 q 475 984 288 878 q 897 1090 663 1090 m 1024 381 q 1028 433 1028 408 q 972 600 1028 535 q 829 665 915 665 q 706 628 765 665 q 603 525 646 590 q 550 381 561 460 q 546 326 546 354 q 572 207 546 260 q 642 124 597 154 q 743 94 686 94 q 867 132 807 94 q 970 235 928 169 q 1024 381 1013 301 z "},"A":{"ha":960,"x_min":61,"x_max":899,"o":"m 693 211 l 265 211 l 190 0 l 61 0 l 411 963 l 550 963 l 899 0 l 768 0 l 693 211 m 657 311 l 479 808 l 301 311 l 657 311 z "},"B":{"ha":850,"x_min":104,"x_max":779,"o":"m 572 494 q 722 411 665 479 q 779 254 779 343 q 741 125 779 183 q 631 33 703 67 q 465 0 560 0 l 104 0 l 104 963 l 449 963 q 617 929 547 963 q 722 838 686 896 q 757 707 757 781 q 708 573 757 626 q 572 494 660 519 m 231 544 l 443 544 q 580 587 531 544 q 629 701 629 629 q 580 818 629 775 q 443 861 531 861 l 231 861 l 231 544 m 458 100 q 602 146 550 100 q 654 272 654 192 q 598 397 654 351 q 449 443 542 443 l 231 443 l 231 100 l 458 100 z "},"C":{"ha":1079,"x_min":54,"x_max":985,"o":"m 544 972 q 812 901 694 972 q 985 697 929 831 l 832 697 q 715 818 790 776 q 544 860 640 860 q 359 813 442 860 q 230 681 276 767 q 183 482 183 594 q 230 283 183 369 q 359 150 276 197 q 544 103 442 103 q 715 145 640 103 q 832 267 790 188 l 985 267 q 812 63 929 133 q 544 -8 694 -8 q 297 55 410 -8 q 119 230 185 118 q 54 482 54 342 q 119 735 54 624 q 297 910 185 847 q 544 972 410 972 z "},"D":{"ha":967,"x_min":104,"x_max":911,"o":"m 911 476 q 850 220 911 328 q 676 56 789 113 q 408 0 563 0 l 104 0 l 104 963 l 408 963 q 676 903 563 963 q 850 735 789 844 q 911 476 911 626 m 408 97 q 686 197 590 97 q 782 476 782 297 q 686 756 782 656 q 408 856 590 856 l 231 856 l 231 97 l 408 97 z "},"E":{"ha":701,"x_min":104,"x_max":614,"o":"m 231 863 l 231 535 l 572 535 l 572 436 l 231 436 l 231 100 l 614 100 l 614 0 l 104 0 l 104 963 l 614 963 l 614 863 l 231 863 z "},"F":{"ha":681,"x_min":104,"x_max":646,"o":"m 646 963 l 646 861 l 231 861 l 231 535 l 558 535 l 558 435 l 231 435 l 231 0 l 104 0 l 104 963 l 646 963 z "},"G":{"ha":1079,"x_min":54,"x_max":1025,"o":"m 544 972 q 812 901 694 972 q 985 697 929 831 l 832 697 q 715 818 790 776 q 544 860 640 860 q 359 813 442 860 q 230 681 276 767 q 183 482 183 594 q 230 283 183 369 q 359 150 276 197 q 544 103 442 103 q 784 189 692 103 q 892 422 876 275 l 494 422 l 494 522 l 1025 522 l 1025 422 q 947 201 1013 300 q 776 47 881 103 q 544 -8 671 -8 q 297 55 410 -8 q 119 230 185 118 q 54 482 54 342 q 119 735 54 624 q 297 910 185 847 q 544 972 410 972 z "},"H":{"ha":947,"x_min":104,"x_max":843,"o":"m 843 963 l 843 0 l 715 0 l 715 435 l 231 435 l 231 0 l 104 0 l 104 963 l 231 963 l 231 535 l 715 535 l 715 963 l 843 963 z "},"I":{"ha":335,"x_min":104,"x_max":231,"o":"m 231 963 l 231 0 l 104 0 l 104 963 l 231 963 z "},"J":{"ha":767,"x_min":69,"x_max":607,"o":"m 607 963 l 607 251 q 533 61 607 132 q 339 -10 460 -10 q 144 61 218 -10 q 69 251 69 132 l 199 251 q 234 143 200 185 q 339 101 268 101 q 446 144 411 101 q 481 251 481 186 l 481 963 l 607 963 z "},"K":{"ha":831,"x_min":104,"x_max":792,"o":"m 342 475 l 792 0 l 624 0 l 231 431 l 231 0 l 104 0 l 104 963 l 231 963 l 231 517 l 626 963 l 792 963 l 342 475 z "},"L":{"ha":596,"x_min":104,"x_max":568,"o":"m 231 97 l 568 97 l 568 0 l 104 0 l 104 963 l 231 963 l 231 97 z "},"M":{"ha":1190,"x_min":104,"x_max":1086,"o":"m 1086 963 l 1086 0 l 958 0 l 958 701 l 636 0 l 554 0 l 231 701 l 231 0 l 104 0 l 104 963 l 233 963 l 596 174 l 957 963 l 1086 963 z "},"N":{"ha":969,"x_min":104,"x_max":865,"o":"m 865 0 l 739 0 l 231 764 l 231 0 l 104 0 l 104 963 l 231 963 l 739 199 l 739 963 l 865 963 l 865 0 z "},"O":{"ha":1086,"x_min":54,"x_max":1033,"o":"m 544 972 q 791 910 679 972 q 968 735 903 847 q 1033 482 1033 624 q 968 229 1033 342 q 791 53 903 117 q 544 -10 679 -10 q 297 53 410 -10 q 119 229 185 117 q 54 482 54 342 q 119 735 54 624 q 297 910 185 847 q 544 972 410 972 m 544 860 q 359 813 442 860 q 229 681 276 767 q 182 482 182 594 q 229 283 182 369 q 359 150 276 197 q 544 103 442 103 q 729 150 647 103 q 858 283 811 197 q 904 482 904 369 q 858 681 904 594 q 729 813 811 767 q 544 860 647 860 z "},"P":{"ha":803,"x_min":104,"x_max":750,"o":"m 231 397 l 231 0 l 104 0 l 104 963 l 417 963 q 600 926 525 963 q 713 824 675 889 q 750 679 750 760 q 667 477 750 557 q 417 397 585 397 l 231 397 m 417 497 q 572 545 521 497 q 622 679 622 593 q 572 813 622 765 q 417 861 522 861 l 231 861 l 231 497 l 417 497 z "},"Q":{"ha":1090,"x_min":54,"x_max":1050,"o":"m 883 -182 l 689 11 q 544 -10 622 -10 q 297 53 410 -10 q 119 229 185 117 q 54 482 54 342 q 119 735 54 624 q 297 910 185 847 q 544 972 410 972 q 791 910 679 972 q 968 735 903 847 q 1033 482 1033 624 q 972 235 1033 344 q 804 61 911 125 l 1050 -182 l 883 -182 m 182 482 q 229 283 182 369 q 359 150 276 197 q 544 103 442 103 q 729 150 647 103 q 858 283 811 197 q 904 482 904 369 q 858 681 904 594 q 729 813 811 767 q 544 860 647 860 q 359 813 442 860 q 229 681 276 767 q 182 482 182 594 z "},"R":{"ha":857,"x_min":104,"x_max":765,"o":"m 607 0 l 354 397 l 231 397 l 231 0 l 104 0 l 104 963 l 417 963 q 600 926 525 963 q 713 824 675 889 q 750 679 750 760 q 688 499 750 575 q 500 403 625 422 l 765 0 l 607 0 m 231 497 l 417 497 q 572 545 521 497 q 622 679 622 593 q 572 813 622 765 q 417 861 522 861 l 231 861 l 231 497 z "},"S":{"ha":815,"x_min":83,"x_max":732,"o":"m 732 269 q 694 133 732 197 q 583 30 657 69 q 407 -10 510 -10 q 242 20 315 -10 q 126 106 168 50 q 83 240 83 163 l 218 240 q 270 135 224 175 q 407 94 317 94 q 554 142 500 94 q 608 263 608 189 q 578 351 608 318 q 501 400 547 383 q 379 433 456 417 q 224 479 283 456 q 124 556 165 503 q 83 701 83 608 q 122 843 83 782 q 234 938 161 904 q 404 972 307 972 q 619 908 536 972 q 714 729 701 843 l 574 729 q 520 826 568 786 q 392 867 472 867 q 258 826 310 867 q 207 706 207 785 q 238 615 207 649 q 313 565 268 582 q 439 531 358 549 q 592 485 533 508 q 691 411 650 463 q 732 269 732 360 z "},"T":{"ha":758,"x_min":61,"x_max":696,"o":"m 696 963 l 696 861 l 442 861 l 442 0 l 315 0 l 315 861 l 61 861 l 61 963 l 696 963 z "},"U":{"ha":935,"x_min":103,"x_max":833,"o":"m 231 963 l 231 338 q 294 159 231 218 q 468 100 357 100 q 643 159 579 100 q 707 338 707 218 l 707 963 l 833 963 l 833 338 q 785 145 833 224 q 653 28 736 67 q 468 -10 569 -10 q 283 28 365 -10 q 151 145 200 67 q 103 338 103 224 l 103 963 l 231 963 z "},"V":{"ha":944,"x_min":33,"x_max":911,"o":"m 168 963 l 471 135 l 776 963 l 911 963 l 540 0 l 404 0 l 33 963 l 168 963 z "},"W":{"ha":1361,"x_min":33,"x_max":1328,"o":"m 1328 963 l 1036 0 l 894 0 l 678 778 l 446 0 l 306 -1 l 33 963 l 167 963 l 381 144 l 614 963 l 753 963 l 968 147 l 1194 963 l 1328 963 z "},"X":{"ha":874,"x_min":69,"x_max":806,"o":"m 508 481 l 804 0 l 665 0 l 431 379 l 210 0 l 69 0 l 367 482 l 69 963 l 210 963 l 444 582 l 665 963 l 806 963 l 508 481 z "},"Y":{"ha":794,"x_min":21,"x_max":774,"o":"m 774 963 l 461 364 l 461 0 l 335 0 l 335 364 l 21 963 l 160 963 l 397 481 l 633 963 l 774 963 z "},"Z":{"ha":753,"x_min":69,"x_max":683,"o":"m 215 100 l 683 100 l 683 0 l 69 0 l 69 100 l 539 861 l 69 861 l 69 963 l 683 963 l 683 861 l 215 100 z "},"[":{"ha":658,"x_min":222,"x_max":458,"o":"m 458 1308 l 458 1203 l 339 1203 l 339 -131 l 458 -131 l 458 -237 l 222 -237 l 222 1308 l 458 1308 z "},"\\":{"ha":949,"x_min":217,"x_max":776,"o":"m 651 -236 l 217 1308 l 343 1308 l 776 -236 l 651 -236 z "},"]":{"ha":658,"x_min":200,"x_max":438,"o":"m 200 -237 l 200 -131 l 319 -131 l 319 1203 l 200 1203 l 200 1308 l 438 1308 l 438 -237 l 200 -237 z "},"^":{"ha":878,"x_min":53,"x_max":825,"o":"m 186 236 l 53 236 l 381 963 l 497 963 l 825 236 l 692 236 l 439 804 l 186 236 z "},"_":{"ha":1119,"x_min":199,"x_max":938,"o":"m 938 -56 l 938 -169 l 199 -169 l 199 -56 l 938 -56 z "},"`":{"ha":332,"x_min":14,"x_max":310,"o":"m 310 913 l 310 815 l 14 971 l 14 1088 l 310 913 z "},"a":{"ha":931,"x_min":54,"x_max":826,"o":"m 418 775 q 588 729 515 775 q 699 610 661 683 l 699 763 l 826 763 l 826 0 l 699 0 l 699 156 q 588 34 661 81 q 418 -12 515 -12 q 233 38 315 -12 q 102 180 150 89 q 54 386 54 271 q 102 590 54 501 q 233 726 150 678 q 418 775 315 775 m 440 665 q 313 632 372 665 q 219 535 254 599 q 183 386 183 472 q 219 234 183 300 q 313 132 254 168 q 440 96 372 96 q 569 131 510 96 q 663 230 628 165 q 699 381 699 294 q 663 531 699 467 q 569 631 628 596 q 440 665 510 665 z "},"b":{"ha":931,"x_min":104,"x_max":876,"o":"m 513 775 q 698 726 615 775 q 828 590 781 678 q 876 386 876 501 q 828 180 876 271 q 698 38 781 89 q 513 -12 615 -12 q 342 34 415 -12 q 231 156 269 81 l 231 0 l 104 0 l 104 1028 l 231 1028 l 231 610 q 342 729 269 683 q 513 775 415 775 m 488 665 q 360 631 419 665 q 266 531 301 596 q 231 381 231 467 q 266 230 231 294 q 360 131 301 165 q 488 96 419 96 q 615 131 556 96 q 710 233 675 167 q 746 386 746 300 q 710 535 746 472 q 616 632 675 599 q 488 665 557 665 z "},"c":{"ha":833,"x_min":54,"x_max":769,"o":"m 424 775 q 648 711 561 775 q 769 529 735 647 l 633 529 q 557 633 611 596 q 424 671 503 671 q 249 595 315 671 q 183 381 183 519 q 249 167 183 243 q 424 92 315 92 q 557 128 504 92 q 633 233 610 164 l 769 233 q 647 54 735 121 q 424 -12 558 -12 q 233 36 317 -12 q 101 174 149 85 q 54 381 54 264 q 101 588 54 499 q 232 726 149 678 q 424 775 315 775 z "},"d":{"ha":931,"x_min":54,"x_max":826,"o":"m 418 775 q 588 729 515 775 q 699 610 661 683 l 699 1028 l 826 1028 l 826 0 l 699 0 l 699 156 q 588 34 661 81 q 418 -12 515 -12 q 233 38 315 -12 q 102 180 150 89 q 54 386 54 271 q 102 590 54 501 q 233 726 150 678 q 418 775 315 775 m 440 665 q 313 632 372 665 q 219 535 254 599 q 183 386 183 472 q 219 234 183 300 q 313 132 254 168 q 440 96 372 96 q 569 131 510 96 q 663 230 628 165 q 699 381 699 294 q 663 531 699 467 q 569 631 628 596 q 440 665 510 665 z "},"e":{"ha":849,"x_min":54,"x_max":796,"o":"m 796 413 q 790 338 796 372 l 183 338 q 255 158 189 224 q 424 92 321 92 q 555 126 501 92 q 633 218 608 161 l 769 218 q 645 53 733 118 q 424 -12 557 -12 q 233 36 317 -12 q 101 174 149 85 q 54 381 54 264 q 101 588 54 499 q 235 726 149 678 q 433 775 321 775 q 622 728 540 775 q 750 599 704 681 q 796 413 796 517 m 664 429 q 632 558 664 503 q 545 642 600 613 q 424 671 490 671 q 258 606 325 671 q 185 429 192 542 l 664 429 z "},"f":{"ha":458,"x_min":32,"x_max":418,"o":"m 418 660 l 258 660 l 258 0 l 131 0 l 131 660 l 32 660 l 32 763 l 131 763 l 131 826 q 197 1008 131 951 q 407 1065 264 1065 l 407 963 q 291 931 324 963 q 258 826 258 900 l 258 763 l 418 763 l 418 660 z "},"g":{"ha":931,"x_min":54,"x_max":826,"o":"m 418 775 q 588 729 515 775 q 699 610 661 683 l 699 763 l 826 763 l 826 -19 q 781 -204 826 -124 q 651 -330 735 -285 q 458 -375 568 -375 q 283 -342 363 -375 q 154 -250 204 -310 q 94 -114 104 -190 l 218 -114 q 303 -222 236 -179 q 458 -265 369 -265 q 633 -201 567 -265 q 699 -19 699 -136 l 699 156 q 588 34 661 81 q 418 -12 515 -12 q 233 38 315 -12 q 102 180 150 89 q 54 386 54 271 q 102 590 54 501 q 233 726 150 678 q 418 775 315 775 m 440 665 q 313 632 372 665 q 219 535 254 599 q 183 386 183 472 q 219 234 183 300 q 313 132 254 168 q 440 96 372 96 q 569 131 510 96 q 663 230 628 165 q 699 381 699 294 q 663 531 699 467 q 569 631 628 596 q 440 665 510 665 z "},"h":{"ha":872,"x_min":104,"x_max":775,"o":"m 479 775 q 628 738 561 775 q 735 628 696 701 q 775 451 775 556 l 775 0 l 650 0 l 650 431 q 594 606 650 546 q 440 665 539 665 q 287 606 343 665 q 231 431 231 546 l 231 0 l 104 0 l 104 1028 l 231 1028 l 231 639 q 333 740 268 706 q 479 775 399 775 z "},"i":{"ha":335,"x_min":83,"x_max":254,"o":"m 83 971 q 108 1032 83 1007 q 168 1057 133 1057 q 229 1032 204 1057 q 254 971 254 1007 q 229 910 254 935 q 168 885 204 885 q 108 910 132 885 q 83 971 83 935 m 231 763 l 231 0 l 104 0 l 104 763 l 231 763 z "},"j":{"ha":335,"x_min":-44,"x_max":254,"o":"m 83 971 q 108 1032 83 1007 q 168 1057 133 1057 q 229 1032 204 1057 q 254 971 254 1007 q 229 910 254 935 q 168 885 204 885 q 108 910 132 885 q 83 971 83 935 m 231 -164 q 33 -361 231 -361 l -44 -361 l -44 -257 l 8 -257 q 83 -236 63 -257 q 104 -164 104 -215 l 104 763 l 231 763 l 231 -164 z "},"k":{"ha":713,"x_min":104,"x_max":700,"o":"m 340 383 l 700 0 l 529 0 l 231 335 l 231 0 l 104 0 l 104 1028 l 231 1028 l 231 425 l 522 763 l 700 763 l 340 383 z "},"l":{"ha":335,"x_min":104,"x_max":231,"o":"m 231 1028 l 231 0 l 104 0 l 104 1028 l 231 1028 z "},"m":{"ha":1417,"x_min":104,"x_max":1319,"o":"m 1021 775 q 1172 738 1104 775 q 1280 628 1240 701 q 1319 451 1319 556 l 1319 0 l 1194 0 l 1194 431 q 1138 606 1194 546 q 985 665 1082 665 q 831 606 888 665 q 775 431 775 546 l 775 0 l 650 0 l 650 431 q 594 606 650 546 q 440 665 539 665 q 287 606 343 665 q 231 431 231 546 l 231 0 l 104 0 l 104 763 l 231 763 l 231 639 q 333 740 268 706 q 479 775 399 775 q 638 733 567 775 q 744 610 708 690 q 858 731 786 688 q 1021 775 929 775 z "},"n":{"ha":872,"x_min":104,"x_max":775,"o":"m 479 775 q 628 738 561 775 q 735 628 696 701 q 775 451 775 556 l 775 0 l 650 0 l 650 431 q 594 606 650 546 q 440 665 539 665 q 287 606 343 665 q 231 431 231 546 l 231 0 l 104 0 l 104 763 l 231 763 l 231 639 q 333 740 268 706 q 479 775 399 775 z "},"o":{"ha":878,"x_min":54,"x_max":824,"o":"m 439 775 q 635 726 547 775 q 773 588 722 678 q 824 381 824 497 q 771 176 824 265 q 628 37 718 86 q 428 -12 538 -12 q 235 36 321 -12 q 102 174 150 85 q 54 381 54 264 q 105 588 54 499 q 243 726 156 678 q 439 775 331 775 m 435 671 q 308 638 365 671 q 217 539 251 604 q 183 381 183 474 q 216 224 183 289 q 304 125 249 158 q 428 92 360 92 q 558 126 497 92 q 656 225 618 160 q 693 381 693 290 q 658 538 693 472 q 563 638 622 604 q 435 671 504 671 z "},"p":{"ha":931,"x_min":104,"x_max":876,"o":"m 513 775 q 698 726 615 775 q 828 590 781 678 q 876 386 876 501 q 828 180 876 271 q 698 38 781 89 q 513 -12 615 -12 q 342 34 415 -12 q 231 156 269 81 l 231 -361 l 104 -361 l 104 763 l 231 763 l 231 610 q 342 729 269 683 q 513 775 415 775 m 488 665 q 360 631 419 665 q 266 531 301 596 q 231 381 231 467 q 266 230 231 294 q 360 131 301 165 q 488 96 419 96 q 615 131 556 96 q 710 233 675 167 q 746 386 746 300 q 710 535 746 472 q 616 632 675 599 q 488 665 557 665 z "},"q":{"ha":931,"x_min":54,"x_max":826,"o":"m 418 775 q 588 729 515 775 q 699 610 661 683 l 699 763 l 826 763 l 826 -361 l 699 -361 l 699 156 q 588 34 661 81 q 418 -12 515 -12 q 233 38 315 -12 q 102 180 150 89 q 54 386 54 271 q 102 590 54 501 q 233 726 150 678 q 418 775 315 775 m 440 665 q 313 632 372 665 q 219 535 254 599 q 183 386 183 472 q 219 234 183 300 q 313 132 254 168 q 440 96 372 96 q 569 131 510 96 q 663 230 628 165 q 699 381 699 294 q 663 531 699 467 q 569 631 628 596 q 440 665 510 665 z "},"r":{"ha":511,"x_min":104,"x_max":463,"o":"m 231 633 q 463 775 299 775 l 463 643 l 429 643 q 281 592 332 643 q 231 417 231 542 l 231 0 l 104 0 l 104 763 l 231 763 l 231 633 z "},"s":{"ha":731,"x_min":76,"x_max":653,"o":"m 367 775 q 563 710 490 775 q 642 533 635 646 l 511 533 q 468 636 508 597 q 357 675 428 675 q 244 641 285 675 q 203 556 203 607 q 228 487 203 513 q 292 449 254 461 q 396 422 331 436 q 530 384 479 403 q 617 322 581 365 q 653 203 653 278 q 617 91 653 140 q 515 15 581 42 q 365 -12 450 -12 q 160 51 238 -12 q 76 228 83 115 l 207 228 q 252 126 210 164 q 365 88 294 88 q 485 119 443 88 q 528 204 528 151 q 502 273 528 247 q 438 312 476 299 q 331 340 399 325 q 198 377 249 358 q 112 436 147 396 q 76 547 76 476 q 112 662 76 610 q 213 744 147 714 q 367 775 279 775 z "},"t":{"ha":493,"x_min":33,"x_max":458,"o":"m 458 103 l 458 0 l 331 0 q 183 47 233 0 q 132 196 132 94 l 132 660 l 33 660 l 33 763 l 132 763 l 132 951 l 260 951 l 260 763 l 457 763 l 457 660 l 260 660 l 260 196 q 281 124 260 144 q 354 103 301 103 l 458 103 z "},"u":{"ha":872,"x_min":97,"x_max":768,"o":"m 768 763 l 768 0 l 642 0 l 642 122 q 539 22 604 56 q 393 -12 474 -12 q 244 24 311 -12 q 137 133 176 61 q 97 310 97 206 l 97 763 l 222 763 l 222 331 q 278 156 222 217 q 432 96 335 96 q 585 156 529 96 q 642 331 642 217 l 642 763 l 768 763 z "},"v":{"ha":772,"x_min":17,"x_max":756,"o":"m 385 118 l 619 763 l 756 763 l 457 0 l 314 0 l 17 763 l 151 763 l 385 118 z "},"w":{"ha":1122,"x_min":17,"x_max":1106,"o":"m 1106 763 l 865 0 l 735 0 l 563 606 l 390 0 l 258 0 l 17 763 l 147 763 l 324 126 l 503 763 l 633 763 l 803 125 l 978 763 l 1106 763 z "},"x":{"ha":664,"x_min":17,"x_max":647,"o":"m 401 382 l 646 0 l 503 0 l 322 283 l 154 0 l 17 0 l 263 378 l 17 763 l 160 763 l 342 478 l 511 763 l 647 763 l 401 382 z "},"y":{"ha":774,"x_min":17,"x_max":757,"o":"m 156 763 l 389 146 l 626 763 l 757 763 l 297 -357 l 167 -357 l 318 13 l 17 763 l 156 763 z "},"z":{"ha":629,"x_min":58,"x_max":569,"o":"m 201 103 l 569 103 l 569 0 l 58 0 l 58 103 l 426 660 l 58 660 l 58 763 l 569 763 l 569 660 l 201 103 z "},"{":{"ha":764,"x_min":201,"x_max":617,"o":"m 315 515 q 426 451 390 500 q 461 328 461 401 q 457 259 461 294 q 451 213 453 224 q 444 161 450 206 q 439 61 439 117 q 486 -162 439 -76 q 617 -279 533 -249 l 617 -301 l 490 -301 q 413 -252 449 -283 q 347 -150 376 -221 q 318 38 318 -79 q 331 176 318 96 q 342 308 342 260 q 201 488 342 458 l 201 546 q 342 725 342 574 q 331 857 342 774 q 318 996 318 938 q 347 1183 318 1113 q 413 1285 376 1254 q 490 1335 449 1317 l 617 1335 l 617 1313 q 486 1196 533 1282 q 439 972 439 1110 q 444 872 439 917 q 451 821 450 828 q 457 774 453 810 q 461 706 461 739 q 425 583 461 633 q 315 518 389 533 l 315 515 z "},"|":{"ha":418,"x_min":146,"x_max":272,"o":"m 272 -147 l 146 -147 l 146 1104 l 272 1104 l 272 -147 z "},"}":{"ha":760,"x_min":147,"x_max":563,"o":"m 449 518 q 340 583 375 533 q 304 706 304 633 q 308 774 304 739 q 314 821 313 810 q 321 872 315 828 q 326 972 326 917 q 279 1195 326 1110 q 147 1313 232 1281 l 147 1335 l 275 1335 q 353 1285 317 1317 q 418 1183 389 1254 q 447 996 447 1113 q 435 857 447 938 q 424 725 424 774 q 563 546 424 572 l 563 488 q 424 308 424 460 q 435 176 424 260 q 447 38 447 96 q 418 -150 447 -79 q 353 -252 389 -221 q 275 -301 317 -283 l 147 -301 l 147 -279 q 279 -162 232 -247 q 326 61 326 -76 q 321 161 326 117 q 314 213 315 206 q 308 259 313 224 q 304 328 304 294 q 339 451 304 401 q 449 515 374 500 l 449 518 z "},"~":{"ha":722,"x_min":53,"x_max":671,"o":"m 254 547 q 319 535 292 547 q 383 499 346 524 q 433 469 411 479 q 479 458 454 458 q 543 481 515 458 q 576 543 571 503 l 671 543 q 599 394 653 443 q 468 344 546 344 q 403 357 431 344 q 340 393 375 369 q 290 424 310 414 q 243 433 269 433 q 180 410 208 433 q 146 349 151 388 l 53 349 q 124 498 71 449 q 254 547 176 547 z "}," ":{"ha":417,"x_min":0,"x_max":0,"o":""},"¡":{"ha":589,"x_min":214,"x_max":376,"o":"m 294 775 q 353 751 329 775 q 376 694 376 728 q 353 636 376 660 q 294 613 329 613 q 238 636 261 613 q 214 694 214 660 q 238 751 214 728 q 294 775 261 775 m 240 488 l 343 488 l 357 -264 l 225 -264 l 240 488 z "},"¢":{"ha":993,"x_min":99,"x_max":779,"o":"m 458 104 q 661 232 619 104 l 779 232 q 691 75 765 140 q 499 0 617 10 l 499 -124 l 415 -124 l 415 0 q 241 60 313 10 q 134 190 169 111 q 99 361 99 268 q 134 533 99 454 q 241 664 169 613 q 415 725 313 715 l 415 847 l 499 847 l 499 725 q 691 649 617 714 q 779 492 765 583 l 661 492 q 458 619 619 619 q 283 551 349 619 q 217 363 217 482 q 283 173 217 242 q 458 104 349 104 z "},"£":{"ha":888,"x_min":63,"x_max":757,"o":"m 757 104 l 757 -1 l 142 -1 l 115 72 q 198 197 171 138 q 225 346 225 257 q 214 428 225 388 l 63 428 l 63 517 l 183 517 q 160 599 168 558 q 151 690 151 639 q 190 845 151 778 q 298 949 229 913 q 454 986 367 986 q 672 905 599 986 q 747 699 746 824 l 633 699 q 590 830 633 781 q 456 879 547 879 q 322 832 374 879 q 269 683 269 785 q 278 604 269 643 q 304 517 288 565 l 579 517 l 579 428 l 332 428 q 344 344 344 378 q 250 104 344 210 l 757 104 z "},"¤":{"ha":746,"x_min":83,"x_max":663,"o":"m 618 524 q 576 382 618 443 l 663 299 l 600 236 l 514 322 q 367 279 451 279 q 228 318 286 279 l 146 236 l 83 299 l 165 381 q 126 524 126 442 q 168 668 126 607 l 83 751 l 146 814 l 231 729 q 372 768 293 768 q 514 728 454 768 l 600 814 l 663 751 l 578 667 q 618 524 618 604 m 368 357 q 473 401 429 357 q 517 524 517 444 q 474 647 517 603 q 371 692 432 692 q 269 647 310 692 q 228 524 228 603 q 267 401 228 444 q 368 357 307 357 z "},"¥":{"ha":794,"x_min":21,"x_max":774,"o":"m 549 532 l 739 532 l 739 436 l 497 433 l 461 364 l 461 290 l 739 290 l 739 194 l 461 194 l 461 0 l 335 0 l 335 194 l 57 194 l 57 290 l 335 290 l 335 364 l 299 433 l 57 436 l 57 532 l 247 532 l 21 963 l 160 963 l 397 481 l 633 963 l 774 963 l 549 532 z "},"¦":{"ha":418,"x_min":146,"x_max":272,"o":"m 146 1104 l 272 1104 l 272 579 l 146 579 l 146 1104 m 272 -147 l 146 -147 l 146 378 l 272 378 l 272 -147 z "},"§":{"ha":797,"x_min":63,"x_max":735,"o":"m 544 113 q 653 38 615 79 q 690 -69 690 -3 q 656 -180 690 -131 q 555 -258 621 -229 q 399 -287 489 -287 q 198 -230 276 -287 q 119 -72 119 -172 l 240 -72 q 283 -164 244 -129 q 399 -199 322 -199 q 523 -168 479 -199 q 567 -78 567 -137 q 548 -21 567 -44 q 483 24 529 3 q 344 76 436 46 q 131 183 199 124 q 63 339 63 242 q 113 479 63 419 q 254 565 164 539 q 146 640 183 599 q 108 747 108 681 q 143 858 108 808 q 244 936 178 907 q 400 965 310 965 q 600 908 521 965 q 679 750 679 850 l 557 750 q 514 842 553 807 q 400 876 475 876 q 276 846 319 876 q 232 756 232 815 q 251 699 232 722 q 316 653 269 675 q 453 601 363 632 q 667 495 599 554 q 735 339 735 436 q 685 201 735 261 q 544 113 636 142 m 190 339 q 216 260 190 296 q 290 202 242 224 q 401 181 338 181 q 552 226 496 181 q 608 339 608 272 q 549 452 608 407 q 396 497 490 497 q 246 451 301 497 q 190 339 190 406 z "},"¨":{"ha":401,"x_min":14,"x_max":388,"o":"m 14 936 q 36 990 14 968 q 89 1011 58 1011 q 142 990 121 1011 q 164 936 164 968 q 142 883 164 906 q 89 861 121 861 q 36 883 58 861 q 14 936 14 906 m 238 936 q 260 990 238 968 q 313 1011 282 1011 q 366 990 344 1011 q 388 936 388 968 q 366 883 388 906 q 313 861 344 861 q 260 883 282 861 q 238 936 238 906 z "},"©":{"ha":1097,"x_min":67,"x_max":1029,"o":"m 549 972 q 298 910 407 972 q 128 735 189 847 q 67 481 67 624 q 128 225 67 338 q 298 50 189 113 q 549 -12 407 -12 q 799 50 690 -12 q 969 225 908 113 q 1029 481 1029 338 q 969 735 1029 624 q 799 910 908 847 q 549 972 690 972 m 549 917 q 770 863 675 917 q 916 710 865 808 q 967 481 967 611 q 916 251 967 350 q 770 97 865 151 q 549 43 675 43 q 326 97 421 43 q 181 251 232 151 q 129 481 129 350 q 181 710 129 611 q 326 863 232 808 q 549 917 421 917 m 547 803 q 727 749 653 803 q 829 601 801 696 l 708 601 q 649 682 692 656 q 547 708 607 708 q 415 651 465 708 q 364 482 364 594 q 415 312 364 369 q 547 254 465 254 q 708 361 669 254 l 829 361 q 725 216 800 272 q 547 160 650 160 q 394 200 464 160 q 285 314 325 240 q 246 482 246 388 q 285 649 246 576 q 394 763 325 722 q 547 803 464 803 z "},"ª":{"ha":625,"x_min":46,"x_max":561,"o":"m 276 985 q 389 957 342 985 q 460 885 436 929 l 460 976 l 561 976 l 561 490 l 460 490 l 460 582 q 389 510 436 538 q 276 482 342 482 q 160 515 213 482 q 76 607 107 549 q 46 736 46 665 q 76 865 46 808 q 160 953 107 921 q 276 985 213 985 m 306 903 q 198 858 243 903 q 153 736 153 813 q 198 610 153 658 q 306 563 243 563 q 415 609 369 563 q 460 733 460 656 q 415 857 460 811 q 306 903 369 903 z "},"«":{"ha":640,"x_min":63,"x_max":571,"o":"m 196 167 l 63 410 l 196 653 l 319 653 l 182 410 l 319 167 l 196 167 m 446 167 l 314 410 l 446 653 l 571 653 l 433 410 l 571 167 l 446 167 z "},"¬":{"ha":1025,"x_min":63,"x_max":953,"o":"m 953 601 l 953 306 l 828 306 l 828 500 l 63 500 l 63 601 l 953 601 z "},"­":{"ha":815,"x_min":131,"x_max":685,"o":"m 685 563 l 685 454 l 131 454 l 131 563 l 685 563 z "},"®":{"ha":1097,"x_min":67,"x_max":1039,"o":"m 553 972 q 806 910 696 972 q 978 735 917 847 q 1039 481 1039 624 q 978 225 1039 338 q 806 50 917 113 q 553 -12 696 -12 q 299 50 410 -12 q 128 225 189 113 q 67 481 67 338 q 128 735 67 624 q 299 910 189 847 q 553 972 410 972 m 553 43 q 778 97 682 43 q 925 251 874 151 q 976 481 976 350 q 925 710 976 611 q 778 863 874 808 q 553 917 682 917 q 329 863 425 917 q 181 710 233 808 q 129 481 129 611 q 181 251 129 350 q 329 97 233 151 q 553 43 425 43 m 789 625 q 747 505 789 556 q 621 440 706 454 l 797 171 l 693 171 l 525 436 l 439 436 l 439 171 l 356 171 l 356 814 l 564 814 q 731 761 674 814 q 789 625 789 708 m 439 503 l 564 503 q 669 535 635 503 q 703 625 703 567 q 564 749 703 749 l 439 749 l 439 503 z "},"¯":{"ha":517,"x_min":14,"x_max":503,"o":"m 503 986 l 503 885 l 14 885 l 14 986 l 503 986 z "},"°":{"ha":572,"x_min":40,"x_max":532,"o":"m 286 972 q 412 942 356 972 q 500 856 468 911 q 532 726 532 800 q 499 599 532 654 q 408 513 465 543 q 279 482 350 482 q 107 549 174 482 q 40 726 40 615 q 72 856 40 800 q 160 942 104 911 q 286 972 217 972 m 283 896 q 183 851 224 896 q 142 726 142 807 q 181 603 142 646 q 281 560 221 560 q 385 603 342 560 q 429 726 429 647 q 387 851 429 806 q 283 896 344 896 z "},"±":{"ha":1033,"x_min":163,"x_max":871,"o":"m 576 521 l 576 292 l 871 292 l 871 181 l 163 181 l 163 292 l 457 292 l 457 521 l 163 521 l 163 632 l 457 632 l 457 865 l 576 865 l 576 632 l 871 632 l 871 521 l 576 521 z "},"²":{"ha":447,"x_min":33,"x_max":385,"o":"m 385 574 l 385 489 l 35 489 l 35 561 l 176 674 q 249 748 225 713 q 274 825 274 783 q 253 883 274 861 q 201 906 232 906 q 156 890 174 906 q 135 849 139 875 l 33 849 q 81 948 36 910 q 204 986 125 986 q 332 939 283 986 q 381 826 381 892 q 351 735 381 776 q 254 643 322 693 l 156 574 l 385 574 z "},"³":{"ha":457,"x_min":26,"x_max":406,"o":"m 218 986 q 310 967 267 986 q 378 915 353 949 q 404 843 404 882 q 380 773 404 801 q 317 732 356 744 l 317 729 q 381 688 356 717 q 406 618 406 660 q 352 522 406 561 q 214 482 299 482 q 81 520 129 482 q 26 626 32 558 l 125 626 q 153 576 131 593 q 213 560 176 560 q 275 578 251 560 q 299 631 299 597 q 274 681 299 663 q 211 699 250 699 l 153 699 l 153 768 l 210 768 q 272 785 249 768 q 296 835 296 803 q 274 886 296 867 q 213 906 251 906 q 131 856 149 906 l 32 856 q 90 950 38 914 q 218 986 143 986 z "},"´":{"ha":324,"x_min":14,"x_max":310,"o":"m 310 971 l 14 815 l 14 913 l 310 1088 l 310 971 z "},"µ":{"ha":879,"x_min":104,"x_max":775,"o":"m 775 763 l 775 0 l 649 0 l 649 122 q 546 22 611 56 q 400 -12 481 -12 q 229 46 299 -12 l 229 -361 l 104 -361 l 104 763 l 229 763 l 229 331 q 285 156 229 217 q 439 96 342 96 q 592 156 536 96 q 649 331 649 217 l 649 763 l 775 763 z "},"¶":{"ha":831,"x_min":51,"x_max":726,"o":"m 726 0 l 608 0 l 608 861 l 514 861 l 514 0 l 396 0 l 396 397 l 381 397 q 134 475 217 397 q 51 679 51 553 q 135 883 51 804 q 381 963 219 963 l 726 963 l 726 0 z "},"·":{"ha":319,"x_min":79,"x_max":240,"o":"m 79 476 q 103 535 79 511 q 160 558 126 558 q 217 535 193 558 q 240 476 240 511 q 217 419 240 443 q 160 396 193 396 q 103 419 126 396 q 79 476 79 443 z "},"¸":{"ha":369,"x_min":14,"x_max":356,"o":"m 175 -74 q 306 -112 256 -74 q 356 -215 356 -150 q 306 -321 356 -281 q 179 -361 257 -361 l 14 -361 l 14 -274 l 163 -274 q 240 -215 240 -274 q 163 -158 240 -158 l 86 -158 l 86 10 l 175 10 l 175 -74 z "},"¹":{"ha":267,"x_min":28,"x_max":200,"o":"m 28 901 l 28 978 l 200 978 l 200 489 l 99 489 l 99 901 l 28 901 z "},"º":{"ha":606,"x_min":46,"x_max":560,"o":"m 304 985 q 434 953 376 985 q 526 865 492 922 q 560 732 560 807 q 524 601 560 658 q 429 513 489 544 q 297 482 369 482 q 169 513 226 482 q 78 601 111 544 q 46 732 46 658 q 80 865 46 807 q 173 953 114 922 q 304 985 232 985 m 301 907 q 195 861 238 907 q 153 732 153 815 q 194 606 153 651 q 297 561 235 561 q 408 606 361 561 q 454 732 454 651 q 410 861 454 815 q 301 907 365 907 z "},"»":{"ha":640,"x_min":69,"x_max":578,"o":"m 207 410 l 69 653 l 193 653 l 326 410 l 193 167 l 69 167 l 207 410 m 457 410 l 321 653 l 444 653 l 578 410 l 444 167 l 321 167 l 457 410 z "},"¼":{"ha":888,"x_min":44,"x_max":829,"o":"m 44 901 l 44 978 l 217 978 l 217 489 l 115 489 l 115 901 l 44 901 m 719 963 l 190 0 l 74 0 l 603 963 l 719 963 m 829 96 l 763 96 l 763 0 l 661 0 l 661 96 l 410 96 l 410 154 l 628 492 l 763 492 l 763 164 l 829 164 l 829 96 m 664 401 l 514 164 l 664 164 l 664 401 z "},"½":{"ha":906,"x_min":44,"x_max":854,"o":"m 115 901 l 44 901 l 44 978 l 217 978 l 217 489 l 115 489 l 115 901 m 697 963 l 190 0 l 74 0 l 581 963 l 697 963 m 854 83 l 854 -1 l 504 -1 l 504 71 l 646 183 q 719 258 694 222 q 743 335 743 293 q 722 393 743 371 q 671 415 701 415 q 626 400 643 415 q 604 358 608 385 l 503 358 q 550 458 506 419 q 674 496 594 496 q 801 449 753 496 q 850 336 850 401 q 821 244 850 286 q 724 153 792 203 l 625 83 l 854 83 z "},"¾":{"ha":946,"x_min":36,"x_max":907,"o":"m 228 986 q 319 967 276 986 q 388 915 363 949 q 414 843 414 882 q 390 773 414 801 q 326 732 365 744 l 326 729 q 390 688 365 717 q 415 618 415 660 q 362 522 415 561 q 224 482 308 482 q 90 520 139 482 q 36 626 42 558 l 135 626 q 163 576 140 593 q 222 560 186 560 q 285 578 261 560 q 308 631 308 597 q 284 681 308 663 q 221 699 260 699 l 163 699 l 163 768 l 219 768 q 282 785 258 768 q 306 835 306 803 q 283 886 306 867 q 222 906 261 906 q 140 856 158 906 l 42 856 q 100 950 47 914 q 228 986 153 986 m 840 963 l 272 0 l 156 0 l 725 963 l 840 963 m 907 96 l 840 96 l 840 0 l 739 0 l 739 96 l 488 96 l 488 154 l 706 492 l 840 492 l 840 164 l 907 164 l 907 96 m 740 401 l 590 164 l 740 164 l 740 401 z "},"¿":{"ha":869,"x_min":126,"x_max":732,"o":"m 515 613 q 457 636 481 613 q 433 694 433 660 q 457 751 433 728 q 515 775 481 775 q 572 751 549 775 q 596 694 596 728 q 572 636 596 660 q 515 613 549 613 m 431 -267 q 209 -190 292 -267 q 126 18 126 -114 q 209 237 126 171 q 458 304 292 303 l 458 488 l 578 488 l 578 214 l 522 214 q 370 200 429 215 q 278 142 311 185 q 246 19 246 100 q 294 -112 246 -65 q 429 -160 343 -160 q 565 -115 515 -160 q 614 14 614 -69 l 732 14 q 694 -134 732 -71 q 588 -232 657 -197 q 431 -267 519 -267 z "},"À":{"ha":960,"x_min":61,"x_max":899,"o":"m 693 211 l 265 211 l 190 0 l 61 0 l 411 963 l 550 963 l 899 0 l 768 0 l 693 211 m 657 311 l 479 808 l 301 311 l 657 311 m 615 1113 l 615 1015 l 319 1171 l 319 1288 l 615 1113 z "},"Á":{"ha":960,"x_min":61,"x_max":899,"o":"m 693 211 l 265 211 l 190 0 l 61 0 l 411 963 l 550 963 l 899 0 l 768 0 l 693 211 m 657 311 l 479 808 l 301 311 l 657 311 m 615 1171 l 319 1015 l 319 1113 l 615 1288 l 615 1171 z "},"Â":{"ha":960,"x_min":61,"x_max":899,"o":"m 693 211 l 265 211 l 190 0 l 61 0 l 411 963 l 550 963 l 899 0 l 768 0 l 693 211 m 657 311 l 479 808 l 301 311 l 657 311 m 481 1149 l 289 1029 l 289 1136 l 481 1251 l 674 1136 l 674 1029 l 481 1149 z "},"Ã":{"ha":960,"x_min":61,"x_max":899,"o":"m 693 211 l 265 211 l 190 0 l 61 0 l 411 963 l 550 963 l 899 0 l 768 0 l 693 211 m 657 311 l 479 808 l 301 311 l 657 311 m 418 1188 q 463 1179 444 1188 q 506 1154 482 1171 q 539 1133 525 1140 q 571 1126 553 1126 q 610 1141 594 1126 q 629 1185 626 1156 l 708 1185 q 660 1077 699 1115 q 564 1039 621 1039 q 519 1048 538 1039 q 476 1074 501 1057 q 441 1094 454 1088 q 410 1101 428 1101 q 371 1086 388 1101 q 351 1043 354 1071 l 272 1043 q 321 1150 282 1113 q 418 1188 360 1188 z "},"Ä":{"ha":960,"x_min":61,"x_max":899,"o":"m 693 211 l 265 211 l 190 0 l 61 0 l 411 963 l 550 963 l 899 0 l 768 0 l 693 211 m 657 311 l 479 808 l 301 311 l 657 311 m 293 1136 q 315 1190 293 1168 q 368 1211 338 1211 q 422 1190 400 1211 q 443 1136 443 1168 q 422 1083 443 1106 q 368 1061 400 1061 q 315 1083 338 1061 q 293 1136 293 1106 m 517 1136 q 539 1190 517 1168 q 592 1211 561 1211 q 645 1190 624 1211 q 667 1136 667 1168 q 645 1083 667 1106 q 592 1061 624 1061 q 539 1083 561 1061 q 517 1136 517 1106 z "},"Å":{"ha":960,"x_min":61,"x_max":899,"o":"m 693 211 l 265 211 l 190 0 l 61 0 l 411 963 l 550 963 l 899 0 l 768 0 l 693 211 m 657 311 l 479 808 l 301 311 l 657 311 m 481 1335 q 585 1295 543 1335 q 626 1189 626 1256 q 585 1084 626 1124 q 481 1044 543 1044 q 378 1084 419 1044 q 336 1189 336 1124 q 378 1294 336 1254 q 481 1335 419 1335 m 481 1263 q 429 1242 450 1263 q 408 1190 408 1222 q 429 1138 408 1158 q 481 1117 450 1117 q 533 1138 513 1117 q 554 1190 554 1158 q 533 1242 554 1222 q 481 1263 513 1263 z "},"Æ":{"ha":1244,"x_min":18,"x_max":1157,"o":"m 774 863 l 774 535 l 1115 535 l 1115 436 l 774 436 l 774 100 l 1157 100 l 1157 0 l 647 0 l 647 211 l 275 211 l 156 0 l 18 0 l 567 963 l 1157 963 l 1157 863 l 774 863 m 647 311 l 647 871 l 331 311 l 647 311 z "},"Ç":{"ha":1079,"x_min":54,"x_max":985,"o":"m 544 103 q 715 145 640 103 q 832 267 790 188 l 985 267 q 828 73 932 143 q 588 -7 724 3 l 588 -74 q 718 -112 668 -74 q 768 -215 768 -150 q 719 -321 768 -281 q 592 -361 669 -361 l 426 -361 l 426 -274 l 575 -274 q 653 -215 653 -274 q 575 -158 653 -158 l 499 -158 l 499 -7 q 272 69 374 4 q 113 242 171 135 q 54 482 54 350 q 119 735 54 624 q 297 910 185 847 q 544 972 410 972 q 812 901 694 972 q 985 697 929 831 l 832 697 q 715 818 790 776 q 544 860 640 860 q 359 813 442 860 q 230 681 276 767 q 183 482 183 594 q 230 283 183 369 q 359 150 276 197 q 544 103 442 103 z "},"È":{"ha":701,"x_min":104,"x_max":614,"o":"m 231 863 l 231 535 l 572 535 l 572 436 l 231 436 l 231 100 l 614 100 l 614 0 l 104 0 l 104 963 l 614 963 l 614 863 l 231 863 m 486 1113 l 486 1015 l 190 1171 l 190 1288 l 486 1113 z "},"É":{"ha":701,"x_min":104,"x_max":614,"o":"m 231 863 l 231 535 l 572 535 l 572 436 l 231 436 l 231 100 l 614 100 l 614 0 l 104 0 l 104 963 l 614 963 l 614 863 l 231 863 m 486 1171 l 190 1015 l 190 1113 l 486 1288 l 486 1171 z "},"Ê":{"ha":701,"x_min":104,"x_max":614,"o":"m 231 863 l 231 535 l 572 535 l 572 436 l 231 436 l 231 100 l 614 100 l 614 0 l 104 0 l 104 963 l 614 963 l 614 863 l 231 863 m 350 1149 l 158 1029 l 158 1136 l 350 1251 l 543 1136 l 543 1029 l 350 1149 z "},"Ë":{"ha":701,"x_min":104,"x_max":614,"o":"m 231 863 l 231 535 l 572 535 l 572 436 l 231 436 l 231 100 l 614 100 l 614 0 l 104 0 l 104 963 l 614 963 l 614 863 l 231 863 m 164 1136 q 186 1190 164 1168 q 239 1211 208 1211 q 292 1190 271 1211 q 314 1136 314 1168 q 292 1083 314 1106 q 239 1061 271 1061 q 186 1083 208 1061 q 164 1136 164 1106 m 388 1136 q 410 1190 388 1168 q 463 1211 432 1211 q 516 1190 494 1211 q 538 1136 538 1168 q 516 1083 538 1106 q 463 1061 494 1061 q 410 1083 432 1061 q 388 1136 388 1106 z "},"Ì":{"ha":335,"x_min":7,"x_max":303,"o":"m 231 963 l 231 0 l 104 0 l 104 963 l 231 963 m 303 1113 l 303 1015 l 7 1171 l 7 1288 l 303 1113 z "},"Í":{"ha":335,"x_min":7,"x_max":303,"o":"m 231 963 l 231 0 l 104 0 l 104 963 l 231 963 m 303 1171 l 7 1015 l 7 1113 l 303 1288 l 303 1171 z "},"Î":{"ha":335,"x_min":-25,"x_max":360,"o":"m 231 963 l 231 0 l 104 0 l 104 963 l 231 963 m 167 1149 l -25 1029 l -25 1136 l 167 1251 l 360 1136 l 360 1029 l 167 1149 z "},"Ï":{"ha":335,"x_min":-19,"x_max":354,"o":"m 231 963 l 231 0 l 104 0 l 104 963 l 231 963 m -19 1136 q 3 1190 -19 1168 q 56 1211 25 1211 q 109 1190 88 1211 q 131 1136 131 1168 q 109 1083 131 1106 q 56 1061 88 1061 q 3 1083 25 1061 q -19 1136 -19 1106 m 204 1136 q 226 1190 204 1168 q 279 1211 249 1211 q 333 1190 311 1211 q 354 1136 354 1168 q 333 1083 354 1106 q 279 1061 311 1061 q 226 1083 249 1061 q 204 1136 204 1106 z "},"Ð":{"ha":989,"x_min":6,"x_max":933,"o":"m 431 963 q 698 903 585 963 q 872 735 811 844 q 933 476 933 626 q 872 220 933 328 q 698 56 811 113 q 431 0 585 0 l 126 0 l 126 419 l 6 419 l 6 533 l 126 533 l 126 963 l 431 963 m 431 97 q 708 197 611 97 q 804 476 804 297 q 708 756 804 656 q 431 856 611 856 l 253 856 l 253 533 l 519 533 l 519 419 l 253 419 l 253 97 l 431 97 z "},"Ñ":{"ha":969,"x_min":104,"x_max":865,"o":"m 865 0 l 739 0 l 231 764 l 231 0 l 104 0 l 104 963 l 231 963 l 739 199 l 739 963 l 865 963 l 865 0 m 424 1188 q 469 1179 450 1188 q 511 1154 488 1171 q 544 1133 531 1140 q 576 1126 558 1126 q 616 1141 600 1126 q 635 1185 632 1156 l 714 1185 q 665 1077 704 1115 q 569 1039 626 1039 q 525 1048 543 1039 q 482 1074 507 1057 q 447 1094 460 1088 q 415 1101 433 1101 q 376 1086 393 1101 q 357 1043 360 1071 l 278 1043 q 326 1150 288 1113 q 424 1188 365 1188 z "},"Ò":{"ha":1086,"x_min":54,"x_max":1033,"o":"m 544 972 q 791 910 679 972 q 968 735 903 847 q 1033 482 1033 624 q 968 229 1033 342 q 791 53 903 117 q 544 -10 679 -10 q 297 53 410 -10 q 119 229 185 117 q 54 482 54 342 q 119 735 54 624 q 297 910 185 847 q 544 972 410 972 m 544 860 q 359 813 442 860 q 229 681 276 767 q 182 482 182 594 q 229 283 182 369 q 359 150 276 197 q 544 103 442 103 q 729 150 647 103 q 858 283 811 197 q 904 482 904 369 q 858 681 904 594 q 729 813 811 767 q 544 860 647 860 m 679 1113 l 679 1015 l 383 1171 l 383 1288 l 679 1113 z "},"Ó":{"ha":1086,"x_min":54,"x_max":1033,"o":"m 544 972 q 791 910 679 972 q 968 735 903 847 q 1033 482 1033 624 q 968 229 1033 342 q 791 53 903 117 q 544 -10 679 -10 q 297 53 410 -10 q 119 229 185 117 q 54 482 54 342 q 119 735 54 624 q 297 910 185 847 q 544 972 410 972 m 544 860 q 359 813 442 860 q 229 681 276 767 q 182 482 182 594 q 229 283 182 369 q 359 150 276 197 q 544 103 442 103 q 729 150 647 103 q 858 283 811 197 q 904 482 904 369 q 858 681 904 594 q 729 813 811 767 q 544 860 647 860 m 679 1171 l 383 1015 l 383 1113 l 679 1288 l 679 1171 z "},"Ô":{"ha":1086,"x_min":54,"x_max":1033,"o":"m 544 972 q 791 910 679 972 q 968 735 903 847 q 1033 482 1033 624 q 968 229 1033 342 q 791 53 903 117 q 544 -10 679 -10 q 297 53 410 -10 q 119 229 185 117 q 54 482 54 342 q 119 735 54 624 q 297 910 185 847 q 544 972 410 972 m 544 860 q 359 813 442 860 q 229 681 276 767 q 182 482 182 594 q 229 283 182 369 q 359 150 276 197 q 544 103 442 103 q 729 150 647 103 q 858 283 811 197 q 904 482 904 369 q 858 681 904 594 q 729 813 811 767 q 544 860 647 860 m 543 1149 l 351 1029 l 351 1136 l 543 1251 l 736 1136 l 736 1029 l 543 1149 z "},"Õ":{"ha":1086,"x_min":54,"x_max":1033,"o":"m 544 972 q 791 910 679 972 q 968 735 903 847 q 1033 482 1033 624 q 968 229 1033 342 q 791 53 903 117 q 544 -10 679 -10 q 297 53 410 -10 q 119 229 185 117 q 54 482 54 342 q 119 735 54 624 q 297 910 185 847 q 544 972 410 972 m 544 860 q 359 813 442 860 q 229 681 276 767 q 182 482 182 594 q 229 283 182 369 q 359 150 276 197 q 544 103 442 103 q 729 150 647 103 q 858 283 811 197 q 904 482 904 369 q 858 681 904 594 q 729 813 811 767 q 544 860 647 860 m 482 1188 q 527 1179 508 1188 q 569 1154 546 1171 q 603 1133 589 1140 q 635 1126 617 1126 q 674 1141 658 1126 q 693 1185 690 1156 l 772 1185 q 724 1077 763 1115 q 628 1039 685 1039 q 583 1048 601 1039 q 540 1074 565 1057 q 505 1094 518 1088 q 474 1101 492 1101 q 435 1086 451 1101 q 415 1043 418 1071 l 336 1043 q 385 1150 346 1113 q 482 1188 424 1188 z "},"Ö":{"ha":1086,"x_min":54,"x_max":1033,"o":"m 544 972 q 791 910 679 972 q 968 735 903 847 q 1033 482 1033 624 q 968 229 1033 342 q 791 53 903 117 q 544 -10 679 -10 q 297 53 410 -10 q 119 229 185 117 q 54 482 54 342 q 119 735 54 624 q 297 910 185 847 q 544 972 410 972 m 544 860 q 359 813 442 860 q 229 681 276 767 q 182 482 182 594 q 229 283 182 369 q 359 150 276 197 q 544 103 442 103 q 729 150 647 103 q 858 283 811 197 q 904 482 904 369 q 858 681 904 594 q 729 813 811 767 q 544 860 647 860 m 357 1136 q 379 1190 357 1168 q 432 1211 401 1211 q 485 1190 464 1211 q 507 1136 507 1168 q 485 1083 507 1106 q 432 1061 464 1061 q 379 1083 401 1061 q 357 1136 357 1106 m 581 1136 q 603 1190 581 1168 q 656 1211 625 1211 q 709 1190 688 1211 q 731 1136 731 1168 q 709 1083 731 1106 q 656 1061 688 1061 q 603 1083 625 1061 q 581 1136 581 1106 z "},"×":{"ha":999,"x_min":199,"x_max":799,"o":"m 581 508 l 799 289 l 719 210 l 501 429 l 281 210 l 199 293 l 418 511 l 203 728 l 282 807 l 497 590 l 715 807 l 799 725 l 581 508 z "},"Ø":{"ha":1086,"x_min":39,"x_max":1050,"o":"m 913 814 q 1001 664 969 749 q 1033 482 1033 579 q 968 229 1033 342 q 791 53 903 117 q 544 -10 679 -10 q 382 16 458 -10 q 242 90 306 42 l 158 0 l 39 0 l 178 149 q 86 299 118 214 q 54 482 54 385 q 119 735 54 624 q 297 910 185 847 q 544 972 410 972 q 706 947 629 972 q 847 874 783 921 l 931 963 l 1050 963 l 913 814 m 182 482 q 258 238 182 336 l 768 788 q 544 860 672 860 q 359 813 442 860 q 229 681 276 767 q 182 482 182 594 m 904 482 q 829 725 904 624 l 321 175 q 544 103 414 103 q 729 150 647 103 q 858 283 811 197 q 904 482 904 369 z "},"Ù":{"ha":935,"x_min":103,"x_max":833,"o":"m 231 963 l 231 338 q 294 159 231 218 q 468 100 357 100 q 643 159 579 100 q 707 338 707 218 l 707 963 l 833 963 l 833 338 q 785 145 833 224 q 653 28 736 67 q 468 -10 569 -10 q 283 28 365 -10 q 151 145 200 67 q 103 338 103 224 l 103 963 l 231 963 m 603 1113 l 603 1015 l 307 1171 l 307 1288 l 603 1113 z "},"Ú":{"ha":935,"x_min":103,"x_max":833,"o":"m 231 963 l 231 338 q 294 159 231 218 q 468 100 357 100 q 643 159 579 100 q 707 338 707 218 l 707 963 l 833 963 l 833 338 q 785 145 833 224 q 653 28 736 67 q 468 -10 569 -10 q 283 28 365 -10 q 151 145 200 67 q 103 338 103 224 l 103 963 l 231 963 m 603 1171 l 307 1015 l 307 1113 l 603 1288 l 603 1171 z "},"Û":{"ha":935,"x_min":103,"x_max":833,"o":"m 231 963 l 231 338 q 294 159 231 218 q 468 100 357 100 q 643 159 579 100 q 707 338 707 218 l 707 963 l 833 963 l 833 338 q 785 145 833 224 q 653 28 736 67 q 468 -10 569 -10 q 283 28 365 -10 q 151 145 200 67 q 103 338 103 224 l 103 963 l 231 963 m 467 1149 l 275 1029 l 275 1136 l 467 1251 l 660 1136 l 660 1029 l 467 1149 z "},"Ü":{"ha":935,"x_min":103,"x_max":833,"o":"m 231 963 l 231 338 q 294 159 231 218 q 468 100 357 100 q 643 159 579 100 q 707 338 707 218 l 707 963 l 833 963 l 833 338 q 785 145 833 224 q 653 28 736 67 q 468 -10 569 -10 q 283 28 365 -10 q 151 145 200 67 q 103 338 103 224 l 103 963 l 231 963 m 281 1136 q 303 1190 281 1168 q 356 1211 325 1211 q 409 1190 388 1211 q 431 1136 431 1168 q 409 1083 431 1106 q 356 1061 388 1061 q 303 1083 325 1061 q 281 1136 281 1106 m 504 1136 q 526 1190 504 1168 q 579 1211 549 1211 q 633 1190 611 1211 q 654 1136 654 1168 q 633 1083 654 1106 q 579 1061 611 1061 q 526 1083 549 1061 q 504 1136 504 1106 z "},"Ý":{"ha":794,"x_min":21,"x_max":774,"o":"m 774 963 l 461 364 l 461 0 l 335 0 l 335 364 l 21 963 l 160 963 l 397 481 l 633 963 l 774 963 m 533 1171 l 238 1015 l 238 1113 l 533 1288 l 533 1171 z "},"Þ":{"ha":803,"x_min":104,"x_max":750,"o":"m 231 200 l 231 0 l 104 0 l 104 963 l 229 963 l 229 764 l 417 764 q 665 685 579 764 q 750 481 750 607 q 667 280 750 360 q 417 200 585 200 l 231 200 m 417 300 q 572 348 521 300 q 622 481 622 396 q 572 616 622 568 q 417 664 522 664 l 231 664 l 231 300 l 417 300 z "},"ß":{"ha":910,"x_min":104,"x_max":869,"o":"m 686 519 q 827 395 785 458 q 869 243 869 332 q 831 107 869 165 q 729 18 792 49 q 597 -12 667 -12 q 469 15 529 -12 q 373 97 410 43 q 336 225 336 151 l 447 225 q 490 133 451 167 q 594 99 528 99 q 702 141 664 99 q 740 243 740 183 q 713 331 740 292 q 622 410 685 371 l 403 550 l 403 617 l 449 640 q 536 783 536 686 q 494 890 536 847 q 388 933 451 933 q 276 889 321 933 q 231 772 231 844 l 231 0 l 104 0 l 104 768 q 141 913 104 851 q 242 1008 178 975 q 390 1042 307 1042 q 542 1008 479 1042 q 635 921 604 975 q 665 806 665 867 q 539 613 665 679 l 686 519 z "},"à":{"ha":931,"x_min":54,"x_max":826,"o":"m 418 775 q 588 729 515 775 q 699 610 661 683 l 699 763 l 826 763 l 826 0 l 699 0 l 699 156 q 588 34 661 81 q 418 -12 515 -12 q 233 38 315 -12 q 102 180 150 89 q 54 386 54 271 q 102 590 54 501 q 233 726 150 678 q 418 775 315 775 m 440 665 q 313 632 372 665 q 219 535 254 599 q 183 386 183 472 q 219 234 183 300 q 313 132 254 168 q 440 96 372 96 q 569 131 510 96 q 663 230 628 165 q 699 381 699 294 q 663 531 699 467 q 569 631 628 596 q 440 665 510 665 m 600 913 l 600 815 l 304 971 l 304 1088 l 600 913 z "},"á":{"ha":931,"x_min":54,"x_max":826,"o":"m 418 775 q 588 729 515 775 q 699 610 661 683 l 699 763 l 826 763 l 826 0 l 699 0 l 699 156 q 588 34 661 81 q 418 -12 515 -12 q 233 38 315 -12 q 102 180 150 89 q 54 386 54 271 q 102 590 54 501 q 233 726 150 678 q 418 775 315 775 m 440 665 q 313 632 372 665 q 219 535 254 599 q 183 386 183 472 q 219 234 183 300 q 313 132 254 168 q 440 96 372 96 q 569 131 510 96 q 663 230 628 165 q 699 381 699 294 q 663 531 699 467 q 569 631 628 596 q 440 665 510 665 m 600 971 l 304 815 l 304 913 l 600 1088 l 600 971 z "},"â":{"ha":931,"x_min":54,"x_max":826,"o":"m 418 775 q 588 729 515 775 q 699 610 661 683 l 699 763 l 826 763 l 826 0 l 699 0 l 699 156 q 588 34 661 81 q 418 -12 515 -12 q 233 38 315 -12 q 102 180 150 89 q 54 386 54 271 q 102 590 54 501 q 233 726 150 678 q 418 775 315 775 m 440 665 q 313 632 372 665 q 219 535 254 599 q 183 386 183 472 q 219 234 183 300 q 313 132 254 168 q 440 96 372 96 q 569 131 510 96 q 663 230 628 165 q 699 381 699 294 q 663 531 699 467 q 569 631 628 596 q 440 665 510 665 m 464 949 l 272 829 l 272 936 l 464 1051 l 657 936 l 657 829 l 464 949 z "},"ã":{"ha":931,"x_min":54,"x_max":826,"o":"m 418 775 q 588 729 515 775 q 699 610 661 683 l 699 763 l 826 763 l 826 0 l 699 0 l 699 156 q 588 34 661 81 q 418 -12 515 -12 q 233 38 315 -12 q 102 180 150 89 q 54 386 54 271 q 102 590 54 501 q 233 726 150 678 q 418 775 315 775 m 440 665 q 313 632 372 665 q 219 535 254 599 q 183 386 183 472 q 219 234 183 300 q 313 132 254 168 q 440 96 372 96 q 569 131 510 96 q 663 230 628 165 q 699 381 699 294 q 663 531 699 467 q 569 631 628 596 q 440 665 510 665 m 403 988 q 448 979 429 988 q 490 954 467 971 q 524 933 510 940 q 556 926 538 926 q 595 941 579 926 q 614 985 611 956 l 693 985 q 644 877 683 915 q 549 839 606 839 q 504 848 522 839 q 461 874 486 857 q 426 894 439 888 q 394 901 413 901 q 356 886 372 901 q 336 843 339 871 l 257 843 q 306 950 267 913 q 403 988 344 988 z "},"ä":{"ha":931,"x_min":54,"x_max":826,"o":"m 418 775 q 588 729 515 775 q 699 610 661 683 l 699 763 l 826 763 l 826 0 l 699 0 l 699 156 q 588 34 661 81 q 418 -12 515 -12 q 233 38 315 -12 q 102 180 150 89 q 54 386 54 271 q 102 590 54 501 q 233 726 150 678 q 418 775 315 775 m 440 665 q 313 632 372 665 q 219 535 254 599 q 183 386 183 472 q 219 234 183 300 q 313 132 254 168 q 440 96 372 96 q 569 131 510 96 q 663 230 628 165 q 699 381 699 294 q 663 531 699 467 q 569 631 628 596 q 440 665 510 665 m 278 936 q 300 990 278 968 q 353 1011 322 1011 q 406 990 385 1011 q 428 936 428 968 q 406 883 428 906 q 353 861 385 861 q 300 883 322 861 q 278 936 278 906 m 501 936 q 524 990 501 968 q 576 1011 546 1011 q 630 990 608 1011 q 651 936 651 968 q 630 883 651 906 q 576 861 608 861 q 524 883 546 861 q 501 936 501 906 z "},"å":{"ha":931,"x_min":54,"x_max":826,"o":"m 418 775 q 588 729 515 775 q 699 610 661 683 l 699 763 l 826 763 l 826 0 l 699 0 l 699 156 q 588 34 661 81 q 418 -12 515 -12 q 233 38 315 -12 q 102 180 150 89 q 54 386 54 271 q 102 590 54 501 q 233 726 150 678 q 418 775 315 775 m 440 665 q 313 632 372 665 q 219 535 254 599 q 183 386 183 472 q 219 234 183 300 q 313 132 254 168 q 440 96 372 96 q 569 131 510 96 q 663 230 628 165 q 699 381 699 294 q 663 531 699 467 q 569 631 628 596 q 440 665 510 665 m 464 1135 q 568 1095 526 1135 q 610 989 610 1056 q 568 884 610 924 q 464 844 526 844 q 361 884 403 844 q 319 989 319 924 q 361 1094 319 1054 q 464 1135 403 1135 m 464 1063 q 413 1042 433 1063 q 392 990 392 1022 q 413 938 392 958 q 464 917 433 917 q 517 938 496 917 q 538 990 538 958 q 517 1042 538 1022 q 464 1063 496 1063 z "},"æ":{"ha":1506,"x_min":54,"x_max":1453,"o":"m 1453 413 q 1447 338 1453 372 l 831 338 q 874 207 838 263 q 966 122 911 151 q 1083 92 1021 92 q 1215 126 1163 92 q 1290 218 1267 161 l 1426 218 q 1305 52 1390 117 q 1090 -12 1219 -12 q 935 26 1006 -12 q 822 129 864 64 l 822 0 l 696 0 l 696 131 q 580 26 653 65 q 418 -12 507 -12 q 233 38 315 -12 q 102 180 150 89 q 54 386 54 271 q 102 590 54 501 q 235 727 150 679 q 429 775 321 775 q 696 639 610 775 l 696 763 l 822 763 l 822 639 q 941 744 875 713 q 1096 775 1007 775 q 1281 728 1200 775 q 1408 598 1363 681 q 1453 413 1453 515 m 1322 429 q 1255 606 1321 540 q 1085 671 1189 671 q 966 641 1021 671 q 875 556 911 611 q 831 429 839 501 l 1322 429 m 440 96 q 569 131 510 96 q 663 230 628 165 q 699 381 699 294 q 663 531 699 467 q 569 631 628 596 q 440 665 510 665 q 313 632 372 665 q 219 535 254 599 q 183 386 183 472 q 219 234 183 300 q 313 132 254 168 q 440 96 372 96 z "},"ç":{"ha":833,"x_min":54,"x_max":769,"o":"m 424 92 q 557 128 504 92 q 633 233 610 164 l 769 233 q 660 64 736 129 q 465 -11 583 -1 l 465 -74 q 596 -112 546 -74 q 646 -215 646 -150 q 597 -321 646 -281 q 469 -361 547 -361 l 304 -361 l 304 -274 l 453 -274 q 531 -215 531 -274 q 453 -158 531 -158 l 376 -158 l 376 -10 q 208 51 281 0 q 94 188 135 103 q 54 381 54 272 q 101 588 54 499 q 232 726 149 678 q 424 775 315 775 q 648 711 561 775 q 769 529 735 647 l 633 529 q 557 633 611 596 q 424 671 503 671 q 249 595 315 671 q 183 381 183 519 q 249 167 183 243 q 424 92 315 92 z "},"è":{"ha":849,"x_min":54,"x_max":796,"o":"m 796 413 q 790 338 796 372 l 183 338 q 255 158 189 224 q 424 92 321 92 q 555 126 501 92 q 633 218 608 161 l 769 218 q 645 53 733 118 q 424 -12 557 -12 q 233 36 317 -12 q 101 174 149 85 q 54 381 54 264 q 101 588 54 499 q 235 726 149 678 q 433 775 321 775 q 622 728 540 775 q 750 599 704 681 q 796 413 796 517 m 664 429 q 632 558 664 503 q 545 642 600 613 q 424 671 490 671 q 258 606 325 671 q 185 429 192 542 l 664 429 m 560 913 l 560 815 l 264 971 l 264 1088 l 560 913 z "},"é":{"ha":849,"x_min":54,"x_max":796,"o":"m 796 413 q 790 338 796 372 l 183 338 q 255 158 189 224 q 424 92 321 92 q 555 126 501 92 q 633 218 608 161 l 769 218 q 645 53 733 118 q 424 -12 557 -12 q 233 36 317 -12 q 101 174 149 85 q 54 381 54 264 q 101 588 54 499 q 235 726 149 678 q 433 775 321 775 q 622 728 540 775 q 750 599 704 681 q 796 413 796 517 m 664 429 q 632 558 664 503 q 545 642 600 613 q 424 671 490 671 q 258 606 325 671 q 185 429 192 542 l 664 429 m 560 971 l 264 815 l 264 913 l 560 1088 l 560 971 z "},"ê":{"ha":849,"x_min":54,"x_max":796,"o":"m 796 413 q 790 338 796 372 l 183 338 q 255 158 189 224 q 424 92 321 92 q 555 126 501 92 q 633 218 608 161 l 769 218 q 645 53 733 118 q 424 -12 557 -12 q 233 36 317 -12 q 101 174 149 85 q 54 381 54 264 q 101 588 54 499 q 235 726 149 678 q 433 775 321 775 q 622 728 540 775 q 750 599 704 681 q 796 413 796 517 m 664 429 q 632 558 664 503 q 545 642 600 613 q 424 671 490 671 q 258 606 325 671 q 185 429 192 542 l 664 429 m 424 949 l 232 829 l 232 936 l 424 1051 l 617 936 l 617 829 l 424 949 z "},"ë":{"ha":849,"x_min":54,"x_max":796,"o":"m 796 413 q 790 338 796 372 l 183 338 q 255 158 189 224 q 424 92 321 92 q 555 126 501 92 q 633 218 608 161 l 769 218 q 645 53 733 118 q 424 -12 557 -12 q 233 36 317 -12 q 101 174 149 85 q 54 381 54 264 q 101 588 54 499 q 235 726 149 678 q 433 775 321 775 q 622 728 540 775 q 750 599 704 681 q 796 413 796 517 m 664 429 q 632 558 664 503 q 545 642 600 613 q 424 671 490 671 q 258 606 325 671 q 185 429 192 542 l 664 429 m 238 936 q 260 990 238 968 q 313 1011 282 1011 q 366 990 344 1011 q 388 936 388 968 q 366 883 388 906 q 313 861 344 861 q 260 883 282 861 q 238 936 238 906 m 461 936 q 483 990 461 968 q 536 1011 506 1011 q 590 990 568 1011 q 611 936 611 968 q 590 883 611 906 q 536 861 568 861 q 483 883 506 861 q 461 936 461 906 z "},"ì":{"ha":335,"x_min":7,"x_max":303,"o":"m 231 763 l 231 0 l 104 0 l 104 763 l 231 763 m 303 913 l 303 815 l 7 971 l 7 1088 l 303 913 z "},"í":{"ha":335,"x_min":7,"x_max":303,"o":"m 231 763 l 231 0 l 104 0 l 104 763 l 231 763 m 303 971 l 7 815 l 7 913 l 303 1088 l 303 971 z "},"î":{"ha":335,"x_min":-25,"x_max":360,"o":"m 231 763 l 231 0 l 104 0 l 104 763 l 231 763 m 167 949 l -25 829 l -25 936 l 167 1051 l 360 936 l 360 829 l 167 949 z "},"ï":{"ha":335,"x_min":-19,"x_max":354,"o":"m 231 763 l 231 0 l 104 0 l 104 763 l 231 763 m -19 936 q 3 990 -19 968 q 56 1011 25 1011 q 109 990 88 1011 q 131 936 131 968 q 109 883 131 906 q 56 861 88 861 q 3 883 25 861 q -19 936 -19 906 m 204 936 q 226 990 204 968 q 279 1011 249 1011 q 333 990 311 1011 q 354 936 354 968 q 333 883 354 906 q 279 861 311 861 q 226 883 249 861 q 204 936 204 906 z "},"ð":{"ha":875,"x_min":54,"x_max":821,"o":"m 639 910 q 821 440 821 703 q 771 191 821 293 q 632 38 721 89 q 428 -12 543 -12 q 235 36 321 -12 q 102 174 150 85 q 54 381 54 264 q 104 588 54 499 q 241 726 154 678 q 435 775 328 775 q 563 752 507 775 q 669 681 618 729 q 542 876 628 782 l 364 817 l 364 899 l 481 938 q 376 1028 446 971 l 515 1028 q 579 971 553 997 l 768 1035 l 768 953 l 639 910 m 428 92 q 558 126 497 92 q 655 225 618 160 q 692 381 692 290 q 656 538 692 472 q 563 638 621 604 q 435 671 504 671 q 308 638 365 671 q 216 538 250 604 q 182 381 182 472 q 215 224 182 289 q 303 125 247 158 q 428 92 360 92 z "},"ñ":{"ha":872,"x_min":104,"x_max":775,"o":"m 479 775 q 628 738 561 775 q 735 628 696 701 q 775 451 775 556 l 775 0 l 650 0 l 650 431 q 594 606 650 546 q 440 665 539 665 q 287 606 343 665 q 231 431 231 546 l 231 0 l 104 0 l 104 763 l 231 763 l 231 639 q 333 740 268 706 q 479 775 399 775 m 382 988 q 427 979 408 988 q 469 954 446 971 q 503 933 489 940 q 535 926 517 926 q 574 941 558 926 q 593 985 590 956 l 672 985 q 624 877 663 915 q 528 839 585 839 q 483 848 501 839 q 440 874 465 857 q 405 894 418 888 q 374 901 392 901 q 335 886 351 901 q 315 843 318 871 l 236 843 q 285 950 246 913 q 382 988 324 988 z "},"ò":{"ha":878,"x_min":54,"x_max":824,"o":"m 439 775 q 635 726 547 775 q 773 588 722 678 q 824 381 824 497 q 771 176 824 265 q 628 37 718 86 q 428 -12 538 -12 q 235 36 321 -12 q 102 174 150 85 q 54 381 54 264 q 105 588 54 499 q 243 726 156 678 q 439 775 331 775 m 435 671 q 308 638 365 671 q 217 539 251 604 q 183 381 183 474 q 216 224 183 289 q 304 125 249 158 q 428 92 360 92 q 558 126 497 92 q 656 225 618 160 q 693 381 693 290 q 658 538 693 472 q 563 638 622 604 q 435 671 504 671 m 574 913 l 574 815 l 278 971 l 278 1088 l 574 913 z "},"ó":{"ha":878,"x_min":54,"x_max":824,"o":"m 439 775 q 635 726 547 775 q 773 588 722 678 q 824 381 824 497 q 771 176 824 265 q 628 37 718 86 q 428 -12 538 -12 q 235 36 321 -12 q 102 174 150 85 q 54 381 54 264 q 105 588 54 499 q 243 726 156 678 q 439 775 331 775 m 435 671 q 308 638 365 671 q 217 539 251 604 q 183 381 183 474 q 216 224 183 289 q 304 125 249 158 q 428 92 360 92 q 558 126 497 92 q 656 225 618 160 q 693 381 693 290 q 658 538 693 472 q 563 638 622 604 q 435 671 504 671 m 574 971 l 278 815 l 278 913 l 574 1088 l 574 971 z "},"ô":{"ha":878,"x_min":54,"x_max":824,"o":"m 439 775 q 635 726 547 775 q 773 588 722 678 q 824 381 824 497 q 771 176 824 265 q 628 37 718 86 q 428 -12 538 -12 q 235 36 321 -12 q 102 174 150 85 q 54 381 54 264 q 105 588 54 499 q 243 726 156 678 q 439 775 331 775 m 435 671 q 308 638 365 671 q 217 539 251 604 q 183 381 183 474 q 216 224 183 289 q 304 125 249 158 q 428 92 360 92 q 558 126 497 92 q 656 225 618 160 q 693 381 693 290 q 658 538 693 472 q 563 638 622 604 q 435 671 504 671 m 439 949 l 247 829 l 247 936 l 439 1051 l 632 936 l 632 829 l 439 949 z "},"õ":{"ha":878,"x_min":54,"x_max":824,"o":"m 439 775 q 635 726 547 775 q 773 588 722 678 q 824 381 824 497 q 771 176 824 265 q 628 37 718 86 q 428 -12 538 -12 q 235 36 321 -12 q 102 174 150 85 q 54 381 54 264 q 105 588 54 499 q 243 726 156 678 q 439 775 331 775 m 435 671 q 308 638 365 671 q 217 539 251 604 q 183 381 183 474 q 216 224 183 289 q 304 125 249 158 q 428 92 360 92 q 558 126 497 92 q 656 225 618 160 q 693 381 693 290 q 658 538 693 472 q 563 638 622 604 q 435 671 504 671 m 376 988 q 422 979 403 988 q 464 954 440 971 q 497 933 483 940 q 529 926 511 926 q 569 941 553 926 q 588 985 585 956 l 667 985 q 618 877 657 915 q 522 839 579 839 q 478 848 496 839 q 435 874 460 857 q 399 894 413 888 q 368 901 386 901 q 329 886 346 901 q 310 843 313 871 l 231 843 q 279 950 240 913 q 376 988 318 988 z "},"ö":{"ha":878,"x_min":54,"x_max":824,"o":"m 439 775 q 635 726 547 775 q 773 588 722 678 q 824 381 824 497 q 771 176 824 265 q 628 37 718 86 q 428 -12 538 -12 q 235 36 321 -12 q 102 174 150 85 q 54 381 54 264 q 105 588 54 499 q 243 726 156 678 q 439 775 331 775 m 435 671 q 308 638 365 671 q 217 539 251 604 q 183 381 183 474 q 216 224 183 289 q 304 125 249 158 q 428 92 360 92 q 558 126 497 92 q 656 225 618 160 q 693 381 693 290 q 658 538 693 472 q 563 638 622 604 q 435 671 504 671 m 251 936 q 274 990 251 968 q 326 1011 296 1011 q 380 990 358 1011 q 401 936 401 968 q 380 883 401 906 q 326 861 358 861 q 274 883 296 861 q 251 936 251 906 m 475 936 q 497 990 475 968 q 550 1011 519 1011 q 603 990 582 1011 q 625 936 625 968 q 603 883 625 906 q 550 861 582 861 q 497 883 519 861 q 475 936 475 906 z "},"÷":{"ha":983,"x_min":153,"x_max":860,"o":"m 425 804 q 449 861 425 838 q 507 885 472 885 q 564 861 540 885 q 588 804 588 838 q 564 746 588 769 q 507 722 540 722 q 449 746 472 722 q 425 804 425 769 m 860 564 l 860 453 l 153 453 l 153 564 l 860 564 m 425 213 q 449 269 425 246 q 507 293 472 293 q 564 269 540 293 q 588 213 588 246 q 564 156 588 179 q 507 132 540 132 q 449 156 472 132 q 425 213 425 179 z "},"ø":{"ha":878,"x_min":40,"x_max":838,"o":"m 732 646 q 824 381 824 539 q 771 176 824 265 q 628 37 718 86 q 428 -12 538 -12 q 199 61 296 -12 l 143 0 l 40 0 l 143 114 q 77 233 100 165 q 54 381 54 301 q 105 588 54 499 q 243 726 156 678 q 439 775 331 775 q 676 699 574 775 l 735 763 l 838 763 l 732 646 m 183 381 q 226 204 183 275 l 599 613 q 435 671 531 671 q 308 638 365 671 q 217 539 251 604 q 183 381 183 474 m 693 381 q 649 554 693 483 l 275 146 q 428 92 338 92 q 558 126 497 92 q 656 225 618 160 q 693 381 693 290 z "},"ù":{"ha":872,"x_min":97,"x_max":768,"o":"m 768 763 l 768 0 l 642 0 l 642 122 q 539 22 604 56 q 393 -12 474 -12 q 244 24 311 -12 q 137 133 176 61 q 97 310 97 206 l 97 763 l 222 763 l 222 331 q 278 156 222 217 q 432 96 335 96 q 585 156 529 96 q 642 331 642 217 l 642 763 l 768 763 m 572 913 l 572 815 l 276 971 l 276 1088 l 572 913 z "},"ú":{"ha":872,"x_min":97,"x_max":768,"o":"m 768 763 l 768 0 l 642 0 l 642 122 q 539 22 604 56 q 393 -12 474 -12 q 244 24 311 -12 q 137 133 176 61 q 97 310 97 206 l 97 763 l 222 763 l 222 331 q 278 156 222 217 q 432 96 335 96 q 585 156 529 96 q 642 331 642 217 l 642 763 l 768 763 m 572 971 l 276 815 l 276 913 l 572 1088 l 572 971 z "},"û":{"ha":872,"x_min":97,"x_max":768,"o":"m 768 763 l 768 0 l 642 0 l 642 122 q 539 22 604 56 q 393 -12 474 -12 q 244 24 311 -12 q 137 133 176 61 q 97 310 97 206 l 97 763 l 222 763 l 222 331 q 278 156 222 217 q 432 96 335 96 q 585 156 529 96 q 642 331 642 217 l 642 763 l 768 763 m 436 949 l 244 829 l 244 936 l 436 1051 l 629 936 l 629 829 l 436 949 z "},"ü":{"ha":872,"x_min":97,"x_max":768,"o":"m 768 763 l 768 0 l 642 0 l 642 122 q 539 22 604 56 q 393 -12 474 -12 q 244 24 311 -12 q 137 133 176 61 q 97 310 97 206 l 97 763 l 222 763 l 222 331 q 278 156 222 217 q 432 96 335 96 q 585 156 529 96 q 642 331 642 217 l 642 763 l 768 763 m 250 936 q 272 990 250 968 q 325 1011 294 1011 q 378 990 357 1011 q 400 936 400 968 q 378 883 400 906 q 325 861 357 861 q 272 883 294 861 q 250 936 250 906 m 474 936 q 496 990 474 968 q 549 1011 518 1011 q 602 990 581 1011 q 624 936 624 968 q 602 883 624 906 q 549 861 581 861 q 496 883 518 861 q 474 936 474 906 z "},"ý":{"ha":774,"x_min":17,"x_max":757,"o":"m 156 763 l 389 146 l 626 763 l 757 763 l 297 -357 l 167 -357 l 318 13 l 17 763 l 156 763 m 524 971 l 228 815 l 228 913 l 524 1088 l 524 971 z "},"þ":{"ha":931,"x_min":104,"x_max":876,"o":"m 513 775 q 698 726 615 775 q 828 590 781 678 q 876 386 876 501 q 828 180 876 271 q 698 38 781 89 q 513 -12 615 -12 q 342 34 415 -12 q 231 156 269 81 l 231 -361 l 104 -361 l 104 1028 l 231 1028 l 231 610 q 342 729 269 683 q 513 775 415 775 m 488 665 q 360 631 419 665 q 266 531 301 596 q 231 381 231 467 q 266 230 231 294 q 360 131 301 165 q 488 96 419 96 q 615 131 556 96 q 710 233 675 167 q 746 386 746 300 q 710 535 746 472 q 616 632 675 599 q 488 665 557 665 z "},"ÿ":{"ha":774,"x_min":17,"x_max":757,"o":"m 156 763 l 389 146 l 626 763 l 757 763 l 297 -357 l 167 -357 l 318 13 l 17 763 l 156 763 m 201 936 q 224 990 201 968 q 276 1011 246 1011 q 330 990 308 1011 q 351 936 351 968 q 330 883 351 906 q 276 861 308 861 q 224 883 246 861 q 201 936 201 906 m 425 936 q 447 990 425 968 q 500 1011 469 1011 q 553 990 532 1011 q 575 936 575 968 q 553 883 575 906 q 500 861 532 861 q 447 883 469 861 q 425 936 425 906 z "},"Ā":{"ha":960,"x_min":61,"x_max":899,"o":"m 693 211 l 265 211 l 190 0 l 61 0 l 411 963 l 550 963 l 899 0 l 768 0 l 693 211 m 657 311 l 479 808 l 301 311 l 657 311 m 725 1186 l 725 1085 l 236 1085 l 236 1186 l 725 1186 z "},"ā":{"ha":931,"x_min":54,"x_max":826,"o":"m 418 775 q 588 729 515 775 q 699 610 661 683 l 699 763 l 826 763 l 826 0 l 699 0 l 699 156 q 588 34 661 81 q 418 -12 515 -12 q 233 38 315 -12 q 102 180 150 89 q 54 386 54 271 q 102 590 54 501 q 233 726 150 678 q 418 775 315 775 m 440 665 q 313 632 372 665 q 219 535 254 599 q 183 386 183 472 q 219 234 183 300 q 313 132 254 168 q 440 96 372 96 q 569 131 510 96 q 663 230 628 165 q 699 381 699 294 q 663 531 699 467 q 569 631 628 596 q 440 665 510 665 m 708 986 l 708 885 l 219 885 l 219 986 l 708 986 z "},"Ă":{"ha":960,"x_min":61,"x_max":899,"o":"m 693 211 l 265 211 l 190 0 l 61 0 l 411 963 l 550 963 l 899 0 l 768 0 l 693 211 m 657 311 l 479 808 l 301 311 l 657 311 m 481 1047 q 335 1098 388 1047 q 283 1228 283 1149 l 283 1253 l 363 1253 q 389 1176 363 1201 q 481 1150 415 1150 q 572 1176 546 1150 q 599 1253 599 1201 l 679 1253 l 679 1226 q 626 1097 679 1147 q 481 1047 574 1047 z "},"ă":{"ha":931,"x_min":54,"x_max":826,"o":"m 418 775 q 588 729 515 775 q 699 610 661 683 l 699 763 l 826 763 l 826 0 l 699 0 l 699 156 q 588 34 661 81 q 418 -12 515 -12 q 233 38 315 -12 q 102 180 150 89 q 54 386 54 271 q 102 590 54 501 q 233 726 150 678 q 418 775 315 775 m 440 665 q 313 632 372 665 q 219 535 254 599 q 183 386 183 472 q 219 234 183 300 q 313 132 254 168 q 440 96 372 96 q 569 131 510 96 q 663 230 628 165 q 699 381 699 294 q 663 531 699 467 q 569 631 628 596 q 440 665 510 665 m 464 847 q 319 898 371 847 q 267 1028 267 949 l 267 1053 l 346 1053 q 372 976 346 1001 q 464 950 399 950 q 556 976 529 950 q 582 1053 582 1001 l 663 1053 l 663 1026 q 610 897 663 947 q 464 847 557 847 z "},"Ą":{"ha":960,"x_min":61,"x_max":943,"o":"m 943 -193 l 943 -281 l 817 -281 q 691 -240 740 -281 q 642 -135 642 -200 q 675 -46 642 -81 q 769 0 708 -11 l 693 211 l 267 211 l 190 0 l 61 0 l 411 963 l 550 963 l 899 3 l 899 -78 l 833 -78 q 756 -135 756 -78 q 833 -193 756 -193 l 943 -193 m 657 311 l 479 807 l 301 311 l 657 311 z "},"ą":{"ha":931,"x_min":54,"x_max":871,"o":"m 871 -193 l 871 -281 l 744 -281 q 617 -241 667 -281 q 568 -135 568 -201 q 603 -44 568 -81 q 699 3 639 -8 l 699 156 q 588 34 661 81 q 418 -12 515 -12 q 233 38 315 -12 q 102 180 150 89 q 54 386 54 271 q 102 590 54 501 q 233 726 150 678 q 418 775 315 775 q 588 729 515 775 q 699 610 661 683 l 699 763 l 826 763 l 826 -78 l 761 -78 q 683 -135 683 -78 q 761 -193 683 -193 l 871 -193 m 440 96 q 569 131 510 96 q 663 230 628 165 q 699 381 699 294 q 663 531 699 467 q 569 631 628 596 q 440 665 510 665 q 313 632 372 665 q 219 535 254 599 q 183 386 183 472 q 219 234 183 300 q 313 132 254 168 q 440 96 372 96 z "},"Ć":{"ha":1079,"x_min":54,"x_max":985,"o":"m 544 972 q 812 901 694 972 q 985 697 929 831 l 832 697 q 715 818 790 776 q 544 860 640 860 q 359 813 442 860 q 230 681 276 767 q 183 482 183 594 q 230 283 183 369 q 359 150 276 197 q 544 103 442 103 q 715 145 640 103 q 832 267 790 188 l 985 267 q 812 63 929 133 q 544 -8 694 -8 q 297 55 410 -8 q 119 230 185 118 q 54 482 54 342 q 119 735 54 624 q 297 910 185 847 q 544 972 410 972 m 675 1171 l 379 1015 l 379 1113 l 675 1288 l 675 1171 z "},"ć":{"ha":833,"x_min":54,"x_max":769,"o":"m 424 775 q 648 711 561 775 q 769 529 735 647 l 633 529 q 557 633 611 596 q 424 671 503 671 q 249 595 315 671 q 183 381 183 519 q 249 167 183 243 q 424 92 315 92 q 557 128 504 92 q 633 233 610 164 l 769 233 q 647 54 735 121 q 424 -12 558 -12 q 233 36 317 -12 q 101 174 149 85 q 54 381 54 264 q 101 588 54 499 q 232 726 149 678 q 424 775 315 775 m 551 971 l 256 815 l 256 913 l 551 1088 l 551 971 z "},"Č":{"ha":1079,"x_min":54,"x_max":985,"o":"m 544 972 q 812 901 694 972 q 985 697 929 831 l 832 697 q 715 818 790 776 q 544 860 640 860 q 359 813 442 860 q 230 681 276 767 q 183 482 183 594 q 230 283 183 369 q 359 150 276 197 q 544 103 442 103 q 715 145 640 103 q 832 267 790 188 l 985 267 q 812 63 929 133 q 544 -8 694 -8 q 297 55 410 -8 q 119 230 185 118 q 54 482 54 342 q 119 735 54 624 q 297 910 185 847 q 544 972 410 972 m 732 1144 l 539 1029 l 347 1144 l 347 1251 l 539 1132 l 732 1251 l 732 1144 z "},"č":{"ha":833,"x_min":54,"x_max":769,"o":"m 424 775 q 648 711 561 775 q 769 529 735 647 l 633 529 q 557 633 611 596 q 424 671 503 671 q 249 595 315 671 q 183 381 183 519 q 249 167 183 243 q 424 92 315 92 q 557 128 504 92 q 633 233 610 164 l 769 233 q 647 54 735 121 q 424 -12 558 -12 q 233 36 317 -12 q 101 174 149 85 q 54 381 54 264 q 101 588 54 499 q 232 726 149 678 q 424 775 315 775 m 610 944 l 417 829 l 225 944 l 225 1051 l 417 932 l 610 1051 l 610 944 z "},"Ď":{"ha":967,"x_min":104,"x_max":911,"o":"m 911 476 q 850 220 911 328 q 676 56 789 113 q 408 0 563 0 l 104 0 l 104 963 l 408 963 q 676 903 563 963 q 850 735 789 844 q 911 476 911 626 m 408 97 q 686 197 590 97 q 782 476 782 297 q 686 756 782 656 q 408 856 590 856 l 231 856 l 231 97 l 408 97 m 676 1144 l 483 1029 l 292 1144 l 292 1251 l 483 1132 l 676 1251 l 676 1144 z "},"ď":{"ha":1054,"x_min":54,"x_max":1040,"o":"m 418 775 q 588 729 515 775 q 699 610 661 683 l 699 1028 l 826 1028 l 826 0 l 699 0 l 699 156 q 588 34 661 81 q 418 -12 515 -12 q 233 38 315 -12 q 102 180 150 89 q 54 386 54 271 q 102 590 54 501 q 233 726 150 678 q 418 775 315 775 m 1025 1028 q 1040 900 1040 951 q 1005 781 1040 818 q 900 743 969 743 l 900 803 q 949 821 933 803 q 965 876 965 839 l 965 908 l 897 908 l 897 1028 l 1025 1028 m 440 665 q 313 632 372 665 q 219 535 254 599 q 183 386 183 472 q 219 234 183 300 q 313 132 254 168 q 440 96 372 96 q 569 131 510 96 q 663 230 628 165 q 699 381 699 294 q 663 531 699 467 q 569 631 628 596 q 440 665 510 665 z "},"Đ":{"ha":989,"x_min":6,"x_max":933,"o":"m 431 963 q 698 903 585 963 q 872 735 811 844 q 933 476 933 626 q 872 220 933 328 q 698 56 811 113 q 431 0 585 0 l 126 0 l 126 419 l 6 419 l 6 533 l 126 533 l 126 963 l 431 963 m 431 97 q 708 197 611 97 q 804 476 804 297 q 708 756 804 656 q 431 856 611 856 l 253 856 l 253 533 l 519 533 l 519 419 l 253 419 l 253 97 l 431 97 z "},"đ":{"ha":931,"x_min":54,"x_max":910,"o":"m 910 819 l 826 819 l 826 0 l 699 0 l 699 156 q 588 34 661 81 q 418 -12 515 -12 q 233 38 315 -12 q 102 180 150 89 q 54 386 54 271 q 102 590 54 501 q 233 726 150 678 q 418 775 315 775 q 588 729 515 775 q 699 610 661 683 l 699 819 l 582 819 l 582 901 l 699 901 l 699 1028 l 826 1028 l 826 901 l 910 901 l 910 819 m 440 96 q 569 131 510 96 q 663 230 628 165 q 699 381 699 294 q 663 531 699 467 q 569 631 628 596 q 440 665 510 665 q 313 632 372 665 q 219 535 254 599 q 183 386 183 472 q 219 234 183 300 q 313 132 254 168 q 440 96 372 96 z "},"Ē":{"ha":701,"x_min":104,"x_max":614,"o":"m 231 863 l 231 535 l 572 535 l 572 436 l 231 436 l 231 100 l 614 100 l 614 0 l 104 0 l 104 963 l 614 963 l 614 863 l 231 863 m 596 1186 l 596 1085 l 107 1085 l 107 1186 l 596 1186 z "},"ē":{"ha":849,"x_min":54,"x_max":796,"o":"m 796 413 q 790 338 796 372 l 183 338 q 255 158 189 224 q 424 92 321 92 q 555 126 501 92 q 633 218 608 161 l 769 218 q 645 53 733 118 q 424 -12 557 -12 q 233 36 317 -12 q 101 174 149 85 q 54 381 54 264 q 101 588 54 499 q 235 726 149 678 q 433 775 321 775 q 622 728 540 775 q 750 599 704 681 q 796 413 796 517 m 664 429 q 632 558 664 503 q 545 642 600 613 q 424 671 490 671 q 258 606 325 671 q 185 429 192 542 l 664 429 m 668 986 l 668 885 l 179 885 l 179 986 l 668 986 z "},"Ė":{"ha":701,"x_min":104,"x_max":614,"o":"m 231 863 l 231 535 l 572 535 l 572 436 l 231 436 l 231 100 l 614 100 l 614 0 l 104 0 l 104 963 l 614 963 l 614 863 l 231 863 m 276 1136 q 299 1190 276 1168 q 351 1211 321 1211 q 405 1190 383 1211 q 426 1136 426 1168 q 405 1083 426 1106 q 351 1061 383 1061 q 299 1083 321 1061 q 276 1136 276 1106 z "},"ė":{"ha":849,"x_min":54,"x_max":796,"o":"m 796 413 q 790 338 796 372 l 183 338 q 255 158 189 224 q 424 92 321 92 q 555 126 501 92 q 633 218 608 161 l 769 218 q 645 53 733 118 q 424 -12 557 -12 q 233 36 317 -12 q 101 174 149 85 q 54 381 54 264 q 101 588 54 499 q 235 726 149 678 q 433 775 321 775 q 622 728 540 775 q 750 599 704 681 q 796 413 796 517 m 664 429 q 632 558 664 503 q 545 642 600 613 q 424 671 490 671 q 258 606 325 671 q 185 429 192 542 l 664 429 m 349 936 q 371 990 349 968 q 424 1011 393 1011 q 477 990 456 1011 q 499 936 499 968 q 477 883 499 906 q 424 861 456 861 q 371 883 393 861 q 349 936 349 906 z "},"Ę":{"ha":701,"x_min":104,"x_max":658,"o":"m 658 -193 l 658 -281 l 532 -281 q 405 -241 454 -281 q 356 -135 356 -201 q 387 -48 356 -83 q 474 0 418 -12 l 104 0 l 104 963 l 614 963 l 614 863 l 231 863 l 231 535 l 572 535 l 572 436 l 231 436 l 231 100 l 614 100 l 614 -78 l 549 -78 q 471 -135 471 -78 q 549 -193 471 -193 l 658 -193 z "},"ę":{"ha":849,"x_min":54,"x_max":796,"o":"m 796 413 q 790 338 796 372 l 183 338 q 255 158 189 224 q 424 92 321 92 q 555 126 501 92 q 633 218 608 161 l 769 218 q 692 93 744 147 q 567 11 639 39 q 517 -14 532 -1 q 503 -50 503 -26 q 581 -108 503 -108 l 690 -108 l 690 -196 l 564 -196 q 437 -156 486 -196 q 388 -50 388 -117 q 393 -12 388 -35 q 217 45 293 -6 q 97 183 140 96 q 54 381 54 269 q 101 588 54 499 q 235 726 149 678 q 433 775 321 775 q 622 728 540 775 q 750 599 704 681 q 796 413 796 517 m 664 429 q 632 558 664 503 q 545 642 600 613 q 424 671 490 671 q 258 606 325 671 q 185 429 192 542 l 664 429 z "},"Ě":{"ha":701,"x_min":104,"x_max":614,"o":"m 231 863 l 231 535 l 572 535 l 572 436 l 231 436 l 231 100 l 614 100 l 614 0 l 104 0 l 104 963 l 614 963 l 614 863 l 231 863 m 543 1144 l 350 1029 l 158 1144 l 158 1251 l 350 1132 l 543 1251 l 543 1144 z "},"ě":{"ha":849,"x_min":54,"x_max":796,"o":"m 796 413 q 790 338 796 372 l 183 338 q 255 158 189 224 q 424 92 321 92 q 555 126 501 92 q 633 218 608 161 l 769 218 q 645 53 733 118 q 424 -12 557 -12 q 233 36 317 -12 q 101 174 149 85 q 54 381 54 264 q 101 588 54 499 q 235 726 149 678 q 433 775 321 775 q 622 728 540 775 q 750 599 704 681 q 796 413 796 517 m 664 429 q 632 558 664 503 q 545 642 600 613 q 424 671 490 671 q 258 606 325 671 q 185 429 192 542 l 664 429 m 617 944 l 424 829 l 232 944 l 232 1051 l 424 932 l 617 1051 l 617 944 z "},"Ğ":{"ha":1079,"x_min":54,"x_max":1025,"o":"m 544 972 q 812 901 694 972 q 985 697 929 831 l 832 697 q 715 818 790 776 q 544 860 640 860 q 359 813 442 860 q 230 681 276 767 q 183 482 183 594 q 230 283 183 369 q 359 150 276 197 q 544 103 442 103 q 784 189 692 103 q 892 422 876 275 l 494 422 l 494 522 l 1025 522 l 1025 422 q 947 201 1013 300 q 776 47 881 103 q 544 -8 671 -8 q 297 55 410 -8 q 119 230 185 118 q 54 482 54 342 q 119 735 54 624 q 297 910 185 847 q 544 972 410 972 m 539 1047 q 394 1098 446 1047 q 342 1228 342 1149 l 342 1253 l 421 1253 q 447 1176 421 1201 q 539 1150 474 1150 q 631 1176 604 1150 q 657 1253 657 1201 l 738 1253 l 738 1226 q 685 1097 738 1147 q 539 1047 632 1047 z "},"ğ":{"ha":931,"x_min":54,"x_max":826,"o":"m 418 775 q 588 729 515 775 q 699 610 661 683 l 699 763 l 826 763 l 826 -19 q 781 -204 826 -124 q 651 -330 735 -285 q 458 -375 568 -375 q 283 -342 363 -375 q 154 -250 204 -310 q 94 -114 104 -190 l 218 -114 q 303 -222 236 -179 q 458 -265 369 -265 q 633 -201 567 -265 q 699 -19 699 -136 l 699 156 q 588 34 661 81 q 418 -12 515 -12 q 233 38 315 -12 q 102 180 150 89 q 54 386 54 271 q 102 590 54 501 q 233 726 150 678 q 418 775 315 775 m 440 665 q 313 632 372 665 q 219 535 254 599 q 183 386 183 472 q 219 234 183 300 q 313 132 254 168 q 440 96 372 96 q 569 131 510 96 q 663 230 628 165 q 699 381 699 294 q 663 531 699 467 q 569 631 628 596 q 440 665 510 665 m 464 847 q 319 898 371 847 q 267 1028 267 949 l 267 1053 l 346 1053 q 372 976 346 1001 q 464 950 399 950 q 556 976 529 950 q 582 1053 582 1001 l 663 1053 l 663 1026 q 610 897 663 947 q 464 847 557 847 z "},"Ģ":{"ha":1079,"x_min":54,"x_max":1025,"o":"m 544 972 q 812 901 694 972 q 985 697 929 831 l 832 697 q 715 818 790 776 q 544 860 640 860 q 359 813 442 860 q 230 681 276 767 q 183 482 183 594 q 230 283 183 369 q 359 150 276 197 q 544 103 442 103 q 784 189 692 103 q 892 422 876 275 l 494 422 l 494 522 l 1025 522 l 1025 422 q 947 201 1013 300 q 776 47 881 103 q 544 -8 671 -8 q 297 55 410 -8 q 119 230 185 118 q 54 482 54 342 q 119 735 54 624 q 297 910 185 847 q 544 972 410 972 m 599 -67 q 614 -194 614 -143 q 579 -314 614 -276 q 474 -351 544 -351 l 474 -290 q 523 -273 507 -290 q 539 -218 539 -256 l 539 -186 l 471 -186 l 471 -67 l 599 -67 z "},"ģ":{"ha":931,"x_min":54,"x_max":826,"o":"m 406 828 q 390 956 390 904 q 531 1114 390 1114 l 531 1053 q 481 1035 497 1053 q 465 979 465 1017 l 465 947 l 533 947 l 533 828 l 406 828 m 418 775 q 588 729 515 775 q 699 610 661 683 l 699 763 l 826 763 l 826 -19 q 781 -204 826 -124 q 651 -330 735 -285 q 458 -375 568 -375 q 283 -342 363 -375 q 154 -250 204 -310 q 94 -114 104 -190 l 218 -114 q 303 -222 236 -179 q 458 -265 369 -265 q 633 -201 567 -265 q 699 -19 699 -136 l 699 156 q 588 34 661 81 q 418 -12 515 -12 q 233 38 315 -12 q 102 180 150 89 q 54 386 54 271 q 102 590 54 501 q 233 726 150 678 q 418 775 315 775 m 440 665 q 313 632 372 665 q 219 535 254 599 q 183 386 183 472 q 219 234 183 300 q 313 132 254 168 q 440 96 372 96 q 569 131 510 96 q 663 230 628 165 q 699 381 699 294 q 663 531 699 467 q 569 631 628 596 q 440 665 510 665 z "},"Ī":{"ha":335,"x_min":-78,"x_max":411,"o":"m 231 963 l 231 0 l 104 0 l 104 963 l 231 963 m 411 1186 l 411 1085 l -78 1085 l -78 1186 l 411 1186 z "},"ī":{"ha":335,"x_min":-78,"x_max":411,"o":"m 231 763 l 231 0 l 104 0 l 104 763 l 231 763 m 411 986 l 411 885 l -78 885 l -78 986 l 411 986 z "},"Į":{"ha":335,"x_min":-26,"x_max":276,"o":"m 276 -192 l 276 -279 l 150 -279 q 23 -240 72 -279 q -26 -133 -26 -200 q 9 -43 -26 -79 q 104 4 44 -7 l 104 963 l 231 963 l 231 8 l 232 8 l 232 -76 l 167 -76 q 89 -133 89 -76 q 167 -192 89 -192 l 276 -192 z "},"į":{"ha":335,"x_min":-26,"x_max":276,"o":"m 168 885 q 108 910 132 885 q 83 971 83 935 q 108 1032 83 1007 q 168 1057 133 1057 q 229 1032 204 1057 q 254 971 254 1007 q 229 910 254 935 q 168 885 204 885 m 276 -192 l 276 -279 l 150 -279 q 23 -240 72 -279 q -26 -133 -26 -200 q 9 -43 -26 -79 q 104 4 44 -7 l 104 763 l 231 763 l 231 8 l 232 8 l 232 -76 l 167 -76 q 89 -133 89 -76 q 167 -192 89 -192 l 276 -192 z "},"İ":{"ha":335,"x_min":92,"x_max":242,"o":"m 231 963 l 231 0 l 104 0 l 104 963 l 231 963 m 92 1136 q 114 1190 92 1168 q 167 1211 136 1211 q 220 1190 199 1211 q 242 1136 242 1168 q 220 1083 242 1106 q 167 1061 199 1061 q 114 1083 136 1061 q 92 1136 92 1106 z "},"ı":{"ha":335,"x_min":104,"x_max":231,"o":"m 231 763 l 231 0 l 104 0 l 104 763 l 231 763 z "},"Ķ":{"ha":831,"x_min":104,"x_max":792,"o":"m 342 475 l 792 0 l 624 0 l 231 431 l 231 0 l 104 0 l 104 963 l 231 963 l 231 517 l 626 963 l 792 963 l 342 475 m 475 -67 q 490 -194 490 -143 q 455 -314 490 -276 q 350 -351 419 -351 l 350 -290 q 399 -273 383 -290 q 415 -218 415 -256 l 415 -186 l 347 -186 l 347 -67 l 475 -67 z "},"ķ":{"ha":713,"x_min":104,"x_max":700,"o":"m 340 383 l 700 0 l 529 0 l 231 335 l 231 0 l 104 0 l 104 1028 l 231 1028 l 231 425 l 522 763 l 700 763 l 340 383 m 415 -67 q 431 -194 431 -133 q 396 -314 431 -276 q 290 -351 361 -351 l 290 -290 q 340 -273 324 -290 q 356 -218 356 -256 l 356 -186 l 289 -186 l 289 -67 l 415 -67 z "},"Ĺ":{"ha":596,"x_min":104,"x_max":568,"o":"m 231 97 l 568 97 l 568 0 l 104 0 l 104 963 l 231 963 l 231 97 m 433 1171 l 138 1015 l 138 1113 l 433 1288 l 433 1171 z "},"ĺ":{"ha":335,"x_min":7,"x_max":303,"o":"m 231 1028 l 231 0 l 104 0 l 104 1028 l 231 1028 m 303 1236 l 7 1081 l 7 1178 l 303 1353 l 303 1236 z "},"Ļ":{"ha":596,"x_min":104,"x_max":568,"o":"m 231 97 l 568 97 l 568 0 l 104 0 l 104 963 l 231 963 l 231 97 m 390 -67 q 406 -194 406 -133 q 371 -314 406 -276 q 265 -351 336 -351 l 265 -290 q 315 -273 299 -290 q 331 -218 331 -256 l 331 -186 l 263 -186 l 263 -67 l 390 -67 z "},"ļ":{"ha":335,"x_min":100,"x_max":242,"o":"m 231 1028 l 231 0 l 104 0 l 104 1028 l 231 1028 m 226 -67 q 242 -194 242 -133 q 207 -314 242 -276 q 101 -351 172 -351 l 101 -290 q 151 -273 135 -290 q 167 -218 167 -256 l 167 -186 l 100 -186 l 100 -67 l 226 -67 z "},"Ľ":{"ha":608,"x_min":104,"x_max":568,"o":"m 231 97 l 568 97 l 568 0 l 104 0 l 104 963 l 231 963 l 231 97 m 519 963 q 535 835 535 886 q 394 676 535 676 l 394 738 q 444 756 428 738 q 460 811 460 774 l 460 843 l 392 843 l 392 963 l 519 963 z "},"ľ":{"ha":540,"x_min":104,"x_max":482,"o":"m 231 1028 l 231 0 l 104 0 l 104 1028 l 231 1028 m 467 1028 q 482 900 482 951 q 447 781 482 818 q 342 743 413 743 l 342 803 q 391 821 375 803 q 407 876 407 839 l 407 908 l 339 908 l 339 1028 l 467 1028 z "},"Ł":{"ha":596,"x_min":6,"x_max":590,"o":"m 590 97 l 590 0 l 126 0 l 126 421 l 6 378 l 6 492 l 126 535 l 126 963 l 253 963 l 253 581 l 397 633 l 397 519 l 253 467 l 253 97 l 590 97 z "},"ł":{"ha":335,"x_min":6,"x_max":329,"o":"m 329 497 l 231 458 l 231 0 l 104 0 l 104 410 l 6 371 l 6 485 l 104 524 l 104 1028 l 231 1028 l 231 572 l 329 611 l 329 497 z "},"Ń":{"ha":969,"x_min":104,"x_max":865,"o":"m 865 0 l 739 0 l 231 764 l 231 0 l 104 0 l 104 963 l 231 963 l 739 199 l 739 963 l 865 963 l 865 0 m 621 1171 l 325 1015 l 325 1113 l 621 1288 l 621 1171 z "},"ń":{"ha":872,"x_min":104,"x_max":775,"o":"m 479 775 q 628 738 561 775 q 735 628 696 701 q 775 451 775 556 l 775 0 l 650 0 l 650 431 q 594 606 650 546 q 440 665 539 665 q 287 606 343 665 q 231 431 231 546 l 231 0 l 104 0 l 104 763 l 231 763 l 231 639 q 333 740 268 706 q 479 775 399 775 m 579 971 l 283 815 l 283 913 l 579 1088 l 579 971 z "},"Ņ":{"ha":969,"x_min":104,"x_max":865,"o":"m 865 0 l 739 0 l 231 764 l 231 0 l 104 0 l 104 963 l 231 963 l 739 199 l 739 963 l 865 963 l 865 0 m 544 -67 q 560 -194 560 -133 q 525 -314 560 -276 q 419 -351 490 -351 l 419 -290 q 469 -273 453 -290 q 485 -218 485 -256 l 485 -186 l 417 -186 l 417 -67 l 544 -67 z "},"ņ":{"ha":872,"x_min":104,"x_max":775,"o":"m 479 775 q 628 738 561 775 q 735 628 696 701 q 775 451 775 556 l 775 0 l 650 0 l 650 431 q 594 606 650 546 q 440 665 539 665 q 287 606 343 665 q 231 431 231 546 l 231 0 l 104 0 l 104 763 l 231 763 l 231 639 q 333 740 268 706 q 479 775 399 775 m 496 -67 q 511 -194 511 -133 q 476 -314 511 -276 q 371 -351 442 -351 l 371 -290 q 420 -273 404 -290 q 436 -218 436 -256 l 436 -186 l 368 -186 l 368 -67 l 496 -67 z "},"Ň":{"ha":969,"x_min":104,"x_max":865,"o":"m 865 0 l 739 0 l 231 764 l 231 0 l 104 0 l 104 963 l 231 963 l 739 199 l 739 963 l 865 963 l 865 0 m 678 1144 l 485 1029 l 293 1144 l 293 1251 l 485 1132 l 678 1251 l 678 1144 z "},"ň":{"ha":872,"x_min":104,"x_max":775,"o":"m 479 775 q 628 738 561 775 q 735 628 696 701 q 775 451 775 556 l 775 0 l 650 0 l 650 431 q 594 606 650 546 q 440 665 539 665 q 287 606 343 665 q 231 431 231 546 l 231 0 l 104 0 l 104 763 l 231 763 l 231 639 q 333 740 268 706 q 479 775 399 775 m 636 944 l 443 829 l 251 944 l 251 1051 l 443 932 l 636 1051 l 636 944 z "},"Ō":{"ha":1086,"x_min":54,"x_max":1033,"o":"m 544 972 q 791 910 679 972 q 968 735 903 847 q 1033 482 1033 624 q 968 229 1033 342 q 791 53 903 117 q 544 -10 679 -10 q 297 53 410 -10 q 119 229 185 117 q 54 482 54 342 q 119 735 54 624 q 297 910 185 847 q 544 972 410 972 m 544 860 q 359 813 442 860 q 229 681 276 767 q 182 482 182 594 q 229 283 182 369 q 359 150 276 197 q 544 103 442 103 q 729 150 647 103 q 858 283 811 197 q 904 482 904 369 q 858 681 904 594 q 729 813 811 767 q 544 860 647 860 m 788 1186 l 788 1085 l 299 1085 l 299 1186 l 788 1186 z "},"ō":{"ha":878,"x_min":54,"x_max":824,"o":"m 439 775 q 635 726 547 775 q 773 588 722 678 q 824 381 824 497 q 771 176 824 265 q 628 37 718 86 q 428 -12 538 -12 q 235 36 321 -12 q 102 174 150 85 q 54 381 54 264 q 105 588 54 499 q 243 726 156 678 q 439 775 331 775 m 435 671 q 308 638 365 671 q 217 539 251 604 q 183 381 183 474 q 216 224 183 289 q 304 125 249 158 q 428 92 360 92 q 558 126 497 92 q 656 225 618 160 q 693 381 693 290 q 658 538 693 472 q 563 638 622 604 q 435 671 504 671 m 683 986 l 683 885 l 194 885 l 194 986 l 683 986 z "},"Ő":{"ha":1086,"x_min":54,"x_max":1033,"o":"m 544 972 q 791 910 679 972 q 968 735 903 847 q 1033 482 1033 624 q 968 229 1033 342 q 791 53 903 117 q 544 -10 679 -10 q 297 53 410 -10 q 119 229 185 117 q 54 482 54 342 q 119 735 54 624 q 297 910 185 847 q 544 972 410 972 m 544 860 q 359 813 442 860 q 229 681 276 767 q 182 482 182 594 q 229 283 182 369 q 359 150 276 197 q 544 103 442 103 q 729 150 647 103 q 858 283 811 197 q 904 482 904 369 q 858 681 904 594 q 729 813 811 767 q 544 860 647 860 m 471 1035 l 385 1035 l 478 1249 l 594 1249 l 471 1035 m 679 1035 l 593 1035 l 704 1249 l 819 1249 l 679 1035 z "},"ő":{"ha":878,"x_min":54,"x_max":824,"o":"m 439 775 q 635 726 547 775 q 773 588 722 678 q 824 381 824 497 q 771 176 824 265 q 628 37 718 86 q 428 -12 538 -12 q 235 36 321 -12 q 102 174 150 85 q 54 381 54 264 q 105 588 54 499 q 243 726 156 678 q 439 775 331 775 m 435 671 q 308 638 365 671 q 217 539 251 604 q 183 381 183 474 q 216 224 183 289 q 304 125 249 158 q 428 92 360 92 q 558 126 497 92 q 656 225 618 160 q 693 381 693 290 q 658 538 693 472 q 563 638 622 604 q 435 671 504 671 m 365 835 l 279 835 l 372 1049 l 489 1049 l 365 835 m 574 835 l 488 835 l 599 1049 l 714 1049 l 574 835 z "},"Œ":{"ha":1501,"x_min":54,"x_max":1413,"o":"m 1031 535 l 1371 535 l 1371 435 l 1031 435 l 1031 100 l 1413 100 l 1413 0 l 904 0 l 904 181 q 749 38 842 86 q 544 -10 657 -10 q 297 53 410 -10 q 119 229 185 117 q 54 482 54 342 q 120 736 54 625 q 298 910 186 847 q 544 972 410 972 q 750 925 658 972 q 904 781 842 878 l 904 963 l 1413 963 l 1413 861 l 1031 861 l 1031 535 m 544 103 q 729 150 647 103 q 858 283 811 197 q 904 482 904 369 q 858 681 904 594 q 729 813 811 767 q 544 860 647 860 q 359 813 442 860 q 229 681 276 767 q 182 482 182 594 q 229 283 182 369 q 359 150 276 197 q 544 103 442 103 z "},"œ":{"ha":1488,"x_min":54,"x_max":1435,"o":"m 1435 413 q 1429 338 1435 372 l 824 338 q 895 157 829 222 q 1063 92 961 92 q 1195 126 1142 92 q 1272 218 1249 161 l 1408 218 q 1284 53 1372 118 q 1063 -12 1196 -12 q 881 33 961 -12 q 754 161 801 78 q 617 33 703 79 q 428 -12 531 -12 q 235 36 321 -12 q 102 174 150 85 q 54 381 54 264 q 105 588 54 499 q 243 726 156 678 q 439 775 331 775 q 622 730 539 775 q 756 603 706 685 q 885 730 803 685 q 1072 775 967 775 q 1261 728 1179 775 q 1389 599 1343 681 q 1435 413 1435 517 m 428 92 q 558 126 497 92 q 655 225 618 160 q 692 381 692 290 q 656 538 692 472 q 563 638 621 604 q 435 671 504 671 q 308 638 365 671 q 216 538 250 604 q 182 381 182 472 q 215 224 182 289 q 303 125 247 158 q 428 92 360 92 m 1304 429 q 1272 558 1304 503 q 1185 642 1240 613 q 1063 671 1131 671 q 898 606 964 671 q 825 429 832 542 l 1304 429 z "},"Ŕ":{"ha":857,"x_min":104,"x_max":765,"o":"m 607 0 l 354 397 l 231 397 l 231 0 l 104 0 l 104 963 l 417 963 q 600 926 525 963 q 713 824 675 889 q 750 679 750 760 q 688 499 750 575 q 500 403 625 422 l 765 0 l 607 0 m 231 497 l 417 497 q 572 545 521 497 q 622 679 622 593 q 572 813 622 765 q 417 861 522 861 l 231 861 l 231 497 m 564 1171 l 268 1015 l 268 1113 l 564 1288 l 564 1171 z "},"ŕ":{"ha":511,"x_min":104,"x_max":463,"o":"m 231 633 q 463 775 299 775 l 463 643 l 429 643 q 281 592 332 643 q 231 417 231 542 l 231 0 l 104 0 l 104 763 l 231 763 l 231 633 m 453 971 l 157 815 l 157 913 l 453 1088 l 453 971 z "},"Ŗ":{"ha":857,"x_min":104,"x_max":765,"o":"m 765 0 l 607 0 l 354 397 l 231 397 l 231 0 l 104 0 l 104 963 l 417 963 q 600 926 525 963 q 713 824 675 889 q 750 679 750 760 q 688 499 750 575 q 500 403 625 422 l 765 0 m 231 497 l 417 497 q 572 545 521 497 q 622 679 622 593 q 572 813 622 765 q 417 861 522 861 l 231 861 l 231 497 m 488 -67 q 503 -194 503 -133 q 468 -314 503 -276 q 363 -351 433 -351 l 363 -290 q 412 -273 396 -290 q 428 -218 428 -256 l 428 -186 l 361 -186 l 361 -67 l 488 -67 z "},"ŗ":{"ha":511,"x_min":100,"x_max":463,"o":"m 231 633 q 463 775 299 775 l 463 643 l 429 643 q 281 592 332 643 q 231 417 231 542 l 231 0 l 104 0 l 104 763 l 231 763 l 231 633 m 228 -67 q 243 -194 243 -133 q 208 -314 243 -276 q 103 -351 174 -351 l 103 -290 q 152 -273 136 -290 q 168 -218 168 -256 l 168 -186 l 100 -186 l 100 -67 l 228 -67 z "},"Ř":{"ha":857,"x_min":104,"x_max":765,"o":"m 607 0 l 354 397 l 231 397 l 231 0 l 104 0 l 104 963 l 417 963 q 600 926 525 963 q 713 824 675 889 q 750 679 750 760 q 688 499 750 575 q 500 403 625 422 l 765 0 l 607 0 m 231 497 l 417 497 q 572 545 521 497 q 622 679 622 593 q 572 813 622 765 q 417 861 522 861 l 231 861 l 231 497 m 621 1144 l 428 1029 l 236 1144 l 236 1251 l 428 1132 l 621 1251 l 621 1144 z "},"ř":{"ha":511,"x_min":104,"x_max":510,"o":"m 231 633 q 463 775 299 775 l 463 643 l 429 643 q 281 592 332 643 q 231 417 231 542 l 231 0 l 104 0 l 104 763 l 231 763 l 231 633 m 510 944 l 317 829 l 125 944 l 125 1051 l 317 932 l 510 1051 l 510 944 z "},"Ś":{"ha":815,"x_min":83,"x_max":732,"o":"m 732 269 q 694 133 732 197 q 583 30 657 69 q 407 -10 510 -10 q 242 20 315 -10 q 126 106 168 50 q 83 240 83 163 l 218 240 q 270 135 224 175 q 407 94 317 94 q 554 142 500 94 q 608 263 608 189 q 578 351 608 318 q 501 400 547 383 q 379 433 456 417 q 224 479 283 456 q 124 556 165 503 q 83 701 83 608 q 122 843 83 782 q 234 938 161 904 q 404 972 307 972 q 619 908 536 972 q 714 729 701 843 l 574 729 q 520 826 568 786 q 392 867 472 867 q 258 826 310 867 q 207 706 207 785 q 238 615 207 649 q 313 565 268 582 q 439 531 358 549 q 592 485 533 508 q 691 411 650 463 q 732 269 732 360 m 543 1171 l 247 1015 l 247 1113 l 543 1288 l 543 1171 z "},"ś":{"ha":731,"x_min":76,"x_max":653,"o":"m 367 775 q 563 710 490 775 q 642 533 635 646 l 511 533 q 468 636 508 597 q 357 675 428 675 q 244 641 285 675 q 203 556 203 607 q 228 487 203 513 q 292 449 254 461 q 396 422 331 436 q 530 384 479 403 q 617 322 581 365 q 653 203 653 278 q 617 91 653 140 q 515 15 581 42 q 365 -12 450 -12 q 160 51 238 -12 q 76 228 83 115 l 207 228 q 252 126 210 164 q 365 88 294 88 q 485 119 443 88 q 528 204 528 151 q 502 273 528 247 q 438 312 476 299 q 331 340 399 325 q 198 377 249 358 q 112 436 147 396 q 76 547 76 476 q 112 662 76 610 q 213 744 147 714 q 367 775 279 775 m 500 971 l 204 815 l 204 913 l 500 1088 l 500 971 z "},"Ş":{"ha":815,"x_min":83,"x_max":732,"o":"m 732 269 q 700 144 732 204 q 606 44 668 85 q 457 -7 544 3 l 457 -74 q 588 -112 538 -74 q 638 -215 638 -150 q 588 -321 638 -281 q 461 -361 539 -361 l 296 -361 l 296 -274 l 444 -274 q 522 -215 522 -274 q 444 -158 522 -158 l 368 -158 l 368 -8 q 163 67 242 1 q 83 240 83 133 l 218 240 q 270 135 224 175 q 407 94 317 94 q 554 142 500 94 q 608 263 608 189 q 578 351 608 318 q 501 400 547 383 q 379 433 456 417 q 224 479 283 456 q 124 556 165 503 q 83 701 83 608 q 122 843 83 782 q 234 938 161 904 q 404 972 307 972 q 619 908 536 972 q 714 729 701 843 l 574 729 q 520 826 568 786 q 392 867 472 867 q 258 826 310 867 q 207 706 207 785 q 238 615 207 649 q 313 565 268 582 q 439 531 358 549 q 592 485 533 508 q 691 411 650 463 q 732 269 732 360 z "},"ş":{"ha":731,"x_min":76,"x_max":653,"o":"m 653 203 q 588 60 653 118 q 414 -10 522 1 l 414 -74 q 544 -112 494 -74 q 594 -215 594 -150 q 545 -321 594 -281 q 418 -361 496 -361 l 253 -361 l 253 -274 l 401 -274 q 479 -215 479 -274 q 401 -158 479 -158 l 325 -158 l 325 -11 q 149 63 215 0 q 76 228 82 125 l 207 228 q 252 126 210 164 q 365 88 294 88 q 485 119 443 88 q 528 204 528 151 q 502 273 528 247 q 438 312 476 299 q 331 340 399 325 q 198 377 249 358 q 112 436 147 396 q 76 547 76 476 q 112 662 76 610 q 213 744 147 714 q 367 775 279 775 q 563 710 490 775 q 642 533 635 646 l 511 533 q 468 636 508 597 q 357 675 428 675 q 244 641 285 675 q 203 556 203 607 q 228 487 203 513 q 292 449 254 461 q 396 422 331 436 q 530 384 479 403 q 617 322 581 365 q 653 203 653 278 z "},"Š":{"ha":815,"x_min":83,"x_max":732,"o":"m 732 269 q 694 133 732 197 q 583 30 657 69 q 407 -10 510 -10 q 242 20 315 -10 q 126 106 168 50 q 83 240 83 163 l 218 240 q 270 135 224 175 q 407 94 317 94 q 554 142 500 94 q 608 263 608 189 q 578 351 608 318 q 501 400 547 383 q 379 433 456 417 q 224 479 283 456 q 124 556 165 503 q 83 701 83 608 q 122 843 83 782 q 234 938 161 904 q 404 972 307 972 q 619 908 536 972 q 714 729 701 843 l 574 729 q 520 826 568 786 q 392 867 472 867 q 258 826 310 867 q 207 706 207 785 q 238 615 207 649 q 313 565 268 582 q 439 531 358 549 q 592 485 533 508 q 691 411 650 463 q 732 269 732 360 m 601 1144 l 408 1029 l 217 1144 l 217 1251 l 408 1132 l 601 1251 l 601 1144 z "},"š":{"ha":731,"x_min":76,"x_max":653,"o":"m 367 775 q 563 710 490 775 q 642 533 635 646 l 511 533 q 468 636 508 597 q 357 675 428 675 q 244 641 285 675 q 203 556 203 607 q 228 487 203 513 q 292 449 254 461 q 396 422 331 436 q 530 384 479 403 q 617 322 581 365 q 653 203 653 278 q 617 91 653 140 q 515 15 581 42 q 365 -12 450 -12 q 160 51 238 -12 q 76 228 83 115 l 207 228 q 252 126 210 164 q 365 88 294 88 q 485 119 443 88 q 528 204 528 151 q 502 273 528 247 q 438 312 476 299 q 331 340 399 325 q 198 377 249 358 q 112 436 147 396 q 76 547 76 476 q 112 662 76 610 q 213 744 147 714 q 367 775 279 775 m 558 944 l 365 829 l 174 944 l 174 1051 l 365 932 l 558 1051 l 558 944 z "},"Ţ":{"ha":758,"x_min":61,"x_max":696,"o":"m 442 861 l 442 0 q 567 -41 521 -3 q 614 -143 614 -79 q 565 -250 614 -210 q 438 -290 517 -290 l 231 -290 l 231 -203 l 424 -203 q 479 -187 460 -203 q 499 -143 499 -172 q 424 -85 499 -85 l 315 -85 l 315 861 l 61 861 l 61 963 l 696 963 l 696 861 l 442 861 z "},"ţ":{"ha":493,"x_min":33,"x_max":475,"o":"m 294 -74 q 426 -112 376 -74 q 475 -215 475 -150 q 426 -321 475 -281 q 300 -361 376 -361 l 135 -361 l 135 -274 l 283 -274 q 361 -215 361 -274 q 283 -158 361 -158 l 207 -158 l 207 28 q 132 196 132 75 l 132 660 l 33 660 l 33 763 l 132 763 l 132 951 l 260 951 l 260 763 l 457 763 l 457 660 l 260 660 l 260 196 q 281 124 260 144 q 354 103 301 103 l 458 103 l 458 0 l 331 0 q 294 1 306 0 l 294 -74 z "},"Ť":{"ha":758,"x_min":61,"x_max":696,"o":"m 696 963 l 696 861 l 442 861 l 442 0 l 315 0 l 315 861 l 61 861 l 61 963 l 696 963 m 572 1144 l 379 1029 l 188 1144 l 188 1251 l 379 1132 l 572 1251 l 572 1144 z "},"ť":{"ha":496,"x_min":33,"x_max":515,"o":"m 500 1057 q 515 943 515 990 q 481 844 515 875 q 375 814 446 814 l 375 874 q 425 883 410 874 q 440 917 440 893 l 440 938 l 372 938 l 372 1057 l 500 1057 m 260 196 q 281 124 260 144 q 354 103 301 103 l 458 103 l 458 0 l 331 0 q 183 47 233 0 q 132 196 132 94 l 132 660 l 33 660 l 33 763 l 132 763 l 132 951 l 260 951 l 260 763 l 457 763 l 457 660 l 260 660 l 260 196 z "},"Ū":{"ha":935,"x_min":103,"x_max":833,"o":"m 231 963 l 231 338 q 294 159 231 218 q 468 100 357 100 q 643 159 579 100 q 707 338 707 218 l 707 963 l 833 963 l 833 338 q 785 145 833 224 q 653 28 736 67 q 468 -10 569 -10 q 283 28 365 -10 q 151 145 200 67 q 103 338 103 224 l 103 963 l 231 963 m 711 1186 l 711 1085 l 222 1085 l 222 1186 l 711 1186 z "},"ū":{"ha":872,"x_min":97,"x_max":768,"o":"m 768 763 l 768 0 l 642 0 l 642 122 q 539 22 604 56 q 393 -12 474 -12 q 244 24 311 -12 q 137 133 176 61 q 97 310 97 206 l 97 763 l 222 763 l 222 331 q 278 156 222 217 q 432 96 335 96 q 585 156 529 96 q 642 331 642 217 l 642 763 l 768 763 m 681 986 l 681 885 l 192 885 l 192 986 l 681 986 z "},"Ů":{"ha":935,"x_min":103,"x_max":833,"o":"m 231 963 l 231 338 q 294 159 231 218 q 468 100 357 100 q 643 159 579 100 q 707 338 707 218 l 707 963 l 833 963 l 833 338 q 785 145 833 224 q 653 28 736 67 q 468 -10 569 -10 q 283 28 365 -10 q 151 145 200 67 q 103 338 103 224 l 103 963 l 231 963 m 467 1335 q 571 1295 529 1335 q 613 1189 613 1256 q 571 1084 613 1124 q 467 1044 529 1044 q 364 1084 406 1044 q 322 1189 322 1124 q 364 1294 322 1254 q 467 1335 406 1335 m 467 1263 q 415 1242 436 1263 q 394 1190 394 1222 q 415 1138 394 1158 q 467 1117 436 1117 q 519 1138 499 1117 q 540 1190 540 1158 q 519 1242 540 1222 q 467 1263 499 1263 z "},"ů":{"ha":872,"x_min":97,"x_max":768,"o":"m 768 763 l 768 0 l 642 0 l 642 122 q 539 22 604 56 q 393 -12 474 -12 q 244 24 311 -12 q 137 133 176 61 q 97 310 97 206 l 97 763 l 222 763 l 222 331 q 278 156 222 217 q 432 96 335 96 q 585 156 529 96 q 642 331 642 217 l 642 763 l 768 763 m 436 1135 q 540 1095 499 1135 q 582 989 582 1056 q 540 884 582 924 q 436 844 499 844 q 333 884 375 844 q 292 989 292 924 q 333 1094 292 1054 q 436 1135 375 1135 m 436 1063 q 385 1042 406 1063 q 364 990 364 1022 q 385 938 364 958 q 436 917 406 917 q 489 938 468 917 q 510 990 510 958 q 489 1042 510 1022 q 436 1063 468 1063 z "},"Ű":{"ha":935,"x_min":103,"x_max":833,"o":"m 231 963 l 231 338 q 294 159 231 218 q 468 100 357 100 q 643 159 579 100 q 707 338 707 218 l 707 963 l 833 963 l 833 338 q 785 145 833 224 q 653 28 736 67 q 468 -10 569 -10 q 283 28 365 -10 q 151 145 200 67 q 103 338 103 224 l 103 963 l 231 963 m 394 1035 l 308 1035 l 401 1249 l 518 1249 l 394 1035 m 603 1035 l 517 1035 l 628 1249 l 743 1249 l 603 1035 z "},"ű":{"ha":872,"x_min":97,"x_max":768,"o":"m 768 763 l 768 0 l 642 0 l 642 122 q 539 22 604 56 q 393 -12 474 -12 q 244 24 311 -12 q 137 133 176 61 q 97 310 97 206 l 97 763 l 222 763 l 222 331 q 278 156 222 217 q 432 96 335 96 q 585 156 529 96 q 642 331 642 217 l 642 763 l 768 763 m 364 835 l 278 835 l 371 1049 l 488 1049 l 364 835 m 572 835 l 486 835 l 597 1049 l 713 1049 l 572 835 z "},"Ų":{"ha":935,"x_min":103,"x_max":833,"o":"m 231 963 l 231 338 q 294 159 231 218 q 468 100 357 100 q 643 159 579 100 q 707 338 707 218 l 707 963 l 833 963 l 833 338 q 764 115 833 194 q 599 8 694 35 q 526 -20 546 -7 q 507 -58 507 -33 q 579 -115 507 -115 l 694 -115 l 694 -203 l 568 -203 q 441 -163 490 -203 q 392 -57 392 -124 q 403 -6 392 -31 q 185 99 268 13 q 103 338 103 186 l 103 963 l 231 963 z "},"ų":{"ha":872,"x_min":97,"x_max":814,"o":"m 814 -193 l 814 -281 l 688 -281 q 560 -241 610 -281 q 511 -135 511 -201 q 547 -44 511 -81 q 642 3 582 -8 l 642 122 q 539 22 604 56 q 393 -12 474 -12 q 244 24 311 -12 q 137 133 176 61 q 97 310 97 206 l 97 763 l 222 763 l 222 331 q 278 156 222 217 q 432 96 335 96 q 585 156 529 96 q 642 331 642 217 l 642 763 l 768 763 l 768 7 l 769 7 l 769 -78 l 704 -78 q 626 -135 626 -78 q 704 -193 626 -193 l 814 -193 z "},"Ÿ":{"ha":794,"x_min":21,"x_max":774,"o":"m 774 963 l 461 364 l 461 0 l 335 0 l 335 364 l 21 963 l 160 963 l 397 481 l 633 963 l 774 963 m 211 1136 q 233 1190 211 1168 q 286 1211 256 1211 q 340 1190 318 1211 q 361 1136 361 1168 q 340 1083 361 1106 q 286 1061 318 1061 q 233 1083 256 1061 q 211 1136 211 1106 m 435 1136 q 457 1190 435 1168 q 510 1211 479 1211 q 563 1190 542 1211 q 585 1136 585 1168 q 563 1083 585 1106 q 510 1061 542 1061 q 457 1083 479 1061 q 435 1136 435 1106 z "},"Ź":{"ha":753,"x_min":69,"x_max":683,"o":"m 215 100 l 683 100 l 683 0 l 69 0 l 69 100 l 539 861 l 69 861 l 69 963 l 683 963 l 683 861 l 215 100 m 513 1171 l 217 1015 l 217 1113 l 513 1288 l 513 1171 z "},"ź":{"ha":629,"x_min":58,"x_max":569,"o":"m 201 103 l 569 103 l 569 0 l 58 0 l 58 103 l 426 660 l 58 660 l 58 763 l 569 763 l 569 660 l 201 103 m 451 971 l 156 815 l 156 913 l 451 1088 l 451 971 z "},"Ż":{"ha":753,"x_min":69,"x_max":683,"o":"m 215 100 l 683 100 l 683 0 l 69 0 l 69 100 l 539 861 l 69 861 l 69 963 l 683 963 l 683 861 l 215 100 m 301 1136 q 324 1190 301 1168 q 376 1211 346 1211 q 430 1190 408 1211 q 451 1136 451 1168 q 430 1083 451 1106 q 376 1061 408 1061 q 324 1083 346 1061 q 301 1136 301 1106 z "},"ż":{"ha":629,"x_min":58,"x_max":569,"o":"m 201 103 l 569 103 l 569 0 l 58 0 l 58 103 l 426 660 l 58 660 l 58 763 l 569 763 l 569 660 l 201 103 m 240 936 q 263 990 240 968 q 315 1011 285 1011 q 369 990 347 1011 q 390 936 390 968 q 369 883 390 906 q 315 861 347 861 q 263 883 285 861 q 240 936 240 906 z "},"Ž":{"ha":753,"x_min":69,"x_max":683,"o":"m 215 100 l 683 100 l 683 0 l 69 0 l 69 100 l 539 861 l 69 861 l 69 963 l 683 963 l 683 861 l 215 100 m 569 1144 l 376 1029 l 185 1144 l 185 1251 l 376 1132 l 569 1251 l 569 1144 z "},"ž":{"ha":629,"x_min":58,"x_max":569,"o":"m 201 103 l 569 103 l 569 0 l 58 0 l 58 103 l 426 660 l 58 660 l 58 763 l 569 763 l 569 660 l 201 103 m 508 944 l 315 829 l 124 944 l 124 1051 l 315 932 l 508 1051 l 508 944 z "},"ƒ":{"ha":458,"x_min":-62,"x_max":447,"o":"m 436 963 q 317 931 354 963 q 274 826 281 900 l 267 763 l 426 763 l 417 660 l 256 660 l 178 -79 q 117 -228 168 -182 q -31 -274 65 -274 l -62 -274 l -53 -171 l -31 -171 q 26 -150 7 -171 q 51 -79 46 -129 l 129 660 l 32 660 l 40 763 l 140 763 l 147 826 q 232 1008 160 951 q 447 1065 304 1065 l 436 963 z "},"Ș":{"ha":815,"x_min":83,"x_max":732,"o":"m 732 269 q 694 133 732 197 q 583 30 657 69 q 407 -10 510 -10 q 242 20 315 -10 q 126 106 168 50 q 83 240 83 163 l 218 240 q 270 135 224 175 q 407 94 317 94 q 554 142 500 94 q 608 263 608 189 q 578 351 608 318 q 501 400 547 383 q 379 433 456 417 q 224 479 283 456 q 124 556 165 503 q 83 701 83 608 q 122 843 83 782 q 234 938 161 904 q 404 972 307 972 q 619 908 536 972 q 714 729 701 843 l 574 729 q 520 826 568 786 q 392 867 472 867 q 258 826 310 867 q 207 706 207 785 q 238 615 207 649 q 313 565 268 582 q 439 531 358 549 q 592 485 533 508 q 691 411 650 463 q 732 269 732 360 m 467 -67 q 483 -194 483 -140 q 448 -314 483 -276 q 342 -351 413 -351 l 342 -290 q 392 -273 376 -290 q 408 -218 408 -256 l 408 -186 l 340 -186 l 340 -67 l 467 -67 z "},"ș":{"ha":731,"x_min":76,"x_max":653,"o":"m 367 775 q 563 710 490 775 q 642 533 635 646 l 511 533 q 468 636 508 597 q 357 675 428 675 q 244 641 285 675 q 203 556 203 607 q 228 487 203 513 q 292 449 254 461 q 396 422 331 436 q 530 384 479 403 q 617 322 581 365 q 653 203 653 278 q 617 91 653 140 q 515 15 581 42 q 365 -12 450 -12 q 160 51 238 -12 q 76 228 83 115 l 207 228 q 252 126 210 164 q 365 88 294 88 q 485 119 443 88 q 528 204 528 151 q 502 273 528 247 q 438 312 476 299 q 331 340 399 325 q 198 377 249 358 q 112 436 147 396 q 76 547 76 476 q 112 662 76 610 q 213 744 147 714 q 367 775 279 775 m 424 -67 q 440 -194 440 -140 q 405 -314 440 -276 q 299 -351 369 -351 l 299 -290 q 349 -273 333 -290 q 365 -218 365 -256 l 365 -186 l 297 -186 l 297 -67 l 424 -67 z "},"Ț":{"ha":758,"x_min":61,"x_max":696,"o":"m 696 963 l 696 861 l 442 861 l 442 0 l 315 0 l 315 861 l 61 861 l 61 963 l 696 963 m 439 -67 q 454 -194 454 -143 q 419 -314 454 -276 q 314 -351 383 -351 l 314 -290 q 363 -273 347 -290 q 379 -218 379 -256 l 379 -186 l 311 -186 l 311 -67 l 439 -67 z "},"ț":{"ha":493,"x_min":33,"x_max":458,"o":"m 458 103 l 458 0 l 331 0 q 183 47 233 0 q 132 196 132 94 l 132 660 l 33 660 l 33 763 l 132 763 l 132 951 l 260 951 l 260 763 l 457 763 l 457 660 l 260 660 l 260 196 q 281 124 260 144 q 354 103 301 103 l 458 103 m 306 -67 q 322 -194 322 -140 q 287 -314 322 -276 q 181 -351 251 -351 l 181 -290 q 231 -273 215 -290 q 247 -218 247 -256 l 247 -186 l 179 -186 l 179 -67 l 306 -67 z "},"ˆ":{"ha":413,"x_min":14,"x_max":399,"o":"m 206 949 l 14 829 l 14 936 l 206 1051 l 399 936 l 399 829 l 206 949 z "},"ˇ":{"ha":413,"x_min":14,"x_max":399,"o":"m 399 944 l 206 829 l 14 944 l 14 1051 l 206 932 l 399 1051 l 399 944 z "},"ˉ":{"ha":517,"x_min":14,"x_max":503,"o":"m 503 986 l 503 885 l 14 885 l 14 986 l 503 986 z "},"˘":{"ha":424,"x_min":14,"x_max":410,"o":"m 211 847 q 66 898 118 847 q 14 1028 14 949 l 14 1053 l 93 1053 q 119 976 93 1001 q 211 950 146 950 q 303 976 276 950 q 329 1053 329 1001 l 410 1053 l 410 1026 q 357 897 410 947 q 211 847 304 847 z "},"˙":{"ha":178,"x_min":14,"x_max":164,"o":"m 14 936 q 36 990 14 968 q 89 1011 58 1011 q 142 990 121 1011 q 164 936 164 968 q 142 883 164 906 q 89 861 121 861 q 36 883 58 861 q 14 936 14 906 z "},"˚":{"ha":318,"x_min":14,"x_max":304,"o":"m 158 1135 q 263 1095 221 1135 q 304 989 304 1056 q 263 884 304 924 q 158 844 221 844 q 56 884 97 844 q 14 989 14 924 q 56 1094 14 1054 q 158 1135 97 1135 m 158 1063 q 107 1042 128 1063 q 86 990 86 1022 q 107 938 86 958 q 158 917 128 917 q 211 938 190 917 q 232 990 232 958 q 211 1042 232 1022 q 158 1063 190 1063 z "},"˛":{"ha":353,"x_min":14,"x_max":317,"o":"m 272 7 l 272 -78 l 207 -78 q 129 -135 129 -78 q 207 -193 129 -193 l 317 -193 l 317 -281 l 190 -281 q 63 -241 113 -281 q 14 -135 14 -201 q 63 -31 14 -69 q 194 7 113 7 l 272 7 z "},"˜":{"ha":464,"x_min":14,"x_max":450,"o":"m 160 988 q 205 979 186 988 q 247 954 224 971 q 281 933 267 940 q 313 926 294 926 q 352 941 336 926 q 371 985 368 956 l 450 985 q 401 877 440 915 q 306 839 363 839 q 261 848 279 839 q 218 874 243 857 q 183 894 196 888 q 151 901 169 901 q 113 886 129 901 q 93 843 96 871 l 14 843 q 63 950 24 913 q 160 988 101 988 z "},"˝":{"ha":463,"x_min":14,"x_max":449,"o":"m 100 835 l 14 835 l 107 1049 l 224 1049 l 100 835 m 308 835 l 222 835 l 333 1049 l 449 1049 l 308 835 z "},"π":{"ha":981,"x_min":50,"x_max":921,"o":"m 921 763 l 921 661 l 811 661 l 811 0 l 685 0 l 685 661 l 285 661 l 285 0 l 158 0 l 158 661 l 50 661 l 50 763 l 921 763 z "},"–":{"ha":992,"x_min":131,"x_max":861,"o":"m 861 563 l 861 454 l 131 454 l 131 563 l 861 563 z "},"—":{"ha":1279,"x_min":131,"x_max":1150,"o":"m 1150 563 l 1150 454 l 131 454 l 131 563 l 1150 563 z "},"‘":{"ha":211,"x_min":33,"x_max":176,"o":"m 50 803 q 33 931 33 876 q 69 1050 33 1013 q 174 1088 104 1088 l 174 1026 q 124 1009 140 1026 q 108 954 108 992 l 108 922 l 176 922 l 176 803 l 50 803 z "},"’":{"ha":211,"x_min":35,"x_max":178,"o":"m 161 1088 q 178 960 178 1015 q 142 840 178 878 q 38 803 107 803 l 38 864 q 87 881 71 864 q 103 936 103 899 l 103 968 l 35 968 l 35 1088 l 161 1088 z "},"‚":{"ha":258,"x_min":54,"x_max":201,"o":"m 183 93 q 201 -42 201 19 q 58 -199 201 -199 l 58 -137 q 109 -121 93 -137 q 125 -68 125 -104 l 125 -36 l 54 -36 l 54 93 l 183 93 z "},"“":{"ha":399,"x_min":33,"x_max":365,"o":"m 50 803 q 33 931 33 876 q 69 1050 33 1013 q 174 1088 104 1088 l 174 1026 q 124 1009 140 1026 q 108 954 108 992 l 108 922 l 176 922 l 176 803 l 50 803 m 238 803 q 222 931 222 869 q 257 1050 222 1013 q 363 1088 292 1088 l 363 1026 q 313 1009 329 1026 q 297 954 297 992 l 297 922 l 365 922 l 365 803 l 238 803 z "},"”":{"ha":399,"x_min":35,"x_max":365,"o":"m 161 1088 q 178 960 178 1015 q 142 840 178 878 q 38 803 107 803 l 38 864 q 87 881 71 864 q 103 936 103 899 l 103 968 l 35 968 l 35 1088 l 161 1088 m 350 1088 q 365 960 365 1021 q 331 840 365 878 q 225 803 296 803 l 225 864 q 274 881 258 864 q 290 936 290 899 l 290 968 l 222 968 l 222 1088 l 350 1088 z "},"„":{"ha":399,"x_min":35,"x_max":365,"o":"m 161 92 q 178 -36 178 19 q 142 -156 178 -118 q 38 -193 107 -193 l 38 -132 q 87 -115 71 -132 q 103 -60 103 -97 l 103 -28 l 35 -28 l 35 92 l 161 92 m 350 92 q 365 -36 365 25 q 331 -156 365 -118 q 225 -193 296 -193 l 225 -132 q 274 -115 258 -132 q 290 -60 290 -97 l 290 -28 l 222 -28 l 222 92 l 350 92 z "},"†":{"ha":771,"x_min":68,"x_max":703,"o":"m 703 661 l 435 674 l 449 -361 l 322 -361 l 336 674 l 68 661 l 68 763 l 336 749 l 322 1085 l 449 1085 l 435 749 l 703 763 l 703 661 z "},"‡":{"ha":774,"x_min":69,"x_max":704,"o":"m 436 674 l 436 50 l 704 63 l 704 -37 l 436 -25 l 450 -361 l 324 -361 l 338 -25 l 69 -37 l 69 63 l 338 50 l 338 674 l 69 661 l 69 763 l 338 749 l 324 1085 l 450 1085 l 436 749 l 704 763 l 704 661 l 436 674 z "},"•":{"ha":619,"x_min":139,"x_max":481,"o":"m 139 463 q 188 584 139 535 q 308 633 238 633 q 431 584 381 633 q 481 463 481 535 q 431 342 481 392 q 308 293 381 293 q 188 342 238 293 q 139 463 139 392 z "},"…":{"ha":835,"x_min":76,"x_max":758,"o":"m 338 81 q 361 139 338 115 q 418 163 385 163 q 475 139 451 163 q 499 81 499 115 q 475 24 499 47 q 418 0 451 0 q 361 24 385 0 q 338 81 338 47 m 597 81 q 621 139 597 115 q 678 163 644 163 q 735 139 711 163 q 758 81 758 115 q 735 24 758 47 q 678 0 711 0 q 621 24 644 0 q 597 81 597 47 m 76 81 q 100 139 76 115 q 157 163 124 163 q 214 139 190 163 q 238 81 238 115 q 214 24 238 47 q 157 0 190 0 q 100 24 124 0 q 76 81 76 47 z "},"‰":{"ha":1408,"x_min":64,"x_max":1344,"o":"m 265 976 q 411 921 354 976 q 468 771 468 865 q 411 622 468 678 q 265 565 354 565 q 121 622 178 565 q 64 771 64 678 q 120 921 64 865 q 265 976 176 976 m 819 963 l 257 0 l 131 0 l 693 963 l 819 963 m 169 771 q 194 676 169 707 q 265 644 219 644 q 336 676 311 644 q 361 771 361 707 q 265 897 361 897 q 169 771 169 897 m 685 397 q 830 341 772 397 q 888 192 888 285 q 831 42 888 97 q 685 -14 774 -14 q 540 42 596 -14 q 483 192 483 97 q 540 341 483 285 q 685 397 597 397 m 1143 397 q 1288 341 1231 397 q 1344 192 1344 285 q 1288 42 1344 97 q 1143 -14 1232 -14 q 997 42 1054 -14 q 940 192 940 97 q 997 341 940 285 q 1143 397 1054 397 m 589 192 q 614 97 589 128 q 685 65 639 65 q 756 97 731 65 q 781 192 781 128 q 756 287 781 256 q 685 318 731 318 q 614 287 639 318 q 589 192 589 256 m 1046 192 q 1072 97 1046 128 q 1142 65 1097 65 q 1213 97 1188 65 q 1238 192 1238 128 q 1213 287 1238 256 q 1142 318 1188 318 q 1072 287 1097 318 q 1046 192 1046 256 z "},"‹":{"ha":389,"x_min":63,"x_max":319,"o":"m 196 167 l 63 410 l 196 653 l 319 653 l 182 410 l 319 167 l 196 167 z "},"›":{"ha":389,"x_min":69,"x_max":326,"o":"m 207 410 l 69 653 l 193 653 l 326 410 l 193 167 l 69 167 l 207 410 z "},"⁄":{"ha":825,"x_min":94,"x_max":783,"o":"m 783 963 l 221 0 l 94 0 l 657 963 l 783 963 z "},"€":{"ha":1108,"x_min":39,"x_max":1076,"o":"m 636 103 q 807 145 732 103 q 924 267 882 188 l 1076 267 q 903 63 1021 133 q 636 -8 786 -8 q 435 32 529 -8 q 272 147 340 72 q 171 318 203 221 l 39 318 l 39 413 l 150 413 q 146 482 146 446 q 150 553 146 518 l 39 553 l 39 646 l 171 646 q 347 883 219 794 q 636 972 474 972 q 903 901 786 972 q 1076 697 1021 831 l 924 697 q 807 818 882 776 q 636 860 732 860 q 433 803 521 860 q 306 646 346 747 l 636 646 l 636 553 l 281 553 q 275 482 275 524 q 281 413 275 442 l 636 413 l 636 318 l 306 318 q 434 160 346 217 q 636 103 522 103 z "},"₺":{"ha":1192,"x_min":33,"x_max":1004,"o":"m 1004 579 q 883 125 1004 274 q 497 -24 761 -24 q 261 7 385 -24 l 261 335 l 40 279 l 40 376 l 261 431 l 261 565 l 33 510 l 33 603 l 261 660 l 261 971 l 390 971 l 390 692 l 635 753 l 635 657 l 390 597 l 390 463 l 625 519 l 625 425 l 390 367 l 390 103 q 499 93 436 93 q 784 215 694 93 q 874 579 874 336 l 1004 579 z "},"₽":{"ha":858,"x_min":39,"x_max":806,"o":"m 286 397 l 286 271 l 588 271 l 588 167 l 286 167 l 286 0 l 160 0 l 160 167 l 39 167 l 39 271 l 160 271 l 160 397 l 40 397 l 40 497 l 160 497 l 160 963 l 472 963 q 656 926 581 963 q 768 824 731 889 q 806 679 806 760 q 723 477 806 557 q 472 397 640 397 l 286 397 m 286 497 l 472 497 q 627 545 576 497 q 678 679 678 593 q 628 813 678 765 q 472 861 578 861 l 286 861 l 286 497 z "},"ℓ":{"ha":335,"x_min":104,"x_max":231,"o":"m 231 1028 l 231 0 l 104 0 l 104 1028 l 231 1028 z "},"™":{"ha":1088,"x_min":31,"x_max":996,"o":"m 31 978 l 351 978 l 351 901 l 240 901 l 242 489 l 140 489 l 140 901 l 31 901 l 31 978 m 996 978 l 996 489 l 899 489 l 899 825 l 750 489 l 679 489 l 532 831 l 532 489 l 438 489 l 438 978 l 560 978 l 717 610 l 876 978 l 996 978 z "},"Ω":{"ha":1088,"x_min":54,"x_max":1033,"o":"m 1033 482 q 980 258 1033 360 q 828 100 926 156 l 1015 100 l 1015 0 l 635 0 l 635 104 q 831 234 756 135 q 906 478 906 333 q 858 680 906 593 q 729 813 811 767 q 544 860 647 860 q 358 813 440 860 q 230 678 276 765 q 183 478 183 592 q 258 234 183 333 q 454 104 332 135 l 454 0 l 72 0 l 72 100 l 260 100 q 108 258 163 156 q 54 482 54 360 q 119 735 54 624 q 297 910 185 847 q 544 972 410 972 q 791 910 679 972 q 968 735 903 847 q 1033 482 1033 624 z "},"℮":{"ha":1057,"x_min":65,"x_max":992,"o":"m 540 -10 q 295 45 403 -10 q 126 206 188 100 q 65 458 65 313 q 119 721 65 604 q 278 905 174 838 q 528 972 383 972 q 776 910 671 972 q 937 744 882 847 q 992 522 992 640 l 992 436 l 253 436 l 253 206 q 376 106 307 139 q 540 74 444 74 q 722 117 640 74 q 896 251 804 161 l 953 189 q 540 -10 765 -10 m 792 771 q 679 858 747 828 q 528 889 611 889 q 370 856 440 889 q 253 756 300 822 l 253 526 l 792 526 l 792 771 z "},"∂":{"ha":793,"x_min":54,"x_max":739,"o":"m 436 775 q 537 751 494 775 q 610 681 579 728 q 550 876 603 803 q 401 949 497 949 q 292 933 347 949 l 292 1008 q 419 1028 356 1028 q 656 908 574 1028 q 739 572 739 789 q 683 264 739 397 q 531 59 626 131 q 319 -12 435 -12 q 128 69 203 -12 q 54 310 54 151 q 105 538 54 431 q 243 710 156 644 q 436 775 331 775 m 432 671 q 307 623 364 671 q 217 492 250 575 q 183 310 183 408 q 224 147 183 201 q 338 92 265 92 q 465 141 406 92 q 559 272 524 190 q 594 447 594 354 q 551 613 594 556 q 432 671 508 671 z "},"∆":{"ha":944,"x_min":28,"x_max":917,"o":"m 525 963 l 917 99 l 917 0 l 28 0 l 28 99 l 419 963 l 525 963 m 157 99 l 788 99 l 472 818 l 157 99 z "},"∏":{"ha":1025,"x_min":50,"x_max":976,"o":"m 976 963 l 976 863 l 867 863 l 867 0 l 740 0 l 740 863 l 285 863 l 285 0 l 158 0 l 158 863 l 50 863 l 50 963 l 976 963 z "},"∑":{"ha":635,"x_min":56,"x_max":579,"o":"m 579 864 l 164 864 l 532 489 l 532 392 l 164 18 l 579 18 l 579 -81 l 56 -81 l 56 65 l 419 438 l 56 817 l 56 963 l 579 963 l 579 864 z "},"−":{"ha":815,"x_min":131,"x_max":685,"o":"m 685 563 l 685 454 l 131 454 l 131 563 l 685 563 z "},"∕":{"ha":749,"x_min":114,"x_max":618,"o":"m 618 1308 l 239 -236 l 114 -236 l 493 1308 l 618 1308 z "},"∙":{"ha":319,"x_min":79,"x_max":240,"o":"m 79 476 q 103 535 79 511 q 160 558 126 558 q 217 535 193 558 q 240 476 240 511 q 217 419 240 443 q 160 396 193 396 q 103 419 126 396 q 79 476 79 443 z "},"√":{"ha":1094,"x_min":31,"x_max":1083,"o":"m 1083 1206 l 397 -60 l 331 -60 l 158 244 l 68 190 l 31 257 l 225 374 l 381 96 l 982 1206 l 1083 1206 z "},"∞":{"ha":932,"x_min":36,"x_max":896,"o":"m 688 689 q 790 665 743 689 q 867 594 838 640 q 896 483 896 547 q 835 333 896 389 q 683 276 774 276 q 567 312 619 276 q 464 410 515 347 q 372 313 429 350 q 244 276 314 276 q 97 331 157 276 q 36 482 36 386 q 98 633 36 576 q 250 689 160 689 q 365 653 314 689 q 467 554 415 618 q 560 651 503 614 q 688 689 618 689 m 254 372 q 340 401 299 372 q 411 476 382 429 q 328 564 363 535 q 254 593 293 593 q 175 563 206 593 q 144 482 144 533 q 175 401 144 431 q 254 372 206 372 m 679 372 q 758 402 728 372 q 788 483 788 432 q 758 564 788 535 q 679 593 728 593 q 591 564 633 593 q 521 488 549 535 q 601 402 564 432 q 679 372 638 372 z "},"∫":{"ha":363,"x_min":-54,"x_max":428,"o":"m 188 1079 q 249 1229 199 1183 q 396 1275 300 1275 l 428 1275 l 417 1172 l 394 1172 q 338 1151 357 1172 q 314 1079 319 1129 l 186 -79 q 124 -228 175 -182 q -22 -274 74 -274 l -54 -274 l -43 -171 l -21 -171 q 35 -149 17 -171 q 60 -79 54 -128 l 188 1079 z "},"≈":{"ha":722,"x_min":53,"x_max":671,"o":"m 254 482 q 319 470 292 482 q 383 433 346 458 q 433 403 411 414 q 479 393 454 393 q 543 415 515 393 q 576 478 571 438 l 671 478 q 599 328 653 378 q 468 279 546 279 q 403 292 431 279 q 340 328 375 304 q 290 358 310 349 q 243 368 269 368 q 180 345 208 368 q 146 283 151 322 l 53 283 q 124 433 71 383 q 254 482 176 482 m 254 775 q 319 763 292 775 q 383 726 346 751 q 433 697 411 707 q 479 686 454 686 q 543 708 515 686 q 576 771 571 731 l 671 771 q 599 622 653 671 q 468 572 546 572 q 403 585 431 572 q 340 621 375 597 q 290 651 310 642 q 243 661 269 661 q 180 638 208 661 q 146 576 151 615 l 53 576 q 124 726 71 676 q 254 775 176 775 z "},"≠":{"ha":1058,"x_min":175,"x_max":897,"o":"m 776 714 l 897 714 l 897 603 l 676 603 l 504 413 l 897 413 l 897 303 l 404 303 l 283 169 l 175 169 l 296 303 l 175 303 l 175 413 l 394 413 l 567 603 l 175 603 l 175 714 l 667 714 l 788 847 l 897 847 l 776 714 z "},"≤":{"ha":764,"x_min":129,"x_max":635,"o":"m 300 561 l 635 293 l 465 293 l 129 560 l 465 826 l 635 826 l 300 561 m 133 226 l 629 226 l 629 132 l 133 132 l 133 226 z "},"≥":{"ha":764,"x_min":129,"x_max":635,"o":"m 129 293 l 464 561 l 129 826 l 299 826 l 635 560 l 299 293 l 129 293 m 135 226 l 631 226 l 631 132 l 135 132 l 135 226 z "},"◊":{"ha":769,"x_min":50,"x_max":719,"o":"m 719 486 l 385 150 l 50 486 l 385 821 l 719 486 m 186 486 l 385 286 l 583 486 l 385 685 l 186 486 z "},"ﬁ":{"ha":793,"x_min":32,"x_max":711,"o":"m 258 763 l 689 763 l 689 0 l 563 0 l 563 660 l 258 660 l 258 0 l 131 0 l 131 660 l 32 660 l 32 763 l 131 763 l 131 826 q 197 1008 131 951 q 407 1065 264 1065 l 407 963 q 291 931 324 963 q 258 826 258 900 l 258 763 m 626 885 q 566 910 590 885 q 542 971 542 935 q 567 1032 542 1007 q 626 1057 592 1057 q 687 1032 663 1057 q 711 971 711 1007 q 687 910 711 935 q 626 885 663 885 z "},"ﬂ":{"ha":793,"x_min":32,"x_max":689,"o":"m 418 660 l 258 660 l 258 0 l 131 0 l 131 660 l 32 660 l 32 763 l 131 763 l 131 826 q 197 1008 131 951 q 407 1065 264 1065 l 407 963 q 291 931 324 963 q 258 826 258 900 l 258 763 l 418 763 l 418 660 m 689 1028 l 689 0 l 563 0 l 563 1028 l 689 1028 z "}}}
